<?xml version="1.0" encoding="UTF-8" standalone="no"?>
<svg
   xmlns:dc="http://purl.org/dc/elements/1.1/"
   xmlns:cc="http://creativecommons.org/ns#"
   xmlns:rdf="http://www.w3.org/1999/02/22-rdf-syntax-ns#"
   xmlns:svg="http://www.w3.org/2000/svg"
   xmlns="http://www.w3.org/2000/svg"
   viewBox="0 0 602.66669 504"
   height="504"
   width="602.66669"
   xml:space="preserve"
   id="svg2"
   version="1.1"><metadata
     id="metadata8"><rdf:RDF><cc:Work
         rdf:about=""><dc:format>image/svg+xml</dc:format><dc:type
           rdf:resource="http://purl.org/dc/dcmitype/StillImage" /></cc:Work></rdf:RDF></metadata><defs
     id="defs6" /><g
     transform="matrix(1.3333333,0,0,-1.3333333,0,504)"
     id="g10"><g
       transform="scale(0.1)"
       id="g12"><path
         id="path14"
         style="fill:none;stroke:#000000;stroke-width:9.75;stroke-linecap:round;stroke-linejoin:miter;stroke-miterlimit:6;stroke-dasharray:none;stroke-opacity:1"
         d="M 730,3385 V 3175" /><path
         id="path16"
         style="fill:none;stroke:#000000;stroke-width:9.75;stroke-linecap:round;stroke-linejoin:miter;stroke-miterlimit:6;stroke-dasharray:none;stroke-opacity:1"
         d="M 805,3280 H 790" /><path
         id="path18"
         style="fill:none;stroke:#000000;stroke-width:9.75;stroke-linecap:round;stroke-linejoin:miter;stroke-miterlimit:6;stroke-dasharray:none;stroke-opacity:1"
         d="M 565,3520 V 3385 H 685 V 3175 H 565 v -135" /><path
         id="path20"
         style="fill:none;stroke:#000000;stroke-width:9.75;stroke-linecap:round;stroke-linejoin:miter;stroke-miterlimit:6;stroke-dasharray:none;stroke-opacity:1"
         d="m 730,3280 c 0,16.57 13.434,30 30,30 16.566,0 30,-13.43 30,-30 0,-16.57 -13.434,-30 -30,-30 -16.566,0 -30,13.43 -30,30" /><path
         id="path22"
         style="fill:none;stroke:#000000;stroke-width:9.75;stroke-linecap:round;stroke-linejoin:miter;stroke-miterlimit:6;stroke-dasharray:none;stroke-opacity:1"
         d="m 3865,2140 v -135 h -120 v -210 h 120 v -135" /><path
         id="path24"
         style="fill:none;stroke:#000000;stroke-width:9.75;stroke-linecap:round;stroke-linejoin:miter;stroke-miterlimit:6;stroke-dasharray:none;stroke-opacity:1"
         d="M 3700,2005 V 1795" /><path
         id="path26"
         style="fill:none;stroke:#000000;stroke-width:9.75;stroke-linecap:round;stroke-linejoin:miter;stroke-miterlimit:6;stroke-dasharray:none;stroke-opacity:1"
         d="m 3625,1900 h 75" /><path
         id="path28"
         style="fill:none;stroke:#000000;stroke-width:9.75;stroke-linecap:round;stroke-linejoin:miter;stroke-miterlimit:6;stroke-dasharray:none;stroke-opacity:1"
         d="M 2680,3385 V 3175" /><path
         id="path30"
         style="fill:none;stroke:#000000;stroke-width:9.75;stroke-linecap:round;stroke-linejoin:miter;stroke-miterlimit:6;stroke-dasharray:none;stroke-opacity:1"
         d="m 2605,3280 h 15" /><path
         id="path32"
         style="fill:none;stroke:#000000;stroke-width:9.75;stroke-linecap:round;stroke-linejoin:miter;stroke-miterlimit:6;stroke-dasharray:none;stroke-opacity:1"
         d="m 2845,3520 v -135 h -120 v -210 h 120 v -135" /><path
         id="path34"
         style="fill:none;stroke:#000000;stroke-width:9.75;stroke-linecap:round;stroke-linejoin:miter;stroke-miterlimit:6;stroke-dasharray:none;stroke-opacity:1"
         d="m 2680,3280 c 0,16.57 -13.43,30 -30,30 -16.57,0 -30,-13.43 -30,-30 0,-16.57 13.43,-30 30,-30 16.57,0 30,13.43 30,30" /><path
         id="path36"
         style="fill:none;stroke:#000000;stroke-width:9.75;stroke-linecap:round;stroke-linejoin:miter;stroke-miterlimit:6;stroke-dasharray:none;stroke-opacity:1"
         d="M 3700,3385 V 3175" /><path
         id="path38"
         style="fill:none;stroke:#000000;stroke-width:9.75;stroke-linecap:round;stroke-linejoin:miter;stroke-miterlimit:6;stroke-dasharray:none;stroke-opacity:1"
         d="m 3625,3280 h 15" /><path
         id="path40"
         style="fill:none;stroke:#000000;stroke-width:9.75;stroke-linecap:round;stroke-linejoin:miter;stroke-miterlimit:6;stroke-dasharray:none;stroke-opacity:1"
         d="m 3865,3520 v -135 h -120 v -210 h 120 v -135" /><path
         id="path42"
         style="fill:none;stroke:#000000;stroke-width:9.75;stroke-linecap:round;stroke-linejoin:miter;stroke-miterlimit:6;stroke-dasharray:none;stroke-opacity:1"
         d="m 3700,3280 c 0,16.57 -13.43,30 -30,30 -16.57,0 -30,-13.43 -30,-30 0,-16.57 13.43,-30 30,-30 16.57,0 30,13.43 30,30" /><path
         id="path44"
         style="fill:none;stroke:#000000;stroke-width:9.75;stroke-linecap:round;stroke-linejoin:miter;stroke-miterlimit:6;stroke-dasharray:none;stroke-opacity:1"
         d="M 3700,2725 V 2515" /><path
         id="path46"
         style="fill:none;stroke:#000000;stroke-width:9.75;stroke-linecap:round;stroke-linejoin:miter;stroke-miterlimit:6;stroke-dasharray:none;stroke-opacity:1"
         d="m 3625,2620 h 15" /><path
         id="path48"
         style="fill:none;stroke:#000000;stroke-width:9.75;stroke-linecap:round;stroke-linejoin:miter;stroke-miterlimit:6;stroke-dasharray:none;stroke-opacity:1"
         d="m 3865,2860 v -135 h -120 v -210 h 120 v -135" /><path
         id="path50"
         style="fill:none;stroke:#000000;stroke-width:9.75;stroke-linecap:round;stroke-linejoin:miter;stroke-miterlimit:6;stroke-dasharray:none;stroke-opacity:1"
         d="m 3700,2620 c 0,16.57 -13.43,30 -30,30 -16.57,0 -30,-13.43 -30,-30 0,-16.57 13.43,-30 30,-30 16.57,0 30,13.43 30,30" /><path
         id="path52"
         style="fill:none;stroke:#000000;stroke-width:9.75;stroke-linecap:round;stroke-linejoin:miter;stroke-miterlimit:6;stroke-dasharray:none;stroke-opacity:1"
         d="m 3865,1480 v -135 h -120 v -210 h 120 v -135" /><path
         id="path54"
         style="fill:none;stroke:#000000;stroke-width:9.75;stroke-linecap:round;stroke-linejoin:miter;stroke-miterlimit:6;stroke-dasharray:none;stroke-opacity:1"
         d="M 3700,1345 V 1135" /><path
         id="path56"
         style="fill:none;stroke:#000000;stroke-width:9.75;stroke-linecap:round;stroke-linejoin:miter;stroke-miterlimit:6;stroke-dasharray:none;stroke-opacity:1"
         d="m 3625,1240 h 75" /><path
         id="path58"
         style="fill:none;stroke:#000000;stroke-width:9.75;stroke-linecap:round;stroke-linejoin:miter;stroke-miterlimit:6;stroke-dasharray:none;stroke-opacity:1"
         d="m 2845,1480 v -135 h 120 v -210 h -120 v -135" /><path
         id="path60"
         style="fill:none;stroke:#000000;stroke-width:9.75;stroke-linecap:round;stroke-linejoin:miter;stroke-miterlimit:6;stroke-dasharray:none;stroke-opacity:1"
         d="M 3010,1345 V 1135" /><path
         id="path62"
         style="fill:none;stroke:#000000;stroke-width:9.75;stroke-linecap:round;stroke-linejoin:miter;stroke-miterlimit:6;stroke-dasharray:none;stroke-opacity:1"
         d="m 3085,1240 h -75" /><path
         id="path64"
         style="fill:none;stroke:#000000;stroke-width:9.75;stroke-linecap:round;stroke-linejoin:miter;stroke-miterlimit:6;stroke-dasharray:none;stroke-opacity:1"
         d="M 565,3640 V 3520" /><path
         id="path66"
         style="fill:none;stroke:#000000;stroke-width:9.75;stroke-linecap:round;stroke-linejoin:miter;stroke-miterlimit:6;stroke-dasharray:none;stroke-opacity:1"
         d="M 685,3640 H 445" /><g
         transform="scale(10)"
         id="g68"><text
           id="text72"
           style="font-variant:normal;font-weight:normal;font-size:13.5px;font-family:Times;-inkscape-font-specification:Times-Roman;writing-mode:lr-tb;fill:#000000;fill-opacity:1;fill-rule:nonzero;stroke:none"
           transform="matrix(1,0,0,-1,45.0578,366.25)"><tspan
             id="tspan70"
             y="0"
             x="0 9.7469997 16.497">Vdd</tspan></text>
</g><path
         id="path74"
         style="fill:none;stroke:#000000;stroke-width:9.75;stroke-linecap:round;stroke-linejoin:miter;stroke-miterlimit:6;stroke-dasharray:none;stroke-opacity:1"
         d="M 2845,3640 V 3520" /><path
         id="path76"
         style="fill:none;stroke:#000000;stroke-width:9.75;stroke-linecap:round;stroke-linejoin:miter;stroke-miterlimit:6;stroke-dasharray:none;stroke-opacity:1"
         d="M 2965,3640 H 2725" /><g
         transform="scale(10)"
         id="g78"><text
           id="text82"
           style="font-variant:normal;font-weight:normal;font-size:13.5px;font-family:Times;-inkscape-font-specification:Times-Roman;writing-mode:lr-tb;fill:#000000;fill-opacity:1;fill-rule:nonzero;stroke:none"
           transform="matrix(1,0,0,-1,273.058,366.25)"><tspan
             id="tspan80"
             y="0"
             x="0 9.7469997 16.497">Vdd</tspan></text>
</g><path
         id="path84"
         style="fill:none;stroke:#000000;stroke-width:9.75;stroke-linecap:round;stroke-linejoin:miter;stroke-miterlimit:6;stroke-dasharray:none;stroke-opacity:1"
         d="M 3865,3640 V 3520" /><path
         id="path86"
         style="fill:none;stroke:#000000;stroke-width:9.75;stroke-linecap:round;stroke-linejoin:miter;stroke-miterlimit:6;stroke-dasharray:none;stroke-opacity:1"
         d="M 3985,3640 H 3745" /><g
         transform="scale(10)"
         id="g88"><text
           id="text92"
           style="font-variant:normal;font-weight:normal;font-size:13.5px;font-family:Times;-inkscape-font-specification:Times-Roman;writing-mode:lr-tb;fill:#000000;fill-opacity:1;fill-rule:nonzero;stroke:none"
           transform="matrix(1,0,0,-1,375.058,366.25)"><tspan
             id="tspan90"
             y="0"
             x="0 9.7469997 16.497">Vdd</tspan></text>
</g><path
         id="path94"
         style="fill:none;stroke:#000000;stroke-width:9.75;stroke-linecap:round;stroke-linejoin:miter;stroke-miterlimit:6;stroke-dasharray:none;stroke-opacity:1"
         d="M 2605,3280 H 805" /><path
         id="path96"
         style="fill:none;stroke:#ff0000;stroke-width:9.75;stroke-linecap:round;stroke-linejoin:miter;stroke-miterlimit:6;stroke-dasharray:none;stroke-opacity:1"
         d="m 685,2680 c 0,66.27 -53.727,120 -120,120 -66.273,0 -120,-53.73 -120,-120 0,-66.27 53.727,-120 120,-120 66.273,0 120,53.73 120,120" /><path
         id="path98"
         style="fill:none;stroke:#ff0000;stroke-width:9.75;stroke-linecap:round;stroke-linejoin:miter;stroke-miterlimit:6;stroke-dasharray:none;stroke-opacity:1"
         d="M 565,2920 V 2800" /><path
         id="path100"
         style="fill:none;stroke:#ff0000;stroke-width:9.75;stroke-linecap:round;stroke-linejoin:miter;stroke-miterlimit:6;stroke-dasharray:none;stroke-opacity:1"
         d="m 565,2440 v 120" /><path
         id="path102"
         style="fill:none;stroke:#ff0000;stroke-width:7.3125;stroke-linecap:round;stroke-linejoin:miter;stroke-miterlimit:6;stroke-dasharray:none;stroke-opacity:1"
         d="m 565,2650 v 105" /><path
         id="path104"
         style="fill:#ff0000;fill-opacity:1;fill-rule:evenodd;stroke:none"
         d="m 541,2689 c 15,-30 15,-39 24,-84 9,45 9,54 24,84 -18,-6 -30,-6 -48,0" /><path
         id="path106"
         style="fill:none;stroke:#ff0000;stroke-width:9.75;stroke-linecap:round;stroke-linejoin:miter;stroke-miterlimit:6;stroke-dasharray:none;stroke-opacity:1"
         d="M 745,2800 385,2560" /><path
         id="path108"
         style="fill:none;stroke:#ff0000;stroke-width:9.75;stroke-linecap:round;stroke-linejoin:miter;stroke-miterlimit:6;stroke-dasharray:none;stroke-opacity:1"
         d="m 685,2800 h 60 v -60" /><path
         id="path110"
         style="fill:none;stroke:#000000;stroke-width:9.75;stroke-linecap:round;stroke-linejoin:miter;stroke-miterlimit:6;stroke-dasharray:none;stroke-opacity:1"
         d="m 565,2320 v 120" /><path
         id="path112"
         style="fill:none;stroke:#000000;stroke-width:9.75;stroke-linecap:round;stroke-linejoin:miter;stroke-miterlimit:6;stroke-dasharray:none;stroke-opacity:1"
         d="M 685,2320 H 445" /><path
         id="path114"
         style="fill:none;stroke:#000000;stroke-width:9.75;stroke-linecap:round;stroke-linejoin:miter;stroke-miterlimit:6;stroke-dasharray:none;stroke-opacity:1"
         d="m 632.5,2267.5 h -135" /><path
         id="path116"
         style="fill:none;stroke:#000000;stroke-width:9.75;stroke-linecap:round;stroke-linejoin:miter;stroke-miterlimit:6;stroke-dasharray:none;stroke-opacity:1"
         d="M 580,2215 H 550" /><path
         id="path118"
         style="fill:none;stroke:#000000;stroke-width:9.75;stroke-linecap:round;stroke-linejoin:miter;stroke-miterlimit:6;stroke-dasharray:none;stroke-opacity:1"
         d="M 565,3040 V 2920" /><path
         id="path120"
         style="fill:none;stroke:#000000;stroke-width:9.75;stroke-linecap:round;stroke-linejoin:miter;stroke-miterlimit:6;stroke-dasharray:none;stroke-opacity:1"
         d="M 2845,1480 V 3040" /><path
         id="path122"
         style="fill:none;stroke:#000000;stroke-width:9.75;stroke-linecap:round;stroke-linejoin:miter;stroke-miterlimit:6;stroke-dasharray:none;stroke-opacity:1"
         d="M 3685,1240 H 3085" /><path
         id="path124"
         style="fill:none;stroke:#000000;stroke-width:9.75;stroke-linecap:round;stroke-linejoin:miter;stroke-miterlimit:6;stroke-dasharray:none;stroke-opacity:1"
         d="m 2845,880 v 120" /><path
         id="path126"
         style="fill:none;stroke:#000000;stroke-width:9.75;stroke-linecap:round;stroke-linejoin:miter;stroke-miterlimit:6;stroke-dasharray:none;stroke-opacity:1"
         d="M 2965,880 H 2725" /><path
         id="path128"
         style="fill:none;stroke:#000000;stroke-width:9.75;stroke-linecap:round;stroke-linejoin:miter;stroke-miterlimit:6;stroke-dasharray:none;stroke-opacity:1"
         d="m 2912.5,827.5 h -135" /><path
         id="path130"
         style="fill:none;stroke:#000000;stroke-width:9.75;stroke-linecap:round;stroke-linejoin:miter;stroke-miterlimit:6;stroke-dasharray:none;stroke-opacity:1"
         d="m 2860,775 h -30" /><path
         id="path132"
         style="fill:none;stroke:#000000;stroke-width:9.75;stroke-linecap:round;stroke-linejoin:miter;stroke-miterlimit:6;stroke-dasharray:none;stroke-opacity:1"
         d="m 3865,880 v 120" /><path
         id="path134"
         style="fill:none;stroke:#000000;stroke-width:9.75;stroke-linecap:round;stroke-linejoin:miter;stroke-miterlimit:6;stroke-dasharray:none;stroke-opacity:1"
         d="M 3985,880 H 3745" /><path
         id="path136"
         style="fill:none;stroke:#000000;stroke-width:9.75;stroke-linecap:round;stroke-linejoin:miter;stroke-miterlimit:6;stroke-dasharray:none;stroke-opacity:1"
         d="m 3932.5,827.5 h -135" /><path
         id="path138"
         style="fill:none;stroke:#000000;stroke-width:9.75;stroke-linecap:round;stroke-linejoin:miter;stroke-miterlimit:6;stroke-dasharray:none;stroke-opacity:1"
         d="m 3880,775 h -30" /><path
         id="path140"
         style="fill:none;stroke:#000000;stroke-width:9.75;stroke-linecap:round;stroke-linejoin:miter;stroke-miterlimit:6;stroke-dasharray:none;stroke-opacity:1"
         d="m 3145,1240 v 240 h -300" /><path
         id="path142"
         style="fill:none;stroke:#000000;stroke-width:9.75;stroke-linecap:round;stroke-linejoin:miter;stroke-miterlimit:6;stroke-dasharray:none;stroke-opacity:1"
         d="M 3865,1660 V 1480" /><path
         id="path144"
         style="fill:none;stroke:#000000;stroke-width:9.75;stroke-linecap:round;stroke-linejoin:miter;stroke-miterlimit:6;stroke-dasharray:none;stroke-opacity:1"
         d="M 3865,2380 V 2140" /><path
         id="path146"
         style="fill:none;stroke:#000000;stroke-width:9.75;stroke-linecap:round;stroke-linejoin:miter;stroke-miterlimit:6;stroke-dasharray:none;stroke-opacity:1"
         d="M 3865,3040 V 2860" /><path
         id="path148"
         style="fill:none;stroke:#000000;stroke-width:9.75;stroke-linecap:round;stroke-linejoin:miter;stroke-miterlimit:6;stroke-dasharray:none;stroke-opacity:1"
         d="M 3625,3280 H 2605" /><path
         id="path150"
         style="fill:none;stroke:#000000;stroke-width:9.75;stroke-linecap:round;stroke-linejoin:miter;stroke-miterlimit:6;stroke-dasharray:none;stroke-opacity:1"
         d="m 3625,1900 h -120 v 720 h 120" /><path
         id="path152"
         style="fill:none;stroke:#000000;stroke-width:9.75;stroke-linecap:round;stroke-linejoin:miter;stroke-miterlimit:6;stroke-dasharray:none;stroke-opacity:1"
         d="M 4405,1600 H 3385 v 660 h 120" /><path
         id="path154"
         style="fill:#000000;fill-opacity:1;fill-rule:evenodd;stroke:none"
         d="m 587.5,3040 c 0,12.43 -10.074,22.5 -22.5,22.5 -12.426,0 -22.5,-10.07 -22.5,-22.5 0,-12.43 10.074,-22.5 22.5,-22.5 12.426,0 22.5,10.07 22.5,22.5" /><path
         id="path156"
         style="fill:#000000;fill-opacity:1;fill-rule:evenodd;stroke:none"
         d="m 1007.5,3280 c 0,12.43 -10.074,22.5 -22.5,22.5 -12.426,0 -22.5,-10.07 -22.5,-22.5 0,-12.43 10.074,-22.5 22.5,-22.5 12.426,0 22.5,10.07 22.5,22.5" /><path
         id="path158"
         style="fill:#000000;fill-opacity:1;fill-rule:evenodd;stroke:none"
         d="m 2867.5,1480 c 0,12.43 -10.07,22.5 -22.5,22.5 -12.43,0 -22.5,-10.07 -22.5,-22.5 0,-12.43 10.07,-22.5 22.5,-22.5 12.43,0 22.5,10.07 22.5,22.5" /><path
         id="path160"
         style="fill:#000000;fill-opacity:1;fill-rule:evenodd;stroke:none"
         d="m 3167.5,1240 c 0,12.43 -10.07,22.5 -22.5,22.5 -12.43,0 -22.5,-10.07 -22.5,-22.5 0,-12.43 10.07,-22.5 22.5,-22.5 12.43,0 22.5,10.07 22.5,22.5" /><path
         id="path162"
         style="fill:#000000;fill-opacity:1;fill-rule:evenodd;stroke:none"
         d="m 3527.5,2260 c 0,12.43 -10.07,22.5 -22.5,22.5 -12.43,0 -22.5,-10.07 -22.5,-22.5 0,-12.43 10.07,-22.5 22.5,-22.5 12.43,0 22.5,10.07 22.5,22.5" /><path
         id="path164"
         style="fill:#000000;fill-opacity:1;fill-rule:evenodd;stroke:none"
         d="m 4127.5,2260 c 0,12.43 -10.07,22.5 -22.5,22.5 -12.43,0 -22.5,-10.07 -22.5,-22.5 0,-12.43 10.07,-22.5 22.5,-22.5 12.43,0 22.5,10.07 22.5,22.5" /><path
         id="path166"
         style="fill:#000000;fill-opacity:1;fill-rule:evenodd;stroke:none"
         d="m 4247.5,2260 c 0,12.43 -10.07,22.5 -22.5,22.5 -12.43,0 -22.5,-10.07 -22.5,-22.5 0,-12.43 10.07,-22.5 22.5,-22.5 12.43,0 22.5,10.07 22.5,22.5" /><path
         id="path168"
         style="fill:#000000;fill-opacity:1;fill-rule:evenodd;stroke:none"
         d="m 4367.5,2260 c 0,12.43 -10.07,22.5 -22.5,22.5 -12.43,0 -22.5,-10.07 -22.5,-22.5 0,-12.43 10.07,-22.5 22.5,-22.5 12.43,0 22.5,10.07 22.5,22.5" /><path
         id="path170"
         style="fill:#000000;fill-opacity:1;fill-rule:evenodd;stroke:none"
         d="m 4487.5,2260 c 0,12.43 -10.07,22.5 -22.5,22.5 -12.43,0 -22.5,-10.07 -22.5,-22.5 0,-12.43 10.07,-22.5 22.5,-22.5 12.43,0 22.5,10.07 22.5,22.5" /><path
         id="path172"
         style="fill:#000000;fill-opacity:1;fill-rule:evenodd;stroke:none"
         d="m 4127.5,1660 c 0,12.43 -10.07,22.5 -22.5,22.5 -12.43,0 -22.5,-10.07 -22.5,-22.5 0,-12.43 10.07,-22.5 22.5,-22.5 12.43,0 22.5,10.07 22.5,22.5" /><path
         id="path174"
         style="fill:#000000;fill-opacity:1;fill-rule:evenodd;stroke:none"
         d="m 4247.5,1660 c 0,12.43 -10.07,22.5 -22.5,22.5 -12.43,0 -22.5,-10.07 -22.5,-22.5 0,-12.43 10.07,-22.5 22.5,-22.5 12.43,0 22.5,10.07 22.5,22.5" /><path
         id="path176"
         style="fill:#000000;fill-opacity:1;fill-rule:evenodd;stroke:none"
         d="m 4367.5,1660 c 0,12.43 -10.07,22.5 -22.5,22.5 -12.43,0 -22.5,-10.07 -22.5,-22.5 0,-12.43 10.07,-22.5 22.5,-22.5 12.43,0 22.5,10.07 22.5,22.5" /><path
         id="path178"
         style="fill:#000000;fill-opacity:1;fill-rule:evenodd;stroke:none"
         d="m 4487.5,1660 c 0,12.43 -10.07,22.5 -22.5,22.5 -12.43,0 -22.5,-10.07 -22.5,-22.5 0,-12.43 10.07,-22.5 22.5,-22.5 12.43,0 22.5,10.07 22.5,22.5" /><path
         id="path180"
         style="fill:none;stroke:#666666;stroke-width:9.75;stroke-linecap:round;stroke-linejoin:miter;stroke-miterlimit:6;stroke-dasharray:none;stroke-opacity:1"
         d="m 1885,1720 v -135 h -120 v -210 h 120 v -135" /><path
         id="path182"
         style="fill:none;stroke:#666666;stroke-width:9.75;stroke-linecap:round;stroke-linejoin:miter;stroke-miterlimit:6;stroke-dasharray:none;stroke-opacity:1"
         d="M 1720,1585 V 1375" /><path
         id="path184"
         style="fill:none;stroke:#666666;stroke-width:9.75;stroke-linecap:round;stroke-linejoin:miter;stroke-miterlimit:6;stroke-dasharray:none;stroke-opacity:1"
         d="m 1645,1480 h 75" /><path
         id="path186"
         style="fill:none;stroke:#666666;stroke-width:9.75;stroke-linecap:round;stroke-linejoin:miter;stroke-miterlimit:6;stroke-dasharray:none;stroke-opacity:1"
         d="m 2305,1615 v 105" /><path
         id="path188"
         style="fill:none;stroke:#666666;stroke-width:9.75;stroke-linecap:round;stroke-linejoin:miter;stroke-miterlimit:6;stroke-dasharray:none;stroke-opacity:1"
         d="M 2305,1345 V 1240" /><path
         id="path190"
         style="fill:none;stroke:#666666;stroke-width:9.75;stroke-linecap:round;stroke-linejoin:miter;stroke-miterlimit:6;stroke-dasharray:none;stroke-opacity:1"
         d="m 2305,1615 -52.5,-22.5 105,-45 -105,-45 105,-45 -105,-45 105,-45 -52.5,-22.5" /><path
         id="path192"
         style="fill:none;stroke:#666666;stroke-width:9.75;stroke-linecap:round;stroke-linejoin:miter;stroke-miterlimit:6;stroke-dasharray:none;stroke-opacity:1"
         d="m 1885,1015 v 105" /><path
         id="path194"
         style="fill:none;stroke:#666666;stroke-width:9.75;stroke-linecap:round;stroke-linejoin:miter;stroke-miterlimit:6;stroke-dasharray:none;stroke-opacity:1"
         d="M 1885,745 V 640" /><path
         id="path196"
         style="fill:none;stroke:#666666;stroke-width:9.75;stroke-linecap:round;stroke-linejoin:miter;stroke-miterlimit:6;stroke-dasharray:none;stroke-opacity:1"
         d="m 1885,1015 -52.5,-22.5 105,-45 -105,-45 105,-45 -105,-45 105,-45 L 1885,745" /><path
         id="path198"
         style="fill:none;stroke:#666666;stroke-width:9.75;stroke-linecap:round;stroke-linejoin:miter;stroke-miterlimit:6;stroke-dasharray:none;stroke-opacity:1"
         d="M 1885,520 V 640" /><path
         id="path200"
         style="fill:none;stroke:#666666;stroke-width:9.75;stroke-linecap:round;stroke-linejoin:miter;stroke-miterlimit:6;stroke-dasharray:none;stroke-opacity:1"
         d="M 2005,520 H 1765" /><path
         id="path202"
         style="fill:none;stroke:#666666;stroke-width:9.75;stroke-linecap:round;stroke-linejoin:miter;stroke-miterlimit:6;stroke-dasharray:none;stroke-opacity:1"
         d="m 1952.5,467.5 h -135" /><path
         id="path204"
         style="fill:none;stroke:#666666;stroke-width:9.75;stroke-linecap:round;stroke-linejoin:miter;stroke-miterlimit:6;stroke-dasharray:none;stroke-opacity:1"
         d="m 1900,415 h -30" /><path
         id="path206"
         style="fill:none;stroke:#666666;stroke-width:9.75;stroke-linecap:round;stroke-linejoin:miter;stroke-miterlimit:6;stroke-dasharray:none;stroke-opacity:1"
         d="m 2305,1120 v 120" /><path
         id="path208"
         style="fill:none;stroke:#666666;stroke-width:9.75;stroke-linecap:round;stroke-linejoin:miter;stroke-miterlimit:6;stroke-dasharray:none;stroke-opacity:1"
         d="M 2425,1120 H 2185" /><path
         id="path210"
         style="fill:none;stroke:#666666;stroke-width:9.75;stroke-linecap:round;stroke-linejoin:miter;stroke-miterlimit:6;stroke-dasharray:none;stroke-opacity:1"
         d="m 2372.5,1067.5 h -135" /><path
         id="path212"
         style="fill:none;stroke:#666666;stroke-width:9.75;stroke-linecap:round;stroke-linejoin:miter;stroke-miterlimit:6;stroke-dasharray:none;stroke-opacity:1"
         d="m 2320,1015 h -30" /><path
         id="path214"
         style="fill:none;stroke:#666666;stroke-width:9.75;stroke-linecap:round;stroke-linejoin:miter;stroke-miterlimit:6;stroke-dasharray:none;stroke-opacity:1"
         d="M 1885,1240 V 1120" /><path
         id="path216"
         style="fill:none;stroke:#666666;stroke-width:9.75;stroke-linecap:round;stroke-linejoin:miter;stroke-miterlimit:6;stroke-dasharray:none;stroke-opacity:1"
         d="m 2305,1720 v 60 h -420 v -60" /><path
         id="path218"
         style="fill:none;stroke:#666666;stroke-width:9.75;stroke-linecap:round;stroke-linejoin:miter;stroke-miterlimit:6;stroke-dasharray:none;stroke-opacity:1"
         d="M 1885,1960 V 1780" /><path
         id="path220"
         style="fill:none;stroke:#666666;stroke-width:9.75;stroke-linecap:round;stroke-linejoin:miter;stroke-miterlimit:6;stroke-dasharray:none;stroke-opacity:1"
         d="m 1345,1180 v 300 h 300" /><path
         id="path222"
         style="fill:none;stroke:#666666;stroke-width:9.75;stroke-linecap:round;stroke-linejoin:miter;stroke-miterlimit:6;stroke-dasharray:none;stroke-opacity:1"
         d="m 1465,940 c 0,66.27 -53.73,120 -120,120 -66.27,0 -120,-53.73 -120,-120 0,-66.273 53.73,-120 120,-120 66.27,0 120,53.727 120,120" /><path
         id="path224"
         style="fill:none;stroke:#666666;stroke-width:9.75;stroke-linecap:round;stroke-linejoin:miter;stroke-miterlimit:6;stroke-dasharray:none;stroke-opacity:1"
         d="M 1345,1180 V 1060" /><path
         id="path226"
         style="fill:none;stroke:#666666;stroke-width:9.75;stroke-linecap:round;stroke-linejoin:miter;stroke-miterlimit:6;stroke-dasharray:none;stroke-opacity:1"
         d="M 1345,700 V 820" /><path
         id="path228"
         style="fill:none;stroke:#666666;stroke-width:7.80000019;stroke-linecap:round;stroke-linejoin:miter;stroke-miterlimit:6;stroke-dasharray:none;stroke-opacity:1"
         d="m 1405,940 c -60,-180 -60,180 -120,0" /><path
         id="path230"
         style="fill:none;stroke:#666666;stroke-width:9.75;stroke-linecap:round;stroke-linejoin:miter;stroke-miterlimit:6;stroke-dasharray:none;stroke-opacity:1"
         d="M 1345,520 V 640" /><path
         id="path232"
         style="fill:none;stroke:#666666;stroke-width:9.75;stroke-linecap:round;stroke-linejoin:miter;stroke-miterlimit:6;stroke-dasharray:none;stroke-opacity:1"
         d="M 1465,520 H 1225" /><path
         id="path234"
         style="fill:none;stroke:#666666;stroke-width:9.75;stroke-linecap:round;stroke-linejoin:miter;stroke-miterlimit:6;stroke-dasharray:none;stroke-opacity:1"
         d="m 1412.5,467.5 h -135" /><path
         id="path236"
         style="fill:none;stroke:#666666;stroke-width:9.75;stroke-linecap:round;stroke-linejoin:miter;stroke-miterlimit:6;stroke-dasharray:none;stroke-opacity:1"
         d="m 1360,415 h -30" /><path
         id="path238"
         style="fill:none;stroke:#666666;stroke-width:9.75;stroke-linecap:round;stroke-linejoin:miter;stroke-miterlimit:6;stroke-dasharray:none;stroke-opacity:1"
         d="M 1345,700 V 640" /><path
         id="path240"
         style="fill:#666666;fill-opacity:1;fill-rule:evenodd;stroke:none"
         d="m 1907.5,1780 c 0,12.43 -10.07,22.5 -22.5,22.5 -12.43,0 -22.5,-10.07 -22.5,-22.5 0,-12.43 10.07,-22.5 22.5,-22.5 12.43,0 22.5,10.07 22.5,22.5" /><path
         id="path242"
         style="fill:#666666;fill-opacity:1;fill-rule:evenodd;stroke:none"
         d="m 1007.5,3040 c 0,12.43 -10.074,22.5 -22.5,22.5 -12.426,0 -22.5,-10.07 -22.5,-22.5 0,-12.43 10.074,-22.5 22.5,-22.5 12.426,0 22.5,10.07 22.5,22.5" /><path
         id="path244"
         style="fill:none;stroke:#000000;stroke-width:9.75;stroke-linecap:round;stroke-linejoin:miter;stroke-miterlimit:6;stroke-dasharray:none;stroke-opacity:1"
         d="M 985,3280 V 3040 H 565" /><path
         id="path246"
         style="fill:none;stroke:#666666;stroke-width:9.75;stroke-linecap:round;stroke-linejoin:miter;stroke-miterlimit:6;stroke-dasharray:39, 39;stroke-dashoffset:0;stroke-opacity:1"
         d="m 985,3040 h 900 V 1960" /><path
         id="path248"
         style="fill:none;stroke:#000000;stroke-width:9.75;stroke-linecap:round;stroke-linejoin:miter;stroke-miterlimit:6;stroke-dasharray:39, 39;stroke-dashoffset:0;stroke-opacity:1"
         d="m 970,2500 c 0,256.81 -208.191,465 -465,465 -256.809,0 -465,-208.19 -465,-465 0,-256.81 208.191,-465 465,-465 256.809,0 465,208.19 465,465" /><path
         id="path250"
         style="fill:none;stroke:#000000;stroke-width:9.75;stroke-linecap:round;stroke-linejoin:miter;stroke-miterlimit:6;stroke-dasharray:39, 39;stroke-dashoffset:0;stroke-opacity:1"
         d="m 2665,1060 c 0,563.33 -456.67,1020 -1020,1020 C 1081.67,2080 625,1623.33 625,1060 625,496.672 1081.67,40 1645,40 c 563.33,0 1020,456.672 1020,1020" /><path
         id="path252"
         style="fill:none;stroke:#000000;stroke-width:10.72500038;stroke-linecap:round;stroke-linejoin:miter;stroke-miterlimit:6;stroke-dasharray:none;stroke-opacity:1"
         d="M 1345,2080 985,2500" /><path
         id="path254"
         style="fill:none;stroke:#000000;stroke-width:10.72500038;stroke-linecap:round;stroke-linejoin:miter;stroke-miterlimit:6;stroke-dasharray:none;stroke-opacity:1"
         d="m 1285,2080 h 60 v 60" /><g
         transform="scale(10)"
         id="g256"><text
           id="text268"
           style="font-variant:normal;font-weight:bold;font-size:15px;font-family:Helvetica;-inkscape-font-specification:Helvetica-Bold;writing-mode:lr-tb;fill:#0000ff;fill-opacity:1;fill-rule:nonzero;stroke:none"
           transform="matrix(1,0,0,-1,133.556,286)"><tspan
             id="tspan258"
             y="0"
             x="0 4.1700001 13.335 21.674999 30.014999">Ideal</tspan><tspan
             id="tspan260"
             y="18"
             x="0.28437501 11.114375 20.279375 26.114374 31.949375 40.289375 49.454376">Current</tspan><tspan
             id="tspan262"
             y="36"
             x="0.46406299 10.469063 19.634064 28.799063 34.634064 42.974064">Source</tspan><tspan
             id="tspan264"
             y="54"
             x="-0.045311999 12.449688 21.614689 30.779688 39.119686 43.289688">Models</tspan><tspan
             id="tspan266"
             y="72"
             x="0.73437601 5.7293758 14.894376 19.064377 27.404375">this:</tspan></text>
</g><g
         transform="scale(10)"
         id="g270"><text
           id="text274"
           style="font-variant:normal;font-weight:bold;font-size:15px;font-family:Helvetica;-inkscape-font-specification:Helvetica-Bold;writing-mode:lr-tb;fill:#000000;fill-opacity:1;fill-rule:nonzero;stroke:none"
           transform="matrix(1,0,0,-1,86.1406,76)"><tspan
             id="tspan272"
             y="0"
             x="0">V</tspan></text>
<text
           id="text278"
           style="font-variant:normal;font-weight:bold;font-size:10.05000019px;font-family:Helvetica;-inkscape-font-specification:Helvetica-Bold;writing-mode:lr-tb;fill:#000000;fill-opacity:1;fill-rule:nonzero;stroke:none"
           transform="matrix(1,0,0,-1,96.1457,72.68359)"><tspan
             id="tspan276"
             y="0"
             x="0 2.7939 8.9344501 11.72835 18.4317 25.687799">in,VCO</tspan></text>
</g><g
         transform="scale(10)"
         id="g280"><text
           id="text284"
           style="font-variant:normal;font-weight:bold;font-size:15px;font-family:Helvetica;-inkscape-font-specification:Helvetica-Bold;writing-mode:lr-tb;fill:#ff0000;fill-opacity:1;fill-rule:nonzero;stroke:none"
           transform="matrix(1,0,0,-1,13.5563,244)"><tspan
             id="tspan282"
             y="0"
             x="0">I</tspan></text>
<text
           id="text288"
           style="font-variant:normal;font-weight:bold;font-size:10.05000019px;font-family:Helvetica;-inkscape-font-specification:Helvetica-Bold;writing-mode:lr-tb;fill:#ff0000;fill-opacity:1;fill-rule:nonzero;stroke:none"
           transform="matrix(1,0,0,-1,17.72622,240.68359)"><tspan
             id="tspan286"
             y="0"
             x="0 2.7939 8.9344501 11.72835 18.4317 25.687799">in,VCO</tspan></text>
</g></g></g></svg>