<?xml version="1.0" encoding="UTF-8" standalone="no"?>
<svg
   viewBox="0 0 281.60001 189.60001"
   height="189.60001"
   width="281.60001"
   xml:space="preserve"
   id="svg2"
   version="1.1"
   xmlns="http://www.w3.org/2000/svg"
   xmlns:svg="http://www.w3.org/2000/svg"
   xmlns:rdf="http://www.w3.org/1999/02/22-rdf-syntax-ns#"
   xmlns:cc="http://creativecommons.org/ns#"
   xmlns:dc="http://purl.org/dc/elements/1.1/"><metadata
     id="metadata8"><rdf:RDF><cc:Work
         rdf:about=""><dc:format>image/svg+xml</dc:format><dc:type
           rdf:resource="http://purl.org/dc/dcmitype/StillImage" /></cc:Work></rdf:RDF></metadata><defs
     id="defs6"><clipPath
       id="clipPath14"
       clipPathUnits="userSpaceOnUse"><path
         id="path12"
         d="M 201,486.6 H 412.2 V 628.8 H 201 Z" /></clipPath><clipPath
       id="clipPath132"
       clipPathUnits="userSpaceOnUse"><path
         id="path130"
         d="m 315.84,334.92 h 3.24 v 8.76 h -3.24 z" /></clipPath><clipPath
       id="clipPath158"
       clipPathUnits="userSpaceOnUse"><path
         id="path156"
         d="m 355.2,317.64 h 8.88 v 13.68 h -8.88 z" /></clipPath><clipPath
       id="clipPath176"
       clipPathUnits="userSpaceOnUse"><path
         id="path174"
         d="m 383.64,317.88 h 6.72 v 13.92 h -6.72 z" /></clipPath><clipPath
       id="clipPath192"
       clipPathUnits="userSpaceOnUse"><path
         id="path190"
         d="m 416.4,317.88 h 6.72 v 13.92 h -6.72 z" /></clipPath><clipPath
       id="clipPath224"
       clipPathUnits="userSpaceOnUse"><path
         id="path222"
         d="m 495.48,317.88 h 3.12 v 13.92 h -3.12 z" /></clipPath><filter
       style="color-interpolation-filters:sRGB"
       id="filter2"
       x="0"
       y="0"
       width="1"
       height="1"><feColorMatrix
         type="hueRotate"
         values="180"
         result="color1"
         id="feColorMatrix1" /><feColorMatrix
         values="-1 0 0 0 1 0 -1 0 0 1 0 0 -1 0 1 0.21 0.72 0.07 1 0 "
         result="color2"
         id="feColorMatrix2" /></filter></defs><g
     clip-path="url(#clipPath14)"
     transform="matrix(1.3333333,0,0,-1.3333333,-268,838.4)"
     id="g10"
     style="filter:url(#filter2)"><g
   id="g16"><g
   id="g18"><g
   id="g20"><g
   id="g22"><g
   id="g24"><g
     transform="matrix(0.915,0,0,0.915,233.2631,508.11292)"
     id="g26"><path
       id="path28"
       style="fill:none;stroke:#000000;stroke-width:0.447;stroke-linecap:round;stroke-linejoin:round;stroke-miterlimit:10;stroke-dasharray:none;stroke-opacity:1"
       d="M 0,0 V 108" /><g
       transform="translate(0,108)"
       id="g30"><path
         id="path32"
         style="fill:#000000;fill-opacity:1;fill-rule:evenodd;stroke:#000000;stroke-width:0.447;stroke-linecap:round;stroke-linejoin:round;stroke-miterlimit:10;stroke-dasharray:none;stroke-opacity:1"
         d="m 0,0 -3,-6 3,3 z" /><path
         id="path34"
         style="fill:#000000;fill-opacity:1;fill-rule:evenodd;stroke:#000000;stroke-width:0.447;stroke-linecap:round;stroke-linejoin:round;stroke-miterlimit:10;stroke-dasharray:none;stroke-opacity:1"
         d="M 0,0 3,-6 0,-3 Z" /><g
         transform="translate(-10.8,-97.2)"
         id="g36"><path
           id="path38"
           style="fill:none;stroke:#000000;stroke-width:0.447;stroke-linecap:round;stroke-linejoin:round;stroke-miterlimit:10;stroke-dasharray:none;stroke-opacity:1"
           d="M 0,0 H 187.2" /><g
           transform="translate(187.2)"
           id="g40"><path
             id="path42"
             style="fill:#000000;fill-opacity:1;fill-rule:evenodd;stroke:#000000;stroke-width:0.447;stroke-linecap:round;stroke-linejoin:round;stroke-miterlimit:10;stroke-dasharray:none;stroke-opacity:1"
             d="M 0,0 -6,3 -3,0 Z" /><path
             id="path44"
             style="fill:#000000;fill-opacity:1;fill-rule:evenodd;stroke:#000000;stroke-width:0.447;stroke-linecap:round;stroke-linejoin:round;stroke-miterlimit:10;stroke-dasharray:none;stroke-opacity:1"
             d="m 0,0 -6,-3 3,3 z" /><g
             transform="translate(-140.4,14.4)"
             id="g46"><path
               id="path48"
               style="fill:none;stroke:#000000;stroke-width:0.944;stroke-linecap:round;stroke-linejoin:round;stroke-miterlimit:10;stroke-dasharray:none;stroke-opacity:1"
               d="M 0,0 100.8,64.8" /><g
               transform="translate(0,-10.8)"
               id="g50"><path
                 id="path52"
                 style="fill:none;stroke:#000000;stroke-width:0.447;stroke-linecap:round;stroke-linejoin:round;stroke-miterlimit:10;stroke-dasharray:none;stroke-opacity:1"
                 d="M 0,0 V -7.2" /><g
                 transform="translate(25.2)"
                 id="g54"><path
                   id="path56"
                   style="fill:none;stroke:#000000;stroke-width:0.447;stroke-linecap:round;stroke-linejoin:round;stroke-miterlimit:10;stroke-dasharray:none;stroke-opacity:1"
                   d="M 0,0 V -7.2" /><g
                   transform="translate(25.2)"
                   id="g58"><path
                     id="path60"
                     style="fill:none;stroke:#000000;stroke-width:0.447;stroke-linecap:round;stroke-linejoin:round;stroke-miterlimit:10;stroke-dasharray:none;stroke-opacity:1"
                     d="M 0,0 V -7.2" /><g
                     transform="translate(25.2)"
                     id="g62"><path
                       id="path64"
                       style="fill:none;stroke:#000000;stroke-width:0.447;stroke-linecap:round;stroke-linejoin:round;stroke-miterlimit:10;stroke-dasharray:none;stroke-opacity:1"
                       d="M 0,0 V -7.2" /><g
                       transform="translate(25.2)"
                       id="g66"><path
                         id="path68"
                         style="fill:none;stroke:#000000;stroke-width:0.447;stroke-linecap:round;stroke-linejoin:round;stroke-miterlimit:10;stroke-dasharray:none;stroke-opacity:1"
                         d="M 0,0 V -7.2" /><g
                         transform="matrix(1.0928962,0,0,1.0928962,-391.73235,-569.71466)"
                         id="g70"><text
   id="text74"
   style="font-variant:normal;font-weight:normal;font-size:10.0647px;font-family:TimesLTStd;-inkscape-font-specification:TimesLTStd-Roman;writing-mode:lr-tb;fill:#000000;fill-opacity:1;fill-rule:nonzero;stroke:none"
   transform="matrix(1,0,0,-1,259.6151,505.69742)"><tspan
     id="tspan72"
     y="0"
     x="0 5.0504665 7.6854048 23.052189 28.102655 30.737595 46.104378 51.154842 53.789783 69.15657 74.207031 76.841972 92.208755 97.259224 99.894157">0.30.40.50.60.7</tspan></text>
<g
   transform="matrix(0.915,0,0,0.915,236.5571,531.17092)"
   id="g76"><path
     id="path78"
     style="fill:none;stroke:#000000;stroke-width:0.447;stroke-linecap:round;stroke-linejoin:round;stroke-miterlimit:10;stroke-dasharray:none;stroke-opacity:1"
     d="M 0,0 H -7.2" /><g
     transform="translate(0,18)"
     id="g80"><path
       id="path82"
       style="fill:none;stroke:#000000;stroke-width:0.447;stroke-linecap:round;stroke-linejoin:round;stroke-miterlimit:10;stroke-dasharray:none;stroke-opacity:1"
       d="M 0,0 H -7.2" /><g
       transform="translate(0,14.4)"
       id="g84"><path
         id="path86"
         style="fill:none;stroke:#000000;stroke-width:0.447;stroke-linecap:round;stroke-linejoin:round;stroke-miterlimit:10;stroke-dasharray:none;stroke-opacity:1"
         d="M 0,0 H -7.2" /><g
         transform="translate(0,18)"
         id="g88"><path
           id="path90"
           style="fill:none;stroke:#000000;stroke-width:0.447;stroke-linecap:round;stroke-linejoin:round;stroke-miterlimit:10;stroke-dasharray:none;stroke-opacity:1"
           d="M 0,0 H -7.2" /><g
           transform="translate(0,14.4)"
           id="g92"><path
             id="path94"
             style="fill:none;stroke:#000000;stroke-width:0.447;stroke-linecap:round;stroke-linejoin:round;stroke-miterlimit:10;stroke-dasharray:none;stroke-opacity:1"
             d="M 0,0 H -7.2" /><g
             transform="matrix(1.0928962,0,0,1.0928962,-258.53235,-645.31466)"
             id="g96"><text
   id="text100"
   style="font-variant:normal;font-weight:normal;font-size:10.0647px;font-family:TimesLTStd;-inkscape-font-specification:TimesLTStd-Roman;writing-mode:lr-tb;fill:#000000;fill-opacity:1;fill-rule:nonzero;stroke:none"
   transform="matrix(1,0,0,-1,216.7931,528.75532)"><tspan
     id="tspan98"
     y="0"
     x="0 5.0504665">50</tspan></text>
<text
   id="text104"
   style="font-variant:normal;font-weight:normal;font-size:10.0647px;font-family:TimesLTStd;-inkscape-font-specification:TimesLTStd-Roman;writing-mode:lr-tb;fill:#000000;fill-opacity:1;fill-rule:nonzero;stroke:none"
   transform="matrix(1,0,0,-1,216.7931,545.22117)"><tspan
     id="tspan102"
     y="0"
     x="0 5.0504665">75</tspan></text>
<text
   id="text108"
   style="font-variant:normal;font-weight:normal;font-size:10.0647px;font-family:TimesLTStd;-inkscape-font-specification:TimesLTStd-Roman;writing-mode:lr-tb;fill:#000000;fill-opacity:1;fill-rule:nonzero;stroke:none"
   transform="matrix(1,0,0,-1,213.50194,558.39586)"><tspan
     id="tspan106"
     y="0"
     x="0 5.0504665 10.100933">100</tspan></text>
<text
   id="text112"
   style="font-variant:normal;font-weight:normal;font-size:10.0647px;font-family:TimesLTStd;-inkscape-font-specification:TimesLTStd-Roman;writing-mode:lr-tb;fill:#000000;fill-opacity:1;fill-rule:nonzero;stroke:none"
   transform="matrix(1,0,0,-1,213.50194,574.86171)"><tspan
     id="tspan110"
     y="0"
     x="0 5.0504665 10.100933">125</tspan></text>
<text
   id="text116"
   style="font-variant:normal;font-weight:normal;font-size:10.0647px;font-family:TimesLTStd;-inkscape-font-specification:TimesLTStd-Roman;writing-mode:lr-tb;fill:#000000;fill-opacity:1;fill-rule:nonzero;stroke:none"
   transform="matrix(1,0,0,-1,213.50194,588.0364)"><tspan
     id="tspan114"
     y="0"
     x="0 5.0504665 10.100933">150</tspan></text>
<text
   id="text120"
   style="font-style:italic;font-variant:normal;font-size:10.98px;font-family:TimesLTStd;-inkscape-font-specification:TimesLTStd-Italic;writing-mode:lr-tb;fill:#000000;fill-opacity:1;fill-rule:nonzero;stroke:none"
   transform="matrix(1,0,0,-1,216.7931,611.54452)"><tspan
     id="tspan118"
     y="0"
     x="0">f</tspan></text>
<text
   id="text124"
   style="font-style:italic;font-variant:normal;font-size:7.3197px;font-family:TimesLTStd;-inkscape-font-specification:TimesLTStd-Italic;writing-mode:lr-tb;fill:#000000;fill-opacity:1;fill-rule:nonzero;stroke:none"
   transform="matrix(1,0,0,-1,220.5263,610.22692)"><tspan
     id="tspan122"
     y="0"
     x="0">o</tspan></text>
<g
   transform="matrix(0.915,0,0,0.915,-64.734098,302.34772)"
   id="g126"><g
     clip-path="url(#clipPath132)"
     id="g128"><g
       transform="matrix(1.0929,0,0,1.0929,70.747644,-330.43466)"
       id="g134"><text
   id="text138"
   style="font-style:italic;font-variant:normal;font-size:7.3197px;font-family:TimesLTStd;-inkscape-font-specification:TimesLTStd-Italic;writing-mode:lr-tb;fill:#000000;fill-opacity:1;fill-rule:nonzero;stroke:none"
   transform="matrix(1,0,0,-1,224.26111,610.22736)"><tspan
     id="tspan136"
     y="0"
     x="0">s</tspan></text>
</g></g></g></g></g></g></g></g></g></g></g></g></g></g></g></g></g></g></g></g></g><text
   id="text142"
   style="font-style:italic;font-variant:normal;font-size:7.3197px;font-family:TimesLTStd;-inkscape-font-specification:TimesLTStd-Italic;writing-mode:lr-tb;fill:#000000;fill-opacity:1;fill-rule:nonzero;stroke:none"
   transform="matrix(1,0,0,-1,227.1143,610.22692)"><tspan
     id="tspan140"
     y="0"
     x="0">c</tspan></text>
<text
   id="text146"
   style="font-variant:normal;font-weight:normal;font-size:10.98px;font-family:TimesLTStd;-inkscape-font-specification:TimesLTStd-Roman;writing-mode:lr-tb;fill:#000000;fill-opacity:1;fill-rule:nonzero;stroke:none"
   transform="matrix(1,0,0,-1,231.0671,611.54452)"><tspan
     id="tspan144"
     y="0"
     x="0">,</tspan></text>
<text
   id="text150"
   style="font-style:italic;font-variant:normal;font-size:10.98px;font-family:TimesLTStd;-inkscape-font-specification:TimesLTStd-Italic;writing-mode:lr-tb;fill:#000000;fill-opacity:1;fill-rule:nonzero;stroke:none"
   transform="matrix(1,0,0,-1,235.3493,611.54452)"><tspan
     id="tspan148"
     y="0"
     x="0 9.1177921 17.016804">MHz</tspan></text>
<g
   transform="matrix(0.915,0,0,0.915,-64.734098,302.34772)"
   id="g152"><g
     clip-path="url(#clipPath158)"
     id="g154"><g
       transform="matrix(1.0929,0,0,1.0929,70.747644,-330.43466)"
       id="g160"><text
   id="text164"
   style="font-style:italic;font-variant:normal;font-size:10.98px;font-family:TimesLTStd;-inkscape-font-specification:TimesLTStd-Italic;writing-mode:lr-tb;fill:#000000;fill-opacity:1;fill-rule:nonzero;stroke:none"
   transform="matrix(1,0,0,-1,260.27561,595.62386)"><tspan
     id="tspan162"
     y="0"
     x="0">K</tspan></text>
</g></g></g></g><text
   id="text168"
   style="font-style:italic;font-variant:normal;font-size:7.3197px;font-family:TimesLTStd;-inkscape-font-specification:TimesLTStd-Italic;writing-mode:lr-tb;fill:#000000;fill-opacity:1;fill-rule:nonzero;stroke:none"
   transform="matrix(1,0,0,-1,268.2893,594.30592)"><tspan
     id="tspan166"
     y="0"
     x="0 4.5169868 9.4438772">VCO</tspan></text>
<g
   transform="matrix(0.915,0,0,0.915,-64.734098,302.34772)"
   id="g170"><g
     clip-path="url(#clipPath176)"
     id="g172"><g
       transform="translate(383.856,324.96)"
       id="g178"><path
         id="path180"
         style="fill:#000000;fill-opacity:1;fill-rule:nonzero;stroke:none"
         d="M 0,0 H 6.156 V -0.564 H 0 Z M 0,-2.196 H 6.156 V -2.76 H 0 Z" /></g></g></g></g><text
   id="text184"
   style="font-variant:normal;font-weight:normal;font-size:10.98px;font-family:TimesLTStd;-inkscape-font-specification:TimesLTStd-Roman;writing-mode:lr-tb;fill:#000000;fill-opacity:1;fill-rule:nonzero;stroke:none"
   transform="matrix(1,0,0,-1,294.9707,595.62352)"><tspan
     id="tspan182"
     y="0"
     x="0 5.4899998 8.2349997 13.725">1.57</tspan></text>
<g
   transform="matrix(0.915,0,0,0.915,-64.734098,302.34772)"
   id="g186"><g
     clip-path="url(#clipPath192)"
     id="g188"><g
       transform="translate(417.5181,326.172)"
       id="g194"><path
         id="path196"
         style="fill:#000000;fill-opacity:1;fill-rule:nonzero;stroke:none"
         d="M 0,0 2.173,-2.177 4.358,0 4.771,-0.407 2.582,-2.587 4.751,-4.761 4.358,-5.16 2.185,-2.983 0,-5.16 l -0.41,0.41 2.186,2.177 -2.172,2.177 z" /></g></g></g></g><text
   id="text200"
   style="font-variant:normal;font-weight:normal;font-size:10.98px;font-family:TimesLTStd;-inkscape-font-specification:TimesLTStd-Roman;writing-mode:lr-tb;fill:#000000;fill-opacity:1;fill-rule:nonzero;stroke:none"
   transform="matrix(1,0,0,-1,324.3971,595.62352)"><tspan
     id="tspan198"
     y="0"
     x="0 5.4899998">10</tspan></text>
<text
   id="text204"
   style="font-variant:normal;font-weight:normal;font-size:7.3197px;font-family:TimesLTStd;-inkscape-font-specification:TimesLTStd-Roman;writing-mode:lr-tb;fill:#000000;fill-opacity:1;fill-rule:nonzero;stroke:none"
   transform="matrix(1,0,0,-1,336.0359,599.46652)"><tspan
     id="tspan202"
     y="0"
     x="0">9</tspan></text>
<text
   id="text208"
   style="font-style:italic;font-variant:normal;font-size:10.98px;font-family:TimesLTStd;-inkscape-font-specification:TimesLTStd-Italic;writing-mode:lr-tb;fill:#000000;fill-opacity:1;fill-rule:nonzero;stroke:none"
   transform="matrix(1,0,0,-1,343.1729,595.62352)"><tspan
     id="tspan206"
     y="0"
     x="0 4.2756119 9.7700043 15.264396 18.321228 23.81562 29.310013">radians</tspan></text>
<text
   id="text212"
   style="font-variant:normal;font-weight:normal;font-size:10.98px;font-family:TimesLTStd;-inkscape-font-specification:TimesLTStd-Roman;writing-mode:lr-tb;fill:#000000;fill-opacity:1;fill-rule:nonzero;stroke:none"
   transform="matrix(1,0,0,-1,376.7717,595.62352)"><tspan
     id="tspan210"
     y="0"
     x="0">/</tspan></text>
<text
   id="text216"
   style="font-style:italic;font-variant:normal;font-size:10.98px;font-family:TimesLTStd;-inkscape-font-specification:TimesLTStd-Italic;writing-mode:lr-tb;fill:#000000;fill-opacity:1;fill-rule:nonzero;stroke:none"
   transform="matrix(1,0,0,-1,379.8461,595.62352)"><tspan
     id="tspan214"
     y="0"
     x="0">V</tspan></text>
<g
   transform="matrix(0.915,0,0,0.915,-64.734098,302.34772)"
   id="g218"><g
     clip-path="url(#clipPath224)"
     id="g220"><g
       transform="translate(497.6268,323.592)"
       id="g226"><path
         id="path228"
         style="fill:#000000;fill-opacity:1;fill-rule:nonzero;stroke:none"
         d="m 0,0 c 0,-0.179 -0.064,-0.332 -0.191,-0.458 -0.127,-0.127 -0.278,-0.19 -0.454,-0.19 -0.18,0 -0.333,0.063 -0.46,0.19 -0.127,0.126 -0.191,0.279 -0.191,0.458 0,0.179 0.064,0.332 0.191,0.458 0.127,0.127 0.28,0.19 0.46,0.19 0.176,0 0.327,-0.063 0.454,-0.19 C -0.064,0.332 0,0.179 0,0 Z" /></g></g></g></g><text
   id="text232"
   style="font-style:italic;font-variant:normal;font-size:10.98px;font-family:TimesLTStd;-inkscape-font-specification:TimesLTStd-Italic;writing-mode:lr-tb;fill:#000000;fill-opacity:1;fill-rule:nonzero;stroke:none"
   transform="matrix(1,0,0,-1,393.4612,595.62352)"><tspan
     id="tspan230"
     y="0"
     x="0">s</tspan></text>
<text
   id="text236"
   style="font-style:italic;font-variant:normal;font-size:10.98px;font-family:TimesLTStd;-inkscape-font-specification:TimesLTStd-Italic;writing-mode:lr-tb;fill:#000000;fill-opacity:1;fill-rule:nonzero;stroke:none"
   transform="matrix(1,0,0,-1,374.1364,503.50132)"><tspan
     id="tspan234"
     y="0"
     x="0">V</tspan></text>
<text
   id="text240"
   style="font-style:italic;font-variant:normal;font-size:7.3197px;font-family:TimesLTStd;-inkscape-font-specification:TimesLTStd-Italic;writing-mode:lr-tb;fill:#000000;fill-opacity:1;fill-rule:nonzero;stroke:none"
   transform="matrix(1,0,0,-1,381.4931,502.18382)"><tspan
     id="tspan238"
     y="0"
     x="0 2.0890424 5.8030581 10.32956 15.265966">inVCO</tspan></text>
</g></svg>
