<?xml version="1.0" encoding="UTF-8" standalone="no"?>
<svg
   viewBox="0 0 418.66666 350.66666"
   height="350.66666"
   width="418.66666"
   xml:space="preserve"
   id="svg2"
   version="1.1"
   xmlns="http://www.w3.org/2000/svg"
   xmlns:svg="http://www.w3.org/2000/svg"
   xmlns:rdf="http://www.w3.org/1999/02/22-rdf-syntax-ns#"
   xmlns:cc="http://creativecommons.org/ns#"
   xmlns:dc="http://purl.org/dc/elements/1.1/"><metadata
     id="metadata8"><rdf:RDF><cc:Work
         rdf:about=""><dc:format>image/svg+xml</dc:format><dc:type
           rdf:resource="http://purl.org/dc/dcmitype/StillImage" /></cc:Work></rdf:RDF></metadata><defs
     id="defs6"><filter
       style="color-interpolation-filters:sRGB"
       id="filter2"
       x="0"
       y="0"
       width="1"
       height="1"><feColorMatrix
         type="hueRotate"
         values="180"
         result="color1"
         id="feColorMatrix1" /><feColorMatrix
         values="-1 0 0 0 1 0 -1 0 0 1 0 0 -1 0 1 -0.21 -0.72 -0.07 2 0 "
         result="color2"
         id="feColorMatrix2" /></filter></defs><g
     transform="matrix(1.3333333,0,0,-1.3333333,0,350.66667)"
     id="g10"
     style="filter:url(#filter2)"><g
       transform="scale(0.1)"
       id="g12"><path
         id="path14"
         style="fill:none;stroke:#000000;stroke-width:7.8;stroke-linecap:round;stroke-linejoin:miter;stroke-miterlimit:6;stroke-dasharray:none;stroke-opacity:1"
         d="m 940,2522.5 v -225" /><path
         id="path16"
         style="fill:#000000;fill-opacity:1;fill-rule:evenodd;stroke:none"
         d="m 970,2492.5 c -18.75,37.5 -18.75,48.75 -30,105 -11.25,-56.25 -11.25,-67.5 -30,-105 22.5,7.5 37.5,7.5 60,0" /><path
         id="path18"
         style="fill:none;stroke:#000000;stroke-width:9.75;stroke-linecap:round;stroke-linejoin:miter;stroke-miterlimit:6;stroke-dasharray:none;stroke-opacity:1"
         d="m 940,167.5 v 2160" /><path
         id="path20"
         style="fill:none;stroke:#000000;stroke-width:7.8;stroke-linecap:round;stroke-linejoin:miter;stroke-miterlimit:6;stroke-dasharray:none;stroke-opacity:1"
         d="M 2995,407.5 H 2770" /><path
         id="path22"
         style="fill:#000000;fill-opacity:1;fill-rule:evenodd;stroke:none"
         d="m 2965,377.5 c 37.5,18.75 48.75,18.75 105,30 -56.25,11.25 -67.5,11.25 -105,30 7.5,-22.5 7.5,-37.5 0,-60" /><path
         id="path24"
         style="fill:none;stroke:#000000;stroke-width:9.75;stroke-linecap:round;stroke-linejoin:miter;stroke-miterlimit:6;stroke-dasharray:none;stroke-opacity:1"
         d="M 700,407.5 H 2800" /><path
         id="path26"
         style="fill:none;stroke:#000000;stroke-width:9.75;stroke-linecap:round;stroke-linejoin:miter;stroke-miterlimit:6;stroke-dasharray:none;stroke-opacity:1"
         d="M 2560,1367.5 1360,647.5" /><path
         id="path28"
         style="fill:none;stroke:#000000;stroke-width:9.75;stroke-linecap:round;stroke-linejoin:miter;stroke-miterlimit:6;stroke-dasharray:none;stroke-opacity:1"
         d="m 2560,2207.5 -1200,-720" /><path
         id="path30"
         style="fill:none;stroke:#ff0000;stroke-width:9.75;stroke-linecap:round;stroke-linejoin:miter;stroke-miterlimit:6;stroke-dasharray:none;stroke-opacity:1"
         d="m 1360,1367.5 v -540" /><path
         id="path32"
         style="fill:#ff0000;fill-opacity:1;fill-rule:evenodd;stroke:none"
         d="m 1390,1322.5 c -18.75,37.5 -18.75,48.75 -30,105 -11.25,-56.25 -11.25,-67.5 -30,-105 22.5,7.5 37.5,7.5 60,0" /><path
         id="path34"
         style="fill:#ff0000;fill-opacity:1;fill-rule:evenodd;stroke:none"
         d="m 1330,872.5 c 18.75,-37.5 18.75,-48.75 30,-105 11.25,56.25 11.25,67.5 30,105 -22.5,-7.5 -37.5,-7.5 -60,0" /><path
         id="path36"
         style="fill:none;stroke:#000000;stroke-width:9.75;stroke-linecap:round;stroke-linejoin:miter;stroke-miterlimit:6;stroke-dasharray:39, 39;stroke-dashoffset:0;stroke-opacity:1"
         d="m 940,647.5 h 420" /><path
         id="path38"
         style="fill:none;stroke:#000000;stroke-width:9.75;stroke-linecap:round;stroke-linejoin:miter;stroke-miterlimit:6;stroke-dasharray:39, 39;stroke-dashoffset:0;stroke-opacity:1"
         d="m 940,1487.5 h 420" /><g
         transform="scale(10)"
         id="g40"><text
   id="text46"
   style="font-variant:normal;font-weight:normal;font-size:15px;font-family:Helvetica;-inkscape-font-specification:Helvetica;writing-mode:lr-tb;fill:#000000;fill-opacity:1;fill-rule:nonzero;stroke:none"
   transform="matrix(1,0,0,-1,2.80156,142.75)"><tspan
     id="tspan42"
     y="0"
     x="0 8.3400002 16.68 27.51 35.849998 40.845001 45.014999 53.355 56.685001 69.18 72.510002">Lower Limit</tspan><tspan
     id="tspan44"
     y="78"
     x="0.060937501 10.890938 19.230938 27.570938 32.565937 36.735939 45.900936 54.240936 59.235939">Near Zero</tspan></text>
</g><path
         id="path48"
         style="fill:none;stroke:#000000;stroke-width:9.75;stroke-linecap:round;stroke-linejoin:miter;stroke-miterlimit:6;stroke-dasharray:39, 39;stroke-dashoffset:0;stroke-opacity:1"
         d="m 1360,407.5 v 240" /><g
         transform="scale(10)"
         id="g50"><text
   id="text54"
   style="font-variant:normal;font-weight:normal;font-size:15px;font-family:Helvetica;-inkscape-font-specification:Helvetica;writing-mode:lr-tb;fill:#000000;fill-opacity:1;fill-rule:nonzero;stroke:none"
   transform="matrix(1,0,0,-1,123.55,22.75)"><tspan
     id="tspan52"
     y="0"
     x="0">V</tspan></text>
<text
   id="text58"
   style="font-variant:normal;font-weight:normal;font-size:10.05px;font-family:Helvetica;-inkscape-font-specification:Helvetica;writing-mode:lr-tb;fill:#000000;fill-opacity:1;fill-rule:nonzero;stroke:none"
   transform="matrix(1,0,0,-1,133.5551,19.43359)"><tspan
     id="tspan56"
     y="0"
     x="0 2.7939">IN</tspan></text>
<text
   id="text62"
   style="font-variant:normal;font-weight:normal;font-size:15px;font-family:Helvetica;-inkscape-font-specification:Helvetica;writing-mode:lr-tb;fill:#000000;fill-opacity:1;fill-rule:nonzero;stroke:none"
   transform="matrix(1,0,0,-1,147.7751,22.75)"><tspan
     id="tspan60"
     y="0"
     x="0 12.495 15.825 24.165001 27.495001 39.990002 48.330002">minimum</tspan></text>
</g><g
         transform="scale(10)"
         id="g64"><text
   id="text68"
   style="font-variant:normal;font-weight:normal;font-size:15px;font-family:Helvetica;-inkscape-font-specification:Helvetica;writing-mode:lr-tb;fill:#ff0000;fill-opacity:1;fill-rule:nonzero;stroke:none"
   transform="matrix(1,0,0,-1,141.461,106.75)"><tspan
     id="tspan66"
     y="0"
     x="0 8.3400002 12.51 16.68 24.18 32.52">offset</tspan></text>
</g><g
         transform="scale(10)"
         id="g70"><text
   id="text74"
   style="font-style:oblique;font-variant:normal;font-size:30px;font-family:Helvetica;-inkscape-font-specification:Helvetica-Oblique;writing-mode:lr-tb;fill:#000000;fill-opacity:1;fill-rule:nonzero;stroke:none"
   transform="matrix(1,0,0,-1,37.3344,238.75)"><tspan
     id="tspan72"
     y="0"
     x="0">f</tspan></text>
<text
   id="text78"
   style="font-style:oblique;font-variant:normal;font-size:20.1px;font-family:Helvetica;-inkscape-font-specification:Helvetica-Oblique;writing-mode:lr-tb;fill:#000000;fill-opacity:1;fill-rule:nonzero;stroke:none"
   transform="matrix(1,0,0,-1,45.67424,232.11719)"><tspan
     id="tspan76"
     y="0"
     x="0 11.1756 21.225599">osc</tspan></text>
<text
   id="text82"
   style="font-style:oblique;font-variant:normal;font-size:30px;font-family:Helvetica;-inkscape-font-specification:Helvetica-Oblique;writing-mode:lr-tb;fill:#000000;fill-opacity:1;fill-rule:nonzero;stroke:none"
   transform="matrix(1,0,0,-1,268.45824,10.75019)"><tspan
     id="tspan80"
     y="0"
     x="0">V</tspan></text>
<text
   id="text86"
   style="font-style:oblique;font-variant:normal;font-size:20.1px;font-family:Helvetica;-inkscape-font-specification:Helvetica-Oblique;writing-mode:lr-tb;fill:#000000;fill-opacity:1;fill-rule:nonzero;stroke:none"
   transform="matrix(1,0,0,-1,288.46844,4.11738)"><tspan
     id="tspan84"
     y="0"
     x="0 4.4622002">in</tspan></text>
</g></g></g></svg>
