<?xml version="1.0" encoding="UTF-8" standalone="no"?>
<svg
   xmlns:dc="http://purl.org/dc/elements/1.1/"
   xmlns:cc="http://creativecommons.org/ns#"
   xmlns:rdf="http://www.w3.org/1999/02/22-rdf-syntax-ns#"
   xmlns:svg="http://www.w3.org/2000/svg"
   xmlns="http://www.w3.org/2000/svg"
   viewBox="0 0 409.33334 384"
   height="384"
   width="409.33334"
   xml:space="preserve"
   id="svg2"
   version="1.1"><metadata
     id="metadata8"><rdf:RDF><cc:Work
         rdf:about=""><dc:format>image/svg+xml</dc:format><dc:type
           rdf:resource="http://purl.org/dc/dcmitype/StillImage" /></cc:Work></rdf:RDF></metadata><defs
     id="defs6" /><g
     transform="matrix(1.3333333,0,0,-1.3333333,0,384)"
     id="g10"><g
       transform="scale(0.1)"
       id="g12"><path
         id="path14"
         style="fill:none;stroke:#000000;stroke-width:9.75;stroke-linecap:round;stroke-linejoin:miter;stroke-miterlimit:6;stroke-dasharray:none;stroke-opacity:1"
         d="M 235,2365 V 2155" /><path
         id="path16"
         style="fill:none;stroke:#000000;stroke-width:9.75;stroke-linecap:round;stroke-linejoin:miter;stroke-miterlimit:6;stroke-dasharray:none;stroke-opacity:1"
         d="m 160,2260 h 15" /><path
         id="path18"
         style="fill:none;stroke:#000000;stroke-width:9.75;stroke-linecap:round;stroke-linejoin:miter;stroke-miterlimit:6;stroke-dasharray:none;stroke-opacity:1"
         d="M 400,2500 V 2365 H 280 v -210 h 120 v -135" /><path
         id="path20"
         style="fill:none;stroke:#000000;stroke-width:9.75;stroke-linecap:round;stroke-linejoin:miter;stroke-miterlimit:6;stroke-dasharray:none;stroke-opacity:1"
         d="m 235,2260 c 0,16.57 -13.434,30 -30,30 -16.566,0 -30,-13.43 -30,-30 0,-16.57 13.434,-30 30,-30 16.566,0 30,13.43 30,30" /><path
         id="path22"
         style="fill:none;stroke:#000000;stroke-width:9.75;stroke-linecap:round;stroke-linejoin:miter;stroke-miterlimit:6;stroke-dasharray:none;stroke-opacity:1"
         d="M 400,2740 V 2620" /><path
         id="path24"
         style="fill:none;stroke:#000000;stroke-width:9.75;stroke-linecap:round;stroke-linejoin:miter;stroke-miterlimit:6;stroke-dasharray:none;stroke-opacity:1"
         d="M 520,2740 H 280" /><g
         transform="scale(10)"
         id="g26"><text
           id="text30"
           style="font-variant:normal;font-weight:normal;font-size:13.5px;font-family:Times;-inkscape-font-specification:Times-Roman;writing-mode:lr-tb;fill:#000000;fill-opacity:1;fill-rule:nonzero;stroke:none"
           transform="matrix(1,0,0,-1,28.5578,276.25)"><tspan
             id="tspan28"
             y="0"
             x="0 9.7469997 16.497">Vdd</tspan></text>
</g><path
         id="path32"
         style="fill:none;stroke:#000000;stroke-width:9.75;stroke-linecap:round;stroke-linejoin:miter;stroke-miterlimit:6;stroke-dasharray:none;stroke-opacity:1"
         d="M 400,2020 V 1900 H 40 v 360 h 120" /><path
         id="path34"
         style="fill:none;stroke:#000000;stroke-width:9.75;stroke-linecap:round;stroke-linejoin:miter;stroke-miterlimit:6;stroke-dasharray:none;stroke-opacity:1"
         d="m 400,1240 v 660" /><path
         id="path36"
         style="fill:#000000;fill-opacity:1;fill-rule:evenodd;stroke:none"
         d="m 422.5,1900 c 0,12.43 -10.074,22.5 -22.5,22.5 -12.426,0 -22.5,-10.07 -22.5,-22.5 0,-12.43 10.074,-22.5 22.5,-22.5 12.426,0 22.5,10.07 22.5,22.5" /><path
         id="path38"
         style="fill:none;stroke:#000000;stroke-width:9.75;stroke-linecap:round;stroke-linejoin:miter;stroke-miterlimit:6;stroke-dasharray:none;stroke-opacity:1"
         d="M 400,2620 V 2500" /><path
         id="path40"
         style="fill:none;stroke:#000000;stroke-width:9.75;stroke-linecap:round;stroke-linejoin:miter;stroke-miterlimit:6;stroke-dasharray:none;stroke-opacity:1"
         d="m 400,1135 v 105" /><path
         id="path42"
         style="fill:none;stroke:#000000;stroke-width:9.75;stroke-linecap:round;stroke-linejoin:miter;stroke-miterlimit:6;stroke-dasharray:none;stroke-opacity:1"
         d="M 400,865 V 760" /><path
         id="path44"
         style="fill:none;stroke:#000000;stroke-width:9.75;stroke-linecap:round;stroke-linejoin:miter;stroke-miterlimit:6;stroke-dasharray:none;stroke-opacity:1"
         d="m 400,1135 -52.5,-22.5 105,-45 -105,-45 105,-45 -105,-45 105,-45 L 400,865" /><path
         id="path46"
         style="fill:none;stroke:#000000;stroke-width:9.75;stroke-linecap:round;stroke-linejoin:miter;stroke-miterlimit:6;stroke-dasharray:none;stroke-opacity:1"
         d="M 400,640 V 760" /><path
         id="path48"
         style="fill:none;stroke:#000000;stroke-width:9.75;stroke-linecap:round;stroke-linejoin:miter;stroke-miterlimit:6;stroke-dasharray:none;stroke-opacity:1"
         d="M 520,640 H 280" /><path
         id="path50"
         style="fill:none;stroke:#000000;stroke-width:9.75;stroke-linecap:round;stroke-linejoin:miter;stroke-miterlimit:6;stroke-dasharray:none;stroke-opacity:1"
         d="m 467.5,587.5 h -135" /><path
         id="path52"
         style="fill:none;stroke:#000000;stroke-width:9.75;stroke-linecap:round;stroke-linejoin:miter;stroke-miterlimit:6;stroke-dasharray:none;stroke-opacity:1"
         d="M 415,535 H 385" /><path
         id="path54"
         style="fill:none;stroke:#000000;stroke-width:7.80000019;stroke-linecap:round;stroke-linejoin:miter;stroke-miterlimit:6;stroke-dasharray:none;stroke-opacity:1"
         d="m 580,1585 v 225" /><path
         id="path56"
         style="fill:#000000;fill-opacity:1;fill-rule:evenodd;stroke:none"
         d="m 610,1615 c -18.75,-37.5 -18.75,-48.75 -30,-105 -11.25,56.25 -11.25,67.5 -30,105 22.5,-7.5 37.5,-7.5 60,0" /><g
         transform="scale(10)"
         id="g58"><text
           id="text62"
           style="font-variant:normal;font-weight:normal;font-size:15px;font-family:Helvetica;-inkscape-font-specification:Helvetica;writing-mode:lr-tb;fill:#000000;fill-opacity:1;fill-rule:nonzero;stroke:none"
           transform="matrix(1,0,0,-1,68.5016,166)"><tspan
             id="tspan60"
             y="0"
             x="0">I</tspan></text>
<text
           id="text66"
           style="font-variant:normal;font-weight:normal;font-size:10.05000019px;font-family:Helvetica;-inkscape-font-specification:Helvetica;writing-mode:lr-tb;fill:#000000;fill-opacity:1;fill-rule:nonzero;stroke:none"
           transform="matrix(1,0,0,-1,72.67152,162.68359)"><tspan
             id="tspan64"
             y="0"
             x="0 5.0250001 10.6128 16.2006 21.225599 24.019501 29.6073 35.195099">constant</tspan></text>
</g><g
         transform="scale(10)"
         id="g68"><text
           id="text74"
           style="font-variant:normal;font-weight:normal;font-size:15px;font-family:Helvetica;-inkscape-font-specification:Helvetica;writing-mode:lr-tb;fill:#ff0000;fill-opacity:1;fill-rule:nonzero;stroke:none"
           transform="matrix(1,0,0,-1,51.2813,22)"><tspan
             id="tspan70"
             y="0"
             x="0 10.83 19.17 27.51 35.009998 39.18 47.52 55.860001 60.029999 64.199997 75.029999 83.370003 88.364998 93.360001 101.7 110.04 114.21 118.38 121.71 125.88 130.05 137.55 145.89 154.23 162.57001 165.89999">Constant Current if supply</tspan><tspan
             id="tspan72"
             y="18"
             x="47.729698 51.0597 58.5597 62.729698 66.899696 70.229698 77.729698 86.069702">is fixed</tspan></text>
</g><path
         id="path76"
         style="fill:none;stroke:#000000;stroke-width:9.75;stroke-linecap:round;stroke-linejoin:miter;stroke-miterlimit:6;stroke-dasharray:none;stroke-opacity:1"
         d="M 2155,2365 V 2155" /><path
         id="path78"
         style="fill:none;stroke:#000000;stroke-width:9.75;stroke-linecap:round;stroke-linejoin:miter;stroke-miterlimit:6;stroke-dasharray:none;stroke-opacity:1"
         d="m 2080,2260 h 15" /><path
         id="path80"
         style="fill:none;stroke:#000000;stroke-width:9.75;stroke-linecap:round;stroke-linejoin:miter;stroke-miterlimit:6;stroke-dasharray:none;stroke-opacity:1"
         d="m 2320,2500 v -135 h -120 v -210 h 120 v -135" /><path
         id="path82"
         style="fill:none;stroke:#000000;stroke-width:9.75;stroke-linecap:round;stroke-linejoin:miter;stroke-miterlimit:6;stroke-dasharray:none;stroke-opacity:1"
         d="m 2155,2260 c 0,16.57 -13.43,30 -30,30 -16.57,0 -30,-13.43 -30,-30 0,-16.57 13.43,-30 30,-30 16.57,0 30,13.43 30,30" /><path
         id="path84"
         style="fill:none;stroke:#000000;stroke-width:9.75;stroke-linecap:round;stroke-linejoin:miter;stroke-miterlimit:6;stroke-dasharray:none;stroke-opacity:1"
         d="M 2320,2740 V 2620" /><path
         id="path86"
         style="fill:none;stroke:#000000;stroke-width:9.75;stroke-linecap:round;stroke-linejoin:miter;stroke-miterlimit:6;stroke-dasharray:none;stroke-opacity:1"
         d="M 2440,2740 H 2200" /><g
         transform="scale(10)"
         id="g88"><text
           id="text92"
           style="font-variant:normal;font-weight:normal;font-size:13.5px;font-family:Times;-inkscape-font-specification:Times-Roman;writing-mode:lr-tb;fill:#000000;fill-opacity:1;fill-rule:nonzero;stroke:none"
           transform="matrix(1,0,0,-1,220.558,276.25)"><tspan
             id="tspan90"
             y="0"
             x="0 9.7469997 16.497">Vdd</tspan></text>
</g><path
         id="path94"
         style="fill:none;stroke:#000000;stroke-width:9.75;stroke-linecap:round;stroke-linejoin:miter;stroke-miterlimit:6;stroke-dasharray:none;stroke-opacity:1"
         d="m 2320,2020 v -120 h -360 v 360 h 120" /><path
         id="path96"
         style="fill:#000000;fill-opacity:1;fill-rule:evenodd;stroke:none"
         d="m 2342.5,1900 c 0,12.43 -10.07,22.5 -22.5,22.5 -12.43,0 -22.5,-10.07 -22.5,-22.5 0,-12.43 10.07,-22.5 22.5,-22.5 12.43,0 22.5,10.07 22.5,22.5" /><path
         id="path98"
         style="fill:none;stroke:#000000;stroke-width:9.75;stroke-linecap:round;stroke-linejoin:miter;stroke-miterlimit:6;stroke-dasharray:none;stroke-opacity:1"
         d="M 2320,2620 V 2500" /><path
         id="path100"
         style="fill:none;stroke:#000000;stroke-width:9.75;stroke-linecap:round;stroke-linejoin:miter;stroke-miterlimit:6;stroke-dasharray:none;stroke-opacity:1"
         d="M 2320,640 V 760" /><path
         id="path102"
         style="fill:none;stroke:#000000;stroke-width:9.75;stroke-linecap:round;stroke-linejoin:miter;stroke-miterlimit:6;stroke-dasharray:none;stroke-opacity:1"
         d="M 2440,640 H 2200" /><path
         id="path104"
         style="fill:none;stroke:#000000;stroke-width:9.75;stroke-linecap:round;stroke-linejoin:miter;stroke-miterlimit:6;stroke-dasharray:none;stroke-opacity:1"
         d="m 2387.5,587.5 h -135" /><path
         id="path106"
         style="fill:none;stroke:#000000;stroke-width:9.75;stroke-linecap:round;stroke-linejoin:miter;stroke-miterlimit:6;stroke-dasharray:none;stroke-opacity:1"
         d="m 2335,535 h -30" /><path
         id="path108"
         style="fill:none;stroke:#000000;stroke-width:7.80000019;stroke-linecap:round;stroke-linejoin:miter;stroke-miterlimit:6;stroke-dasharray:none;stroke-opacity:1"
         d="m 2500,1585 v 225" /><path
         id="path110"
         style="fill:#000000;fill-opacity:1;fill-rule:evenodd;stroke:none"
         d="m 2530,1615 c -18.75,-37.5 -18.75,-48.75 -30,-105 -11.25,56.25 -11.25,67.5 -30,105 22.5,-7.5 37.5,-7.5 60,0" /><g
         transform="scale(10)"
         id="g112"><text
           id="text116"
           style="font-variant:normal;font-weight:normal;font-size:15px;font-family:Helvetica;-inkscape-font-specification:Helvetica;writing-mode:lr-tb;fill:#000000;fill-opacity:1;fill-rule:nonzero;stroke:none"
           transform="matrix(1,0,0,-1,260.502,166)"><tspan
             id="tspan114"
             y="0"
             x="0">I</tspan></text>
<text
           id="text120"
           style="font-variant:normal;font-weight:normal;font-size:10.05000019px;font-family:Helvetica;-inkscape-font-specification:Helvetica;writing-mode:lr-tb;fill:#000000;fill-opacity:1;fill-rule:nonzero;stroke:none"
           transform="matrix(1,0,0,-1,264.67192,162.68359)"><tspan
             id="tspan118"
             y="0"
             x="0 5.0250001 10.6128 16.2006 21.225599 24.019501 29.6073 35.195099">constant</tspan></text>
</g><path
         id="path122"
         style="fill:none;stroke:#000000;stroke-width:9.75;stroke-linecap:round;stroke-linejoin:miter;stroke-miterlimit:6;stroke-dasharray:none;stroke-opacity:1"
         d="M 2320,1240 V 1105 H 2200 V 895 h 120 V 760" /><path
         id="path124"
         style="fill:none;stroke:#000000;stroke-width:9.75;stroke-linecap:round;stroke-linejoin:miter;stroke-miterlimit:6;stroke-dasharray:none;stroke-opacity:1"
         d="M 2155,1105 V 895" /><path
         id="path126"
         style="fill:none;stroke:#000000;stroke-width:9.75;stroke-linecap:round;stroke-linejoin:miter;stroke-miterlimit:6;stroke-dasharray:none;stroke-opacity:1"
         d="m 2080,1000 h 75" /><path
         id="path128"
         style="fill:none;stroke:#000000;stroke-width:9.75;stroke-linecap:round;stroke-linejoin:miter;stroke-miterlimit:6;stroke-dasharray:none;stroke-opacity:1"
         d="m 2320,1240 v 120 h -360 v -360 h 120" /><path
         id="path130"
         style="fill:none;stroke:#000000;stroke-width:9.75;stroke-linecap:round;stroke-linejoin:miter;stroke-miterlimit:6;stroke-dasharray:none;stroke-opacity:1"
         d="M 2320,1900 V 1360" /><path
         id="path132"
         style="fill:none;stroke:#000000;stroke-width:9.75;stroke-linecap:round;stroke-linejoin:miter;stroke-miterlimit:6;stroke-dasharray:none;stroke-opacity:1"
         d="M 1540,1720 H 1360" /><path
         id="path134"
         style="fill:none;stroke:#000000;stroke-width:9.75;stroke-linecap:round;stroke-linejoin:miter;stroke-miterlimit:6;stroke-dasharray:none;stroke-opacity:1"
         d="M 1540,1660 H 1360" /><path
         id="path136"
         style="fill:none;stroke:#000000;stroke-width:9.75;stroke-linecap:round;stroke-linejoin:miter;stroke-miterlimit:6;stroke-dasharray:none;stroke-opacity:1"
         d="M 1540,1600 H 1360" /><path
         id="path138"
         style="fill:#000000;fill-opacity:1;fill-rule:evenodd;stroke:none"
         d="m 2342.5,1360 c 0,12.43 -10.07,22.5 -22.5,22.5 -12.43,0 -22.5,-10.07 -22.5,-22.5 0,-12.43 10.07,-22.5 22.5,-22.5 12.43,0 22.5,10.07 22.5,22.5" /></g></g></svg>