<?xml version="1.0" encoding="UTF-8" standalone="no"?>
<svg
   viewBox="0 0 440 446.66666"
   height="446.66666"
   width="440"
   xml:space="preserve"
   id="svg2"
   version="1.1"
   xmlns="http://www.w3.org/2000/svg"
   xmlns:svg="http://www.w3.org/2000/svg"
   xmlns:rdf="http://www.w3.org/1999/02/22-rdf-syntax-ns#"
   xmlns:cc="http://creativecommons.org/ns#"
   xmlns:dc="http://purl.org/dc/elements/1.1/"><metadata
     id="metadata8"><rdf:RDF><cc:Work
         rdf:about=""><dc:format>image/svg+xml</dc:format><dc:type
           rdf:resource="http://purl.org/dc/dcmitype/StillImage" /></cc:Work></rdf:RDF></metadata><defs
     id="defs6"><filter
       style="color-interpolation-filters:sRGB"
       id="filter2"
       x="0"
       y="-0.0014857209"
       width="1"
       height="1.0014857"><feColorMatrix
         type="hueRotate"
         values="180"
         result="color1"
         id="feColorMatrix1" /><feColorMatrix
         values="-1 0 0 0 1 0 -1 0 0 1 0 0 -1 0 1 0.21 0.72 0.07 1 0 "
         result="color2"
         id="feColorMatrix2" /></filter></defs><g
     transform="matrix(1.3333333,0,0,-1.3333333,0,446.66667)"
     id="g10"
     style="filter:url(#filter2)"><g
       transform="scale(0.1)"
       id="g12"><path
         id="path14"
         style="fill:none;stroke:#000000;stroke-width:9.75;stroke-linecap:round;stroke-linejoin:miter;stroke-miterlimit:6;stroke-dasharray:none;stroke-opacity:1"
         d="m 1600,2425 -300,-600 h 600 z" /><g
         transform="scale(10)"
         id="g16"><text
   id="text22"
   style="font-variant:normal;font-weight:normal;font-size:15px;font-family:Symbol;-inkscape-font-specification:Symbol;writing-mode:lr-tb;fill:#000000;fill-opacity:1;fill-rule:nonzero;stroke:none"
   transform="matrix(0,1,1,0,143.452,185.701)"><tspan
     id="tspan18"
     y="0"
     x="0">−</tspan><tspan
     id="tspan20"
     y="37.789799"
     x="-0.036718801">+</tspan></text>
</g><path
         id="path24"
         style="fill:none;stroke:#000000;stroke-width:9.75;stroke-linecap:round;stroke-linejoin:miter;stroke-miterlimit:6;stroke-dasharray:none;stroke-opacity:1"
         d="M 865,2950 V 2740" /><path
         id="path26"
         style="fill:none;stroke:#000000;stroke-width:9.75;stroke-linecap:round;stroke-linejoin:miter;stroke-miterlimit:6;stroke-dasharray:none;stroke-opacity:1"
         d="M 940,2845 H 925" /><path
         id="path28"
         style="fill:none;stroke:#000000;stroke-width:9.75;stroke-linecap:round;stroke-linejoin:miter;stroke-miterlimit:6;stroke-dasharray:none;stroke-opacity:1"
         d="M 700,3085 V 2950 H 820 V 2740 H 700 v -135" /><path
         id="path30"
         style="fill:none;stroke:#000000;stroke-width:9.75;stroke-linecap:round;stroke-linejoin:miter;stroke-miterlimit:6;stroke-dasharray:none;stroke-opacity:1"
         d="m 865,2845 c 0,16.57 13.434,30 30,30 16.566,0 30,-13.43 30,-30 0,-16.57 -13.434,-30 -30,-30 -16.566,0 -30,13.43 -30,30" /><path
         id="path32"
         style="fill:none;stroke:#000000;stroke-width:9.75;stroke-linecap:round;stroke-linejoin:miter;stroke-miterlimit:6;stroke-dasharray:none;stroke-opacity:1"
         d="M 2335,2950 V 2740" /><path
         id="path34"
         style="fill:none;stroke:#000000;stroke-width:9.75;stroke-linecap:round;stroke-linejoin:miter;stroke-miterlimit:6;stroke-dasharray:none;stroke-opacity:1"
         d="m 2260,2845 h 15" /><path
         id="path36"
         style="fill:none;stroke:#000000;stroke-width:9.75;stroke-linecap:round;stroke-linejoin:miter;stroke-miterlimit:6;stroke-dasharray:none;stroke-opacity:1"
         d="m 2500,3085 v -135 h -120 v -210 h 120 v -135" /><path
         id="path38"
         style="fill:none;stroke:#000000;stroke-width:9.75;stroke-linecap:round;stroke-linejoin:miter;stroke-miterlimit:6;stroke-dasharray:none;stroke-opacity:1"
         d="m 2335,2845 c 0,16.57 -13.43,30 -30,30 -16.57,0 -30,-13.43 -30,-30 0,-16.57 13.43,-30 30,-30 16.57,0 30,13.43 30,30" /><path
         id="path40"
         style="fill:none;stroke:#000000;stroke-width:9.75;stroke-linecap:round;stroke-linejoin:miter;stroke-miterlimit:6;stroke-dasharray:none;stroke-opacity:1"
         d="m 2500,1540 v 105" /><path
         id="path42"
         style="fill:none;stroke:#000000;stroke-width:9.75;stroke-linecap:round;stroke-linejoin:miter;stroke-miterlimit:6;stroke-dasharray:none;stroke-opacity:1"
         d="M 2500,1270 V 1165" /><path
         id="path44"
         style="fill:none;stroke:#000000;stroke-width:9.75;stroke-linecap:round;stroke-linejoin:miter;stroke-miterlimit:6;stroke-dasharray:none;stroke-opacity:1"
         d="m 2500,1540 -52.5,-22.5 105,-45 -105,-45 105,-45 -105,-45 105,-45 -52.5,-22.5" /><path
         id="path46"
         style="fill:none;stroke:#000000;stroke-width:9.75;stroke-linecap:round;stroke-linejoin:miter;stroke-miterlimit:6;stroke-dasharray:none;stroke-opacity:1"
         d="m 460,685 h 60" /><path
         id="path48"
         style="fill:none;stroke:#000000;stroke-width:9.75;stroke-linecap:round;stroke-linejoin:miter;stroke-miterlimit:6;stroke-dasharray:none;stroke-opacity:1"
         d="M 520,505 V 865" /><path
         id="path50"
         style="fill:none;stroke:#000000;stroke-width:9.75;stroke-linecap:round;stroke-linejoin:miter;stroke-miterlimit:6;stroke-dasharray:none;stroke-opacity:1"
         d="M 520,767.5 700,865" /><path
         id="path52"
         style="fill:none;stroke:#000000;stroke-width:9.75;stroke-linecap:round;stroke-linejoin:miter;stroke-miterlimit:6;stroke-dasharray:none;stroke-opacity:1"
         d="M 700,925 V 865" /><path
         id="path54"
         style="fill:none;stroke:#000000;stroke-width:9.75;stroke-linecap:round;stroke-linejoin:miter;stroke-miterlimit:6;stroke-dasharray:none;stroke-opacity:1"
         d="M 520,602.5 700,505" /><path
         id="path56"
         style="fill:none;stroke:#000000;stroke-width:9.75;stroke-linecap:round;stroke-linejoin:miter;stroke-miterlimit:6;stroke-dasharray:none;stroke-opacity:1"
         d="m 700,445 v 60" /><path
         id="path58"
         style="fill:#000000;fill-opacity:1;fill-rule:evenodd;stroke:none"
         d="M 595.934,845.98 C 572.832,810.992 563.09,805.367 520,767.5 c 54.34,18.383 64.082,24.008 105.934,26.52 -17.746,15.734 -25.246,28.726 -30,51.96" /><path
         id="path60"
         style="fill:none;stroke:#000000;stroke-width:9.75;stroke-linecap:round;stroke-linejoin:miter;stroke-miterlimit:6;stroke-dasharray:none;stroke-opacity:1"
         d="M 700,445 V 385 H 400 v 300 h 60" /><path
         id="path62"
         style="fill:none;stroke:#000000;stroke-width:9.75;stroke-linecap:round;stroke-linejoin:miter;stroke-miterlimit:6;stroke-dasharray:none;stroke-opacity:1"
         d="m 2260,685 h 60" /><path
         id="path64"
         style="fill:none;stroke:#000000;stroke-width:9.75;stroke-linecap:round;stroke-linejoin:miter;stroke-miterlimit:6;stroke-dasharray:none;stroke-opacity:1"
         d="M 2320,505 V 865" /><path
         id="path66"
         style="fill:none;stroke:#000000;stroke-width:9.75;stroke-linecap:round;stroke-linejoin:miter;stroke-miterlimit:6;stroke-dasharray:none;stroke-opacity:1"
         d="M 2320,767.5 2500,865" /><path
         id="path68"
         style="fill:none;stroke:#000000;stroke-width:9.75;stroke-linecap:round;stroke-linejoin:miter;stroke-miterlimit:6;stroke-dasharray:none;stroke-opacity:1"
         d="M 2500,925 V 865" /><path
         id="path70"
         style="fill:none;stroke:#000000;stroke-width:9.75;stroke-linecap:round;stroke-linejoin:miter;stroke-miterlimit:6;stroke-dasharray:none;stroke-opacity:1"
         d="M 2320,602.5 2500,505" /><path
         id="path72"
         style="fill:none;stroke:#000000;stroke-width:9.75;stroke-linecap:round;stroke-linejoin:miter;stroke-miterlimit:6;stroke-dasharray:none;stroke-opacity:1"
         d="m 2500,445 v 60" /><path
         id="path74"
         style="fill:#000000;fill-opacity:1;fill-rule:evenodd;stroke:none"
         d="m 2395.93,845.98 c -23.1,-34.988 -32.84,-40.613 -75.93,-78.48 54.34,18.383 64.08,24.008 105.93,26.52 -17.74,15.734 -25.24,28.726 -30,51.96" /><path
         id="path76"
         style="fill:none;stroke:#000000;stroke-width:9.75;stroke-linecap:round;stroke-linejoin:miter;stroke-miterlimit:6;stroke-dasharray:none;stroke-opacity:1"
         d="m 2500,445 v -60 h -300 v 300 h 60" /><path
         id="path78"
         style="fill:none;stroke:#000000;stroke-width:9.75;stroke-linecap:round;stroke-linejoin:miter;stroke-miterlimit:6;stroke-dasharray:none;stroke-opacity:1"
         d="M 700,145 V 265" /><path
         id="path80"
         style="fill:none;stroke:#000000;stroke-width:9.75;stroke-linecap:round;stroke-linejoin:miter;stroke-miterlimit:6;stroke-dasharray:none;stroke-opacity:1"
         d="M 820,145 H 580" /><path
         id="path82"
         style="fill:none;stroke:#000000;stroke-width:9.75;stroke-linecap:round;stroke-linejoin:miter;stroke-miterlimit:6;stroke-dasharray:none;stroke-opacity:1"
         d="m 767.5,92.5 h -135" /><path
         id="path84"
         style="fill:none;stroke:#000000;stroke-width:9.75;stroke-linecap:round;stroke-linejoin:miter;stroke-miterlimit:6;stroke-dasharray:none;stroke-opacity:1"
         d="M 715,40 H 685" /><path
         id="path86"
         style="fill:none;stroke:#000000;stroke-width:9.75;stroke-linecap:round;stroke-linejoin:miter;stroke-miterlimit:6;stroke-dasharray:none;stroke-opacity:1"
         d="M 2500,145 V 265" /><path
         id="path88"
         style="fill:none;stroke:#000000;stroke-width:9.75;stroke-linecap:round;stroke-linejoin:miter;stroke-miterlimit:6;stroke-dasharray:none;stroke-opacity:1"
         d="M 2620,145 H 2380" /><path
         id="path90"
         style="fill:none;stroke:#000000;stroke-width:9.75;stroke-linecap:round;stroke-linejoin:miter;stroke-miterlimit:6;stroke-dasharray:none;stroke-opacity:1"
         d="m 2567.5,92.5 h -135" /><path
         id="path92"
         style="fill:none;stroke:#000000;stroke-width:9.75;stroke-linecap:round;stroke-linejoin:miter;stroke-miterlimit:6;stroke-dasharray:none;stroke-opacity:1"
         d="m 2515,40 h -30" /><path
         id="path94"
         style="fill:none;stroke:#000000;stroke-width:9.75;stroke-linecap:round;stroke-linejoin:miter;stroke-miterlimit:6;stroke-dasharray:none;stroke-opacity:1"
         d="M 700,265 V 385" /><path
         id="path96"
         style="fill:none;stroke:#000000;stroke-width:9.75;stroke-linecap:round;stroke-linejoin:miter;stroke-miterlimit:6;stroke-dasharray:none;stroke-opacity:1"
         d="M 2500,265 V 385" /><path
         id="path98"
         style="fill:none;stroke:#000000;stroke-width:9.75;stroke-linecap:round;stroke-linejoin:miter;stroke-miterlimit:6;stroke-dasharray:none;stroke-opacity:1"
         d="M 700,2605 V 925" /><path
         id="path100"
         style="fill:none;stroke:#000000;stroke-width:9.75;stroke-linecap:round;stroke-linejoin:miter;stroke-miterlimit:6;stroke-dasharray:none;stroke-opacity:1"
         d="M 2500,1165 V 925" /><path
         id="path102"
         style="fill:#000000;fill-opacity:1;fill-rule:evenodd;stroke:none"
         d="m 722.5,385 c 0,12.426 -10.074,22.5 -22.5,22.5 -12.426,0 -22.5,-10.074 -22.5,-22.5 0,-12.426 10.074,-22.5 22.5,-22.5 12.426,0 22.5,10.074 22.5,22.5" /><path
         id="path104"
         style="fill:#000000;fill-opacity:1;fill-rule:evenodd;stroke:none"
         d="m 2522.5,385 c 0,12.426 -10.07,22.5 -22.5,22.5 -12.43,0 -22.5,-10.074 -22.5,-22.5 0,-12.426 10.07,-22.5 22.5,-22.5 12.43,0 22.5,10.074 22.5,22.5" /><path
         id="path106"
         style="fill:none;stroke:#000000;stroke-width:9.75;stroke-linecap:round;stroke-linejoin:miter;stroke-miterlimit:6;stroke-dasharray:none;stroke-opacity:1"
         d="M 2500,2605 V 1645" /><path
         id="path108"
         style="fill:none;stroke:#000000;stroke-width:9.75;stroke-linecap:round;stroke-linejoin:miter;stroke-miterlimit:6;stroke-dasharray:none;stroke-opacity:1"
         d="M 2260,2845 H 940" /><path
         id="path110"
         style="fill:none;stroke:#000000;stroke-width:9.75;stroke-linecap:round;stroke-linejoin:miter;stroke-miterlimit:6;stroke-dasharray:none;stroke-opacity:1"
         d="m 700,1705 h 660 v 120" /><path
         id="path112"
         style="fill:none;stroke:#000000;stroke-width:9.75;stroke-linecap:round;stroke-linejoin:miter;stroke-miterlimit:6;stroke-dasharray:none;stroke-opacity:1"
         d="m 2500,1705 h -720 v 120" /><path
         id="path114"
         style="fill:#000000;fill-opacity:1;fill-rule:evenodd;stroke:none"
         d="m 2522.5,1045 c 0,12.43 -10.07,22.5 -22.5,22.5 -12.43,0 -22.5,-10.07 -22.5,-22.5 0,-12.43 10.07,-22.5 22.5,-22.5 12.43,0 22.5,10.07 22.5,22.5" /><path
         id="path116"
         style="fill:#000000;fill-opacity:1;fill-rule:evenodd;stroke:none"
         d="m 2522.5,1705 c 0,12.43 -10.07,22.5 -22.5,22.5 -12.43,0 -22.5,-10.07 -22.5,-22.5 0,-12.43 10.07,-22.5 22.5,-22.5 12.43,0 22.5,10.07 22.5,22.5" /><path
         id="path118"
         style="fill:#000000;fill-opacity:1;fill-rule:evenodd;stroke:none"
         d="m 722.5,1705 c 0,12.43 -10.074,22.5 -22.5,22.5 -12.426,0 -22.5,-10.07 -22.5,-22.5 0,-12.43 10.074,-22.5 22.5,-22.5 12.426,0 22.5,10.07 22.5,22.5" /><path
         id="path120"
         style="fill:none;stroke:#000000;stroke-width:9.75;stroke-linecap:round;stroke-linejoin:miter;stroke-miterlimit:6;stroke-dasharray:none;stroke-opacity:1"
         d="M 700,3205 V 3085" /><path
         id="path122"
         style="fill:none;stroke:#000000;stroke-width:9.75;stroke-linecap:round;stroke-linejoin:miter;stroke-miterlimit:6;stroke-dasharray:none;stroke-opacity:1"
         d="M 820,3205 H 580" /><g
         transform="scale(10)"
         id="g124"><text
   id="text128"
   style="font-variant:normal;font-weight:normal;font-size:13.5px;font-family:Times;-inkscape-font-specification:Times-Roman;writing-mode:lr-tb;fill:#000000;fill-opacity:1;fill-rule:nonzero;stroke:none"
   transform="matrix(1,0,0,-1,58.5578,322.75)"><tspan
     id="tspan126"
     y="0"
     x="0 9.7469997 16.497">Vdd</tspan></text>
</g><path
         id="path130"
         style="fill:none;stroke:#000000;stroke-width:9.75;stroke-linecap:round;stroke-linejoin:miter;stroke-miterlimit:6;stroke-dasharray:none;stroke-opacity:1"
         d="M 2500,3205 V 3085" /><path
         id="path132"
         style="fill:none;stroke:#000000;stroke-width:9.75;stroke-linecap:round;stroke-linejoin:miter;stroke-miterlimit:6;stroke-dasharray:none;stroke-opacity:1"
         d="M 2620,3205 H 2380" /><g
         transform="scale(10)"
         id="g134"><text
   id="text138"
   style="font-variant:normal;font-weight:normal;font-size:13.5px;font-family:Times;-inkscape-font-specification:Times-Roman;writing-mode:lr-tb;fill:#000000;fill-opacity:1;fill-rule:nonzero;stroke:none"
   transform="matrix(1,0,0,-1,238.558,322.75)"><tspan
     id="tspan136"
     y="0"
     x="0 9.7469997 16.497">Vdd</tspan></text>
<text
   id="text142"
   style="font-variant:normal;font-weight:normal;font-size:15px;font-family:Helvetica;-inkscape-font-specification:Helvetica;writing-mode:lr-tb;fill:#000000;fill-opacity:1;fill-rule:nonzero;stroke:none"
   transform="matrix(1,0,0,-1,218.608,134.5)"><tspan
     id="tspan140"
     y="0"
     x="0">R</tspan></text>
<text
   id="text146"
   style="font-variant:normal;font-weight:normal;font-size:10.05px;font-family:Helvetica;-inkscape-font-specification:Helvetica;writing-mode:lr-tb;fill:#000000;fill-opacity:1;fill-rule:nonzero;stroke:none"
   transform="matrix(1,0,0,-1,229.4381,131.18359)"><tspan
     id="tspan144"
     y="0"
     x="0">1</tspan></text>
<text
   id="text152"
   style="font-variant:normal;font-weight:normal;font-size:15px;font-family:Helvetica;-inkscape-font-specification:Helvetica;writing-mode:lr-tb;fill:#000000;fill-opacity:1;fill-rule:nonzero;stroke:none"
   transform="matrix(1,0,0,-1,267.4455,62.49999)"><tspan
     id="tspan148"
     y="0"
     x="0">8</tspan><tspan
     id="tspan150"
     y="-36"
     x="-228.01401">Q</tspan></text>
<text
   id="text156"
   style="font-variant:normal;font-weight:normal;font-size:10.05px;font-family:Helvetica;-inkscape-font-specification:Helvetica;writing-mode:lr-tb;fill:#000000;fill-opacity:1;fill-rule:nonzero;stroke:none"
   transform="matrix(1,0,0,-1,51.1014,95.18358)"><tspan
     id="tspan154"
     y="0"
     x="0">1</tspan></text>
<text
   id="text160"
   style="font-variant:normal;font-weight:normal;font-size:15px;font-family:Helvetica;-inkscape-font-specification:Helvetica;writing-mode:lr-tb;fill:#000000;fill-opacity:1;fill-rule:nonzero;stroke:none"
   transform="matrix(1,0,0,-1,219.4314,98.49999)"><tspan
     id="tspan158"
     y="0"
     x="0">Q</tspan></text>
<text
   id="text164"
   style="font-variant:normal;font-weight:normal;font-size:10.05px;font-family:Helvetica;-inkscape-font-specification:Helvetica;writing-mode:lr-tb;fill:#000000;fill-opacity:1;fill-rule:nonzero;stroke:none"
   transform="matrix(1,0,0,-1,231.1013,95.18358)"><tspan
     id="tspan162"
     y="0"
     x="0">2</tspan></text>
</g><path
         id="path166"
         style="fill:none;stroke:#000000;stroke-width:9.75;stroke-linecap:round;stroke-linejoin:miter;stroke-miterlimit:6;stroke-dasharray:none;stroke-opacity:1"
         d="M 1600,2665 V 2425" /><path
         id="path168"
         style="fill:none;stroke:#2e8b57;stroke-width:10.725;stroke-linecap:round;stroke-linejoin:miter;stroke-miterlimit:6;stroke-dasharray:none;stroke-opacity:1"
         d="m 1660,2605 -120,120" /><path
         id="path170"
         style="fill:none;stroke:#2e8b57;stroke-width:10.725;stroke-linecap:round;stroke-linejoin:miter;stroke-miterlimit:6;stroke-dasharray:none;stroke-opacity:1"
         d="m 1540,2605 120,120" /><path
         id="path172"
         style="fill:none;stroke:#0000ff;stroke-width:9.75;stroke-linecap:round;stroke-linejoin:miter;stroke-miterlimit:6;stroke-dasharray:none;stroke-opacity:1"
         d="M 1780,2485 H 1600" /><path
         id="path174"
         style="fill:none;stroke:#0000ff;stroke-width:9.75;stroke-linecap:round;stroke-linejoin:miter;stroke-miterlimit:6;stroke-dasharray:none;stroke-opacity:1"
         d="m 1862.5,2485 c 0,12.43 -10.07,22.5 -22.5,22.5 -12.43,0 -22.5,-10.07 -22.5,-22.5 0,-12.43 10.07,-22.5 22.5,-22.5 12.43,0 22.5,10.07 22.5,22.5" /><path
         id="path176"
         style="fill:none;stroke:#0000ff;stroke-width:9.75;stroke-linecap:round;stroke-linejoin:miter;stroke-miterlimit:6;stroke-dasharray:none;stroke-opacity:1"
         d="M 1817.5,2485 H 1780" /><path
         id="path178"
         style="fill:#0000ff;fill-opacity:1;fill-rule:evenodd;stroke:none"
         d="m 1622.5,2485 c 0,12.43 -10.07,22.5 -22.5,22.5 -12.43,0 -22.5,-10.07 -22.5,-22.5 0,-12.43 10.07,-22.5 22.5,-22.5 12.43,0 22.5,10.07 22.5,22.5" /><path
         id="path180"
         style="fill:none;stroke:#0000ff;stroke-width:9.75;stroke-linecap:round;stroke-linejoin:miter;stroke-miterlimit:6;stroke-dasharray:none;stroke-opacity:1"
         d="M 1600,3025 V 2845" /><path
         id="path182"
         style="fill:#0000ff;fill-opacity:1;fill-rule:evenodd;stroke:none"
         d="m 1622.5,2845 c 0,12.43 -10.07,22.5 -22.5,22.5 -12.43,0 -22.5,-10.07 -22.5,-22.5 0,-12.43 10.07,-22.5 22.5,-22.5 12.43,0 22.5,10.07 22.5,22.5" /><path
         id="path184"
         style="fill:none;stroke:#0000ff;stroke-width:9.75;stroke-linecap:round;stroke-linejoin:miter;stroke-miterlimit:6;stroke-dasharray:none;stroke-opacity:1"
         d="m 1600,3107.5 c -12.43,0 -22.5,-10.07 -22.5,-22.5 0,-12.43 10.07,-22.5 22.5,-22.5 12.43,0 22.5,10.07 22.5,22.5 0,12.43 -10.07,22.5 -22.5,22.5" /><path
         id="path186"
         style="fill:none;stroke:#0000ff;stroke-width:9.75;stroke-linecap:round;stroke-linejoin:miter;stroke-miterlimit:6;stroke-dasharray:none;stroke-opacity:1"
         d="M 1600,3062.5 V 3025" /><g
         transform="scale(10)"
         id="g188"><text
   id="text192"
   style="font-variant:normal;font-weight:normal;font-size:15px;font-family:Helvetica;-inkscape-font-specification:Helvetica;writing-mode:lr-tb;fill:#0000ff;fill-opacity:1;fill-rule:nonzero;stroke:none"
   transform="matrix(1,0,0,-1,153.55,320.5)"><tspan
     id="tspan190"
     y="0"
     x="0">V</tspan></text>
<text
   id="text196"
   style="font-variant:normal;font-weight:normal;font-size:10.05px;font-family:Helvetica;-inkscape-font-specification:Helvetica;writing-mode:lr-tb;fill:#0000ff;fill-opacity:1;fill-rule:nonzero;stroke:none"
   transform="matrix(1,0,0,-1,163.5551,317.18359)"><tspan
     id="tspan194"
     y="0"
     x="0 2.2311001">in</tspan></text>
<text
   id="text200"
   style="font-variant:normal;font-weight:normal;font-size:15px;font-family:Helvetica;-inkscape-font-specification:Helvetica;writing-mode:lr-tb;fill:#0000ff;fill-opacity:1;fill-rule:nonzero;stroke:none"
   transform="matrix(1,0,0,-1,189.55,242.49999)"><tspan
     id="tspan198"
     y="0"
     x="0">V</tspan></text>
<text
   id="text204"
   style="font-variant:normal;font-weight:normal;font-size:10.05px;font-family:Helvetica;-inkscape-font-specification:Helvetica;writing-mode:lr-tb;fill:#0000ff;fill-opacity:1;fill-rule:nonzero;stroke:none"
   transform="matrix(1,0,0,-1,199.5551,239.18358)"><tspan
     id="tspan202"
     y="0"
     x="0 2.7939 8.3816996 13.9695 19.557301 25.1451 30.170099">fedback</tspan></text>
</g><g
         transform="scale(10)"
         id="g206"><text
   id="text220"
   style="font-variant:normal;font-weight:bold;font-size:15px;font-family:Helvetica;-inkscape-font-specification:Helvetica-Bold;writing-mode:lr-tb;fill:#ff0000;fill-opacity:1;fill-rule:nonzero;stroke:none"
   transform="matrix(1,0,0,-1,284.847,158.5)"><tspan
     id="tspan208"
     y="0"
     x="0 10.83 19.995001 29.16 33.330002">Don’t</tspan><tspan
     id="tspan210"
     y="18"
     x="-0.075000003 10.755 16.59 24.93 33.27">Break</tspan><tspan
     id="tspan212"
     y="36"
     x="0.13437501 10.964375 19.304375 25.139376">Here</tspan><tspan
     id="tspan214"
     y="0"
     x="-281.99963 -271.16962 -262.00464 -252.83963 -248.66963">Don’t</tspan><tspan
     id="tspan216"
     y="18"
     x="-282.07462 -271.24463 -265.40964 -257.06961 -248.72963">Break</tspan><tspan
     id="tspan218"
     y="36"
     x="-281.86526 -271.03525 -262.69525 -256.86026">Here</tspan></text>
</g><path
         id="path222"
         style="fill:none;stroke:#ff0000;stroke-width:9.75;stroke-linecap:round;stroke-linejoin:miter;stroke-miterlimit:6;stroke-dasharray:none;stroke-opacity:1"
         d="m 2620,1705 h 240" /><path
         id="path224"
         style="fill:none;stroke:#ff0000;stroke-width:9.75;stroke-linecap:round;stroke-linejoin:miter;stroke-miterlimit:6;stroke-dasharray:none;stroke-opacity:1"
         d="m 2680,1645 -60,60 60,60" /><path
         id="path226"
         style="fill:none;stroke:#ff0000;stroke-width:9.75;stroke-linecap:round;stroke-linejoin:miter;stroke-miterlimit:6;stroke-dasharray:none;stroke-opacity:1"
         d="M 580,1705 H 400" /><path
         id="path228"
         style="fill:none;stroke:#ff0000;stroke-width:9.75;stroke-linecap:round;stroke-linejoin:miter;stroke-miterlimit:6;stroke-dasharray:none;stroke-opacity:1"
         d="m 520,1645 60,60 -60,60" /><g
         transform="scale(10)"
         id="g230"><text
   id="text236"
   style="font-variant:normal;font-weight:bold;font-size:15px;font-family:Helvetica;-inkscape-font-specification:Helvetica-Bold;writing-mode:lr-tb;fill:#2e8b57;fill-opacity:1;fill-rule:nonzero;stroke:none"
   transform="matrix(1,0,0,-1,86.7719,254.5)"><tspan
     id="tspan232"
     y="0"
     x="0 10.83 16.665001 25.004999 33.345001">Break</tspan><tspan
     id="tspan234"
     y="18"
     x="0.20937499 11.039375 19.379375 25.214375">Here</tspan></text>
</g><path
         id="path238"
         style="fill:none;stroke:#2e8b57;stroke-width:9.75;stroke-linecap:round;stroke-linejoin:miter;stroke-miterlimit:6;stroke-dasharray:none;stroke-opacity:1"
         d="M 1480,2665 H 1240" /><path
         id="path240"
         style="fill:none;stroke:#2e8b57;stroke-width:9.75;stroke-linecap:round;stroke-linejoin:miter;stroke-miterlimit:6;stroke-dasharray:none;stroke-opacity:1"
         d="m 1420,2605 60,60 -60,60" /></g></g></svg>
