<?xml version="1.0" encoding="UTF-8" standalone="no"?>
<svg
   xmlns:dc="http://purl.org/dc/elements/1.1/"
   xmlns:cc="http://creativecommons.org/ns#"
   xmlns:rdf="http://www.w3.org/1999/02/22-rdf-syntax-ns#"
   xmlns:svg="http://www.w3.org/2000/svg"
   xmlns="http://www.w3.org/2000/svg"
   viewBox="0 0 232.8 198.39999"
   height="198.39999"
   width="232.8"
   xml:space="preserve"
   id="svg2"
   version="1.1"><metadata
     id="metadata8"><rdf:RDF><cc:Work
         rdf:about=""><dc:format>image/svg+xml</dc:format><dc:type
           rdf:resource="http://purl.org/dc/dcmitype/StillImage" /></cc:Work></rdf:RDF></metadata><defs
     id="defs6"><clipPath
       id="clipPath14"
       clipPathUnits="userSpaceOnUse"><path
         id="path12"
         d="M 222,481.8 H 396.6 V 630.6 H 222 Z" /></clipPath><clipPath
       id="clipPath36"
       clipPathUnits="userSpaceOnUse"><path
         id="path34"
         d="m 273.48,196.2 h 1.08 v 8.16 h -1.08 z" /></clipPath><clipPath
       id="clipPath256"
       clipPathUnits="userSpaceOnUse"><path
         id="path254"
         d="m 289.92,174.72 h 5.16 v 13.68 h -5.16 z" /></clipPath><clipPath
       id="clipPath270"
       clipPathUnits="userSpaceOnUse"><path
         id="path268"
         d="m 294.48,174.6 h 6 v 8.76 h -6 z" /></clipPath><clipPath
       id="clipPath288"
       clipPathUnits="userSpaceOnUse"><path
         id="path286"
         d="m 291,73.68 h 5.16 V 87.36 H 291 Z" /></clipPath><clipPath
       id="clipPath302"
       clipPathUnits="userSpaceOnUse"><path
         id="path300"
         d="m 295.56,73.68 h 6 v 8.64 h -6 z" /></clipPath></defs><g
     clip-path="url(#clipPath14)"
     transform="matrix(1.3333333,0,0,-1.3333333,-296,840.8)"
     id="g10"><g
       id="g16"><g
         id="g18"><g
           id="g20"><g
             transform="matrix(0.915,0,0,0.915,266.625,610.41)"
             id="g22"><path
               id="path24"
               style="fill:none;stroke:#000000;stroke-width:0.49700001;stroke-linecap:round;stroke-linejoin:round;stroke-miterlimit:10;stroke-dasharray:none;stroke-opacity:1"
               d="M 0,0 V -1.56 L 0.12,-1.8 V -1.92 L 0.24,-2.16 V -2.4 L 0.36,-2.64 V -3 L 0.48,-3.12 V -3.36 L 0.6,-3.48 V -3.84 L 0.72,-3.96 0.84,-4.2 V -4.32 L 0.96,-4.56 V -4.8 L 1.08,-4.92 1.2,-5.16 1.56,-5.52 v -0.24 l 0.6,-0.6 V -6.48 L 2.28,-6.6 2.4,-6.84 2.64,-7.08 C 3.441,-8.143 3.119,-7.482 3.96,-8.4 H 4.08 L 4.2,-8.52 4.32,-8.76 H 4.56 L 4.8,-9 H 4.92 L 5.16,-9.12 5.4,-9.36 H 5.52 L 5.76,-9.48 5.88,-9.6 H 6 L 6.12,-9.72 6.6,-9.96 h 0.12 l 0.12,-0.12 H 6.96 L 7.2,-10.2 h 0.36 l 0.12,-0.12 H 7.8 l 0.12,-0.12 c 0.624,0.027 0.064,-0.179 1.08,-0.12 h 0.24 l 0.12,-0.12 c 0.925,0.078 0.86,-0.147 1.44,-0.12 h 1.08 c 0.405,-0.032 0.714,0.097 1.08,0.24 h 0.24 c 0.428,0.008 0.838,0.357 1.2,0.36 h 0.12 L 15,-9.96 h 0.24 l 0.12,0.12 h 0.24 l 0.36,0.36 0.24,0.12 h 0.12 l 0.24,0.24 0.24,0.12 0.24,0.24 h 0.12 l 0.36,0.36 0.24,0.12 0.12,0.12 H 18 l 0.12,0.24 0.36,0.36 c 0.637,0.558 0.312,0.488 0.84,0.96 l 0.24,0.24 0.12,0.24 0.12,0.12 v 0.24 l 0.12,0.24 0.36,0.36 0.12,0.24 v 0.12 l 0.12,0.12 0.24,0.48 v 0.24 l 0.12,0.12 V -3.6 L 21,-3.48 v 0.36 L 21.12,-3 v 0.12 l 0.12,0.24 v 0.24 l 0.12,0.12 v 0.72 l 0.12,0.12 v 0.84 l 0.12,0.24 v 0.12 c 0,0.48 0,0.96 0,1.44 V 1.44 L 21.48,1.68 V 1.92 L 21.36,2.04 V 2.52 L 21.24,2.76 V 3 L 21.12,3.12 V 3.24 L 21,3.36 V 3.72 L 20.76,4.2 V 4.44 L 20.64,4.56 V 4.8 L 20.28,5.16 20.16,5.4 V 5.52 L 19.92,5.76 19.8,6 19.56,6.24 19.44,6.48 19.08,6.84 18.96,7.08 V 7.2 L 18.72,7.32 18.24,7.8 C 17.689,8.396 18.192,7.684 17.64,8.28 L 17.16,8.76 16.92,8.88 16.8,9 H 16.56 L 16.32,9.12 15.96,9.48 15.72,9.6 H 15.6 L 15.48,9.72 15.24,9.84 H 15 l -0.12,0.12 h -0.12 l -0.12,0.12 H 14.4 l -0.12,0.12 h -0.36 l -0.12,0.12 h -0.12 l -0.24,0.12 h -0.36 l -0.12,0.12 C 11.813,10.506 12.645,10.717 12,10.68 h -0.36 c -0.576,-0.042 -0.091,0.177 -0.96,0.12 H 9.24 L 9,10.68 H 8.88 L 8.64,10.56 H 8.4 L 8.16,10.44 H 7.8 L 7.68,10.32 H 7.56 L 7.32,10.2 H 6.96 L 6.84,10.08 6.6,9.96 H 6.48 L 6.36,9.84 H 6 L 5.76,9.6 5.52,9.48 5.28,9.24 C 4.973,9.293 4.77,8.937 4.56,8.76 L 4.44,8.64 H 4.32 L 4.2,8.52 3.96,8.4 C 3.76,8.2 3.56,8 3.36,7.8 L 3.12,7.68 3,7.56 V 7.44 L 2.4,6.84 V 6.72 L 2.16,6.48 2.04,6.24 1.8,6 V 5.88 L 1.68,5.64 1.56,5.52 V 5.4 L 1.44,5.28 1.32,5.04 1.2,4.92 V 4.8 L 1.08,4.68 0.84,4.2 V 4.08 L 0.72,3.96 V 3.84 L 0.6,3.6 V 3.24 L 0.48,3.12 V 3 L 0.36,2.88 V 2.4 L 0.24,2.28 V 2.04 C 0.282,0.89 0.076,2.103 0.12,0.96 V 0.6 L 0,0.36 Z" /><g
               transform="translate(10.8,-10.8)"
               id="g26"><path
                 id="path28"
                 style="fill:none;stroke:#000000;stroke-width:0.49700001;stroke-linecap:round;stroke-linejoin:round;stroke-miterlimit:10;stroke-dasharray:none;stroke-opacity:1"
                 d="M 0,0 V -14.4" /><g
                 transform="translate(-273.96,-175.2)"
                 id="g30"><g
                   clip-path="url(#clipPath36)"
                   id="g32"><g
                     transform="translate(273.96,196.8)"
                     id="g38"><path
                       id="path40"
                       style="fill:none;stroke:#000000;stroke-width:0.49700001;stroke-linecap:round;stroke-linejoin:round;stroke-miterlimit:10;stroke-dasharray:none;stroke-opacity:1"
                       d="M 0,0 V 14.4" /></g></g></g></g></g></g><g
           transform="matrix(0.915,0,0,0.915,276.507,616.998)"
           id="g42"><path
             id="path44"
             style="fill:none;stroke:#000000;stroke-width:0.94400001;stroke-linecap:round;stroke-linejoin:round;stroke-miterlimit:10;stroke-dasharray:none;stroke-opacity:1"
             d="M 0,0 V -14.4" /><g
             transform="translate(0,-14.4)"
             id="g46"><path
               id="path48"
               style="fill:#000000;fill-opacity:1;fill-rule:evenodd;stroke:#000000;stroke-width:0.94400001;stroke-linecap:round;stroke-linejoin:round;stroke-miterlimit:10;stroke-dasharray:none;stroke-opacity:1"
               d="M 0,0 3,6 0,3 Z" /><path
               id="path50"
               style="fill:#000000;fill-opacity:1;fill-rule:evenodd;stroke:#000000;stroke-width:0.94400001;stroke-linecap:round;stroke-linejoin:round;stroke-miterlimit:10;stroke-dasharray:none;stroke-opacity:1"
               d="M 0,0 -3,6 0,3 Z" /><g
               transform="translate(-10.8,-100.8)"
               id="g52"><path
                 id="path54"
                 style="fill:none;stroke:#000000;stroke-width:0.49700001;stroke-linecap:round;stroke-linejoin:round;stroke-miterlimit:10;stroke-dasharray:none;stroke-opacity:1"
                 d="M 0,0 V -1.56 L 0.12,-1.8 V -1.92 L 0.24,-2.16 V -2.4 L 0.36,-2.64 V -3 L 0.48,-3.12 V -3.36 L 0.6,-3.48 V -3.84 L 0.72,-3.96 0.84,-4.2 V -4.32 L 0.96,-4.56 V -4.8 L 1.08,-4.92 1.2,-5.16 1.56,-5.52 v -0.24 l 0.6,-0.6 V -6.48 L 2.28,-6.6 2.4,-6.84 2.64,-7.08 C 3.441,-8.143 3.119,-7.482 3.96,-8.4 H 4.08 L 4.2,-8.52 4.32,-8.76 H 4.56 L 4.8,-9 H 4.92 L 5.16,-9.12 5.4,-9.36 H 5.52 L 5.76,-9.48 5.88,-9.6 H 6 L 6.12,-9.72 6.6,-9.96 h 0.12 l 0.12,-0.12 H 6.96 L 7.2,-10.2 h 0.36 l 0.12,-0.12 H 7.8 l 0.12,-0.12 c 0.625,0.027 0.064,-0.179 1.08,-0.12 h 0.24 l 0.12,-0.12 c 0.925,0.078 0.86,-0.147 1.44,-0.12 h 1.08 c 0.405,-0.032 0.714,0.097 1.08,0.24 h 0.24 c 0.43,0.009 0.834,0.355 1.2,0.36 h 0.12 L 15,-9.96 h 0.24 l 0.12,0.12 h 0.24 l 0.36,0.36 0.24,0.12 h 0.12 l 0.24,0.24 0.24,0.12 0.12,0.12 0.12,0.12 h 0.12 l 0.36,0.36 0.24,0.12 0.12,0.12 H 18 l 0.12,0.24 0.36,0.36 c 0.637,0.558 0.312,0.488 0.84,0.96 l 0.24,0.24 0.12,0.24 0.12,0.12 v 0.24 l 0.12,0.24 0.36,0.36 0.12,0.24 v 0.12 l 0.12,0.12 0.12,0.24 0.12,0.24 v 0.24 l 0.12,0.12 V -3.6 L 21,-3.48 v 0.36 L 21.12,-3 v 0.12 l 0.12,0.24 v 0.24 l 0.12,0.12 v 0.72 l 0.12,0.12 v 0.84 l 0.12,0.24 v 0.12 c 0,0.48 0,0.96 0,1.44 V 1.44 L 21.48,1.68 V 1.92 L 21.36,2.04 V 2.52 L 21.24,2.76 V 3 L 21.12,3.12 V 3.24 L 21,3.36 V 3.72 L 20.76,4.2 V 4.44 L 20.64,4.56 V 4.8 L 20.28,5.16 20.16,5.4 V 5.52 L 19.92,5.76 19.8,6 19.56,6.24 19.44,6.48 19.08,6.84 18.96,7.08 V 7.2 L 18.72,7.32 18.24,7.8 C 17.689,8.396 18.191,7.684 17.64,8.28 L 17.16,8.76 16.92,8.88 16.8,9 H 16.56 L 16.32,9.12 15.96,9.48 15.72,9.6 H 15.6 L 15.48,9.72 15.24,9.84 H 15 l -0.12,0.12 h -0.12 l -0.12,0.12 H 14.4 l -0.12,0.12 h -0.36 l -0.12,0.12 h -0.12 l -0.24,0.12 h -0.36 l -0.12,0.12 C 11.813,10.506 12.645,10.717 12,10.68 h -0.36 c -0.576,-0.042 -0.091,0.177 -0.96,0.12 H 9.24 L 9,10.68 H 8.88 L 8.64,10.56 H 8.4 L 8.16,10.44 H 7.8 L 7.68,10.32 H 7.56 L 7.32,10.2 H 6.96 L 6.84,10.08 6.6,9.96 H 6.48 L 6.36,9.84 H 6 L 5.76,9.6 5.52,9.48 5.28,9.24 C 4.973,9.293 4.77,8.937 4.56,8.76 L 4.44,8.64 H 4.32 L 4.2,8.52 3.96,8.4 C 3.76,8.2 3.56,8 3.36,7.8 L 3.12,7.68 3,7.56 V 7.44 L 2.4,6.84 V 6.72 L 2.16,6.48 2.04,6.24 1.92,6.12 1.8,6 V 5.88 L 1.68,5.64 1.56,5.52 V 5.4 L 1.44,5.28 1.32,5.04 1.2,4.92 V 4.8 L 1.08,4.68 0.84,4.2 V 4.08 L 0.72,3.96 V 3.84 L 0.6,3.6 V 3.24 L 0.48,3.12 V 3 L 0.36,2.88 V 2.4 L 0.24,2.28 V 2.04 C 0.282,0.89 0.076,2.103 0.12,0.96 V 0.6 L 0,0.36 Z" /><g
                 transform="translate(10.8,-10.8)"
                 id="g56"><path
                   id="path58"
                   style="fill:none;stroke:#000000;stroke-width:0.49700001;stroke-linecap:round;stroke-linejoin:round;stroke-miterlimit:10;stroke-dasharray:none;stroke-opacity:1"
                   d="M 0,0 V -14.4" /><g
                   transform="translate(0,21.6)"
                   id="g60"><path
                     id="path62"
                     style="fill:none;stroke:#000000;stroke-width:0.49700001;stroke-linecap:round;stroke-linejoin:round;stroke-miterlimit:10;stroke-dasharray:none;stroke-opacity:1"
                     d="M 0,0 V 14.4" /><g
                     transform="translate(0,-3.6)"
                     id="g64"><path
                       id="path66"
                       style="fill:none;stroke:#000000;stroke-width:0.94400001;stroke-linecap:round;stroke-linejoin:round;stroke-miterlimit:10;stroke-dasharray:none;stroke-opacity:1"
                       d="M 0,0 V -14.4" /><g
                       transform="translate(0,-14.4)"
                       id="g68"><path
                         id="path70"
                         style="fill:#000000;fill-opacity:1;fill-rule:evenodd;stroke:#000000;stroke-width:0.94400001;stroke-linecap:round;stroke-linejoin:round;stroke-miterlimit:10;stroke-dasharray:none;stroke-opacity:1"
                         d="M 0,0 3,6 0,3 Z" /><path
                         id="path72"
                         style="fill:#000000;fill-opacity:1;fill-rule:evenodd;stroke:#000000;stroke-width:0.94400001;stroke-linecap:round;stroke-linejoin:round;stroke-miterlimit:10;stroke-dasharray:none;stroke-opacity:1"
                         d="M 0,0 -3,6 0,3 Z" /><g
                         transform="translate(46.8,54)"
                         id="g74"><path
                           id="path76"
                           style="fill:none;stroke:#000000;stroke-width:0.49700001;stroke-linecap:round;stroke-linejoin:round;stroke-miterlimit:10;stroke-dasharray:none;stroke-opacity:1"
                           d="M 0,0 V -10.8" /><g
                           transform="translate(7.2,-10.8)"
                           id="g78"><path
                             id="path80"
                             style="fill:none;stroke:#000000;stroke-width:0.49700001;stroke-linecap:round;stroke-linejoin:round;stroke-miterlimit:10;stroke-dasharray:none;stroke-opacity:1"
                             d="M 0,0 H -14.4" /><g
                             transform="translate(-14.4,-3.6)"
                             id="g82"><path
                               id="path84"
                               style="fill:none;stroke:#000000;stroke-width:0.49700001;stroke-linecap:round;stroke-linejoin:round;stroke-miterlimit:10;stroke-dasharray:none;stroke-opacity:1"
                               d="M 0,0 H 14.4" /><g
                               transform="translate(7.2)"
                               id="g86"><path
                                 id="path88"
                                 style="fill:none;stroke:#000000;stroke-width:0.49700001;stroke-linecap:round;stroke-linejoin:round;stroke-miterlimit:10;stroke-dasharray:none;stroke-opacity:1"
                                 d="M 0,0 V -10.8" /><g
                                 transform="translate(0,-7.2)"
                                 id="g90"><path
                                   id="path92"
                                   style="fill:none;stroke:#000000;stroke-width:0.49700001;stroke-linecap:round;stroke-linejoin:round;stroke-miterlimit:10;stroke-dasharray:none;stroke-opacity:1"
                                   d="M 0,0 V -7.2" /><g
                                   transform="translate(-7.2,-7.2)"
                                   id="g94"><path
                                   id="path96"
                                   style="fill:none;stroke:#000000;stroke-width:0.49700001;stroke-linecap:round;stroke-linejoin:round;stroke-miterlimit:10;stroke-dasharray:none;stroke-opacity:1"
                                   d="M 0,0 H 14.4" /><path
                                   id="path98"
                                   style="fill:none;stroke:#000000;stroke-width:0.49700001;stroke-linecap:round;stroke-linejoin:round;stroke-miterlimit:10;stroke-dasharray:none;stroke-opacity:1"
                                   d="M 0,0 7.2,-7.2" /><g
                                   transform="translate(14.4)"
                                   id="g100"><path
                                   id="path102"
                                   style="fill:none;stroke:#000000;stroke-width:0.49700001;stroke-linecap:round;stroke-linejoin:round;stroke-miterlimit:10;stroke-dasharray:none;stroke-opacity:1"
                                   d="M 0,0 -7.2,-7.2" /><g
                                   transform="translate(-54,36)"
                                   id="g104"><path
                                   id="path106"
                                   style="fill:none;stroke:#000000;stroke-width:0.49700001;stroke-linecap:round;stroke-linejoin:round;stroke-miterlimit:10;stroke-dasharray:none;stroke-opacity:1"
                                   d="M 0,0 H 46.8 V -10.8" /><g
                                   transform="translate(-25.2,18)"
                                   id="g108"><path
                                   id="path110"
                                   style="fill:none;stroke:#000000;stroke-width:0.49700001;stroke-linecap:round;stroke-linejoin:round;stroke-miterlimit:10;stroke-dasharray:none;stroke-opacity:1"
                                   d="M 0,0 V -36" /><g
                                   transform="translate(0,-18)"
                                   id="g112"><path
                                   id="path114"
                                   style="fill:none;stroke:#000000;stroke-width:0.49700001;stroke-linecap:round;stroke-linejoin:round;stroke-miterlimit:10;stroke-dasharray:none;stroke-opacity:1"
                                   d="M 0,0 H -21.6" /><g
                                   transform="matrix(1.0928962,0,0,1.0928962,-276.99344,-613.11475)"
                                   id="g116"><text
                                   id="text120"
                                   style="font-variant:normal;font-weight:normal;font-size:9.1498003px;font-family:TimesLTStd;-inkscape-font-specification:TimesLTStd-Roman;writing-mode:lr-tb;fill:#000000;fill-opacity:1;fill-rule:nonzero;stroke:none"
                                   transform="matrix(1,0,0,-1,279.801,542.9928)"><tspan
                                   id="tspan118"
                                   y="0"
                                   x="0 8.1241074">M2</tspan></text>
<text
                                   id="text124"
                                   style="font-variant:normal;font-weight:normal;font-size:9.1498003px;font-family:TimesLTStd;-inkscape-font-specification:TimesLTStd-Roman;writing-mode:lr-tb;fill:#000000;fill-opacity:1;fill-rule:nonzero;stroke:none"
                                   transform="matrix(1,0,0,-1,279.801,575.93208)"><tspan
                                   id="tspan122"
                                   y="0"
                                   x="0 8.1241074">M3</tspan></text>
<g
                                   transform="matrix(0.915,0,0,0.915,309.447,564.294)"
                                   id="g126"><path
                                   id="path128"
                                   style="fill:none;stroke:#000000;stroke-width:0.94400001;stroke-linecap:round;stroke-linejoin:round;stroke-miterlimit:10;stroke-dasharray:none;stroke-opacity:1"
                                   d="M 0,0 10.8,14.4" /><g
                                   transform="translate(18,14.4)"
                                   id="g130"><path
                                   id="path132"
                                   style="fill:none;stroke:#000000;stroke-width:0.94400001;stroke-linecap:round;stroke-linejoin:round;stroke-miterlimit:10;stroke-dasharray:none;stroke-opacity:1"
                                   d="M 0,0 10.8,-14.4" /><g
                                   transform="translate(18,-14.4)"
                                   id="g134"><path
                                   id="path136"
                                   style="fill:none;stroke:#000000;stroke-width:0.94400001;stroke-linecap:round;stroke-linejoin:round;stroke-miterlimit:10;stroke-dasharray:none;stroke-opacity:1"
                                   d="M 0,0 10.8,14.4" /><g
                                   transform="translate(-25.2,-3.6)"
                                   id="g138"><path
                                   id="path140"
                                   style="fill:none;stroke:#000000;stroke-width:0.49700001;stroke-linecap:round;stroke-linejoin:round;stroke-miterlimit:10;stroke-dasharray:none;stroke-opacity:1"
                                   d="M 0,0 H 43.2 V 18" /><g
                                   transform="translate(43.2)"
                                   id="g142"><path
                                   id="path144"
                                   style="fill:none;stroke:#000000;stroke-width:0.49700001;stroke-linecap:round;stroke-linejoin:round;stroke-miterlimit:10;stroke-dasharray:none;stroke-opacity:1"
                                   d="M 0,0 V -18" /><g
                                   transform="translate(-44.64,-0.12)"
                                   id="g146"><path
                                   id="path148"
                                   style="fill:#000000;fill-opacity:1;fill-rule:evenodd;stroke:none"
                                   d="M 0,0 V 0.36 L 0.12,0.48 V 0.6 H 0.24 V 0.84 L 0.36,0.96 H 0.6 V 1.08 H 0.72 V 1.2 H 1.2 V 1.32 H 1.8 L 1.92,1.2 H 2.04 L 2.28,0.96 H 2.4 V 0.72 L 2.52,0.6 V 0.12 h 0.12 v -0.6 H 2.52 V -0.72 L 2.28,-0.96 H 2.04 V -1.08 H 1.8 V -1.2 H 1.44 V -1.32 H 0.96 L 0.72,-1.08 H 0.48 v 0.12 H 0.36 v 0.24 H 0.24 v 0.24 l -0.12,0.12 v 0.24 L 0,0" /><path
                                   id="path150"
                                   style="fill:none;stroke:#000000;stroke-width:0.49700001;stroke-linecap:round;stroke-linejoin:round;stroke-miterlimit:10;stroke-dasharray:none;stroke-opacity:1"
                                   d="M 0,0 V 0.36 L 0.12,0.48 V 0.6 H 0.24 V 0.84 L 0.36,0.96 H 0.6 V 1.08 H 0.72 V 1.2 H 1.2 V 1.32 H 1.8 L 1.92,1.2 H 2.04 L 2.28,0.96 H 2.4 V 0.72 L 2.52,0.6 V 0.12 h 0.12 v -0.6 H 2.52 V -0.72 L 2.28,-0.96 H 2.04 V -1.08 H 1.8 V -1.2 H 1.44 V -1.32 H 0.96 L 0.72,-1.08 H 0.48 v 0.12 H 0.36 v 0.24 H 0.24 v 0.24 l -0.12,0.12 v 0.24 z" /><g
                                   transform="translate(42.84,0.6)"
                                   id="g152"><path
                                   id="path154"
                                   style="fill:#000000;fill-opacity:1;fill-rule:evenodd;stroke:none"
                                   d="M 0,0 V 0.6 H 0.12 V 0.72 L 0.6,1.2 h 0.12 v 0.12 h 0.6 V 1.44 H 2.04 V 1.32 H 2.28 V 1.2 H 2.4 V 1.08 L 2.52,0.96 H 2.64 V 0.72 H 2.76 V 0.48 L 2.88,0.36 V 0.12 L 3,0 V -0.48 H 2.88 V -0.6 L 2.76,-0.72 V -0.84 L 2.52,-1.08 H 2.4 V -1.2 H 2.28 L 2.16,-1.32 v -0.12 h -0.6 v -0.12 h -0.6 v 0.12 H 0.84 L 0.72,-1.32 H 0.6 V -1.2 H 0.48 v 0.12 H 0.36 v 0.12 H 0.24 v 0.12 l -0.12,0.12 v 0.24 L 0,-0.48 V 0" /><path
                                   id="path156"
                                   style="fill:none;stroke:#000000;stroke-width:0.49700001;stroke-linecap:round;stroke-linejoin:round;stroke-miterlimit:10;stroke-dasharray:none;stroke-opacity:1"
                                   d="M 0,0 V 0.6 H 0.12 V 0.72 L 0.6,1.2 h 0.12 v 0.12 h 0.6 V 1.44 H 2.04 V 1.32 H 2.28 V 1.2 H 2.4 V 1.08 L 2.52,0.96 H 2.64 V 0.72 H 2.76 V 0.48 L 2.88,0.36 V 0.12 L 3,0 V -0.48 H 2.88 V -0.6 L 2.76,-0.72 V -0.84 L 2.52,-1.08 H 2.4 V -1.2 H 2.28 L 2.16,-1.32 v -0.12 h -0.6 v -0.12 h -0.6 v 0.12 H 0.84 L 0.72,-1.32 H 0.6 V -1.2 H 0.48 v 0.12 H 0.36 v 0.12 H 0.24 v 0.12 l -0.12,0.12 v 0.24 l -0.12,0 z" /><g
                                   transform="translate(-114.72)"
                                   id="g158"><path
                                   id="path160"
                                   style="fill:#000000;fill-opacity:1;fill-rule:evenodd;stroke:none"
                                   d="M 0,0 V 0.36 L 0.12,0.48 V 0.72 H 0.24 V 0.84 H 0.36 V 0.96 H 0.6 L 0.72,1.08 H 0.84 V 1.2 H 1.2 V 1.32 H 1.68 V 1.2 H 1.8 L 1.92,1.08 H 2.04 V 0.96 H 2.16 L 2.28,0.84 V 0.6 H 2.4 V 0.12 h 0.12 v -0.6 H 2.4 V -0.72 H 2.28 V -0.84 H 2.16 V -0.96 H 1.92 V -1.08 H 1.44 L 1.32,-1.2 h -0.6 v 0.12 H 0.48 v 0.12 l -0.12,0.12 v 0.12 l -0.24,0.24 v 0.36 L 0,0" /><path
                                   id="path162"
                                   style="fill:none;stroke:#000000;stroke-width:0.49700001;stroke-linecap:round;stroke-linejoin:round;stroke-miterlimit:10;stroke-dasharray:none;stroke-opacity:1"
                                   d="M 0,0 V 0.36 L 0.12,0.48 V 0.72 H 0.24 V 0.84 H 0.36 V 0.96 H 0.6 L 0.72,1.08 H 0.84 V 1.2 H 1.2 V 1.32 H 1.68 V 1.2 H 1.8 L 1.92,1.08 H 2.04 V 0.96 H 2.16 L 2.28,0.84 V 0.6 H 2.4 V 0.12 h 0.12 v -0.6 H 2.4 V -0.72 H 2.28 V -0.84 H 2.16 V -0.96 H 1.92 V -1.08 H 1.44 L 1.32,-1.2 h -0.6 v 0.12 H 0.48 v 0.12 l -0.12,0.12 v 0.12 l -0.24,0.24 v 0.36 z" /><g
                                   transform="translate(25.08)"
                                   id="g164"><path
                                   id="path166"
                                   style="fill:#000000;fill-opacity:1;fill-rule:evenodd;stroke:none"
                                   d="M 0,0 V 0.6 H 0.12 V 0.72 L 0.24,0.84 V 0.96 H 0.6 V 1.08 H 0.72 L 0.84,1.2 H 1.08 L 1.2,1.32 H 1.56 L 1.68,1.2 H 1.8 V 1.08 H 1.92 L 2.16,0.84 V 0.72 L 2.28,0.6 V 0.48 L 2.4,0.36 V -0.48 L 2.28,-0.6 V -0.72 L 2.16,-0.84 H 2.04 V -0.96 H 1.8 V -1.08 H 1.32 V -1.2 H 0.72 L 0.6,-1.08 H 0.48 L 0.24,-0.84 V -0.6 H 0.12 v 0.12 L 0,-0.36 V 0" /><path
                                   id="path168"
                                   style="fill:none;stroke:#000000;stroke-width:0.49700001;stroke-linecap:round;stroke-linejoin:round;stroke-miterlimit:10;stroke-dasharray:none;stroke-opacity:1"
                                   d="M 0,0 V 0.6 H 0.12 V 0.72 L 0.24,0.84 V 0.96 H 0.6 V 1.08 H 0.72 L 0.84,1.2 H 1.08 L 1.2,1.32 H 1.56 L 1.68,1.2 H 1.8 V 1.08 H 1.92 L 2.16,0.84 V 0.72 L 2.28,0.6 V 0.48 L 2.4,0.36 V -0.48 L 2.28,-0.6 V -0.72 L 2.16,-0.84 H 2.04 V -0.96 H 1.8 V -1.08 H 1.32 V -1.2 H 0.72 L 0.6,-1.08 H 0.48 L 0.24,-0.84 V -0.6 H 0.12 v 0.12 L 0,-0.36 Z" /><g
                                   transform="translate(48.24,17.52)"
                                   id="g170"><path
                                   id="path172"
                                   style="fill:none;stroke:#000000;stroke-width:0.94400001;stroke-linecap:round;stroke-linejoin:round;stroke-miterlimit:10;stroke-dasharray:none;stroke-opacity:1"
                                   d="M 0,0 H 7.2" /><g
                                   transform="translate(18,-14.4)"
                                   id="g174"><path
                                   id="path176"
                                   style="fill:none;stroke:#000000;stroke-width:0.94400001;stroke-linecap:round;stroke-linejoin:round;stroke-miterlimit:10;stroke-dasharray:none;stroke-opacity:1"
                                   d="M 0,0 H 7.2" /><g
                                   transform="translate(50.4,-3.6)"
                                   id="g178"><path
                                   id="path180"
                                   style="fill:none;stroke:#000000;stroke-width:0.49700001;stroke-linecap:round;stroke-linejoin:round;stroke-miterlimit:10;stroke-dasharray:none;stroke-opacity:1"
                                   d="M 0,0 V -7.2 H -10.8 V -28.8 H 0 V -36" /><g
                                   transform="translate(-14.4,-7.2)"
                                   id="g182"><path
                                   id="path184"
                                   style="fill:none;stroke:#000000;stroke-width:0.49700001;stroke-linecap:round;stroke-linejoin:round;stroke-miterlimit:10;stroke-dasharray:none;stroke-opacity:1"
                                   d="M 0,0 V -21.6" /><g
                                   transform="translate(0,-10.8)"
                                   id="g186"><path
                                   id="path188"
                                   style="fill:none;stroke:#000000;stroke-width:0.49700001;stroke-linecap:round;stroke-linejoin:round;stroke-miterlimit:10;stroke-dasharray:none;stroke-opacity:1"
                                   d="M 0,0 H -10.8" /><g
                                   transform="translate(-100.8,18)"
                                   id="g190"><path
                                   id="path192"
                                   style="fill:none;stroke:#000000;stroke-width:0.49700001;stroke-linecap:round;stroke-linejoin:round;stroke-miterlimit:10;stroke-dasharray:none;stroke-opacity:1"
                                   d="M 0,0 V -7.2 H -10.8 V -28.8 H 0 V -36" /><g
                                   transform="translate(-14.4,-7.2)"
                                   id="g194"><path
                                   id="path196"
                                   style="fill:none;stroke:#000000;stroke-width:0.49700001;stroke-linecap:round;stroke-linejoin:round;stroke-miterlimit:10;stroke-dasharray:none;stroke-opacity:1"
                                   d="M 0,0 V -21.6" /><g
                                   transform="translate(0,-10.8)"
                                   id="g198"><path
                                   id="path200"
                                   style="fill:none;stroke:#000000;stroke-width:0.49700001;stroke-linecap:round;stroke-linejoin:round;stroke-miterlimit:10;stroke-dasharray:none;stroke-opacity:1"
                                   d="M 0,0 H -10.8" /><g
                                   transform="translate(14.4,54)"
                                   id="g202"><path
                                   id="path204"
                                   style="fill:none;stroke:#000000;stroke-width:0.49700001;stroke-linecap:round;stroke-linejoin:round;stroke-miterlimit:10;stroke-dasharray:none;stroke-opacity:1"
                                   d="M 0,0 V -7.2 H -10.8" /><g
                                   transform="translate(-10.92,-7.2)"
                                   id="g206"><path
                                   id="path208"
                                   style="fill:none;stroke:#000000;stroke-width:0.49700001;stroke-linecap:round;stroke-linejoin:round;stroke-miterlimit:10;stroke-dasharray:none;stroke-opacity:1"
                                   d="M 0,0 V -21.48" /><g
                                   transform="translate(0.12,-21.6)"
                                   id="g210"><path
                                   id="path212"
                                   style="fill:none;stroke:#000000;stroke-width:0.49700001;stroke-linecap:round;stroke-linejoin:round;stroke-miterlimit:10;stroke-dasharray:none;stroke-opacity:1"
                                   d="M 0,0 H 10.8 V -7.2" /><g
                                   transform="translate(-3.6,21.6)"
                                   id="g214"><path
                                   id="path216"
                                   style="fill:none;stroke:#000000;stroke-width:0.49700001;stroke-linecap:round;stroke-linejoin:round;stroke-miterlimit:10;stroke-dasharray:none;stroke-opacity:1"
                                   d="M 0,0 V -21.6" /><g
                                   transform="translate(-6.84,-10.8)"
                                   id="g218"><path
                                   id="path220"
                                   style="fill:none;stroke:#000000;stroke-width:0.49700001;stroke-linecap:round;stroke-linejoin:round;stroke-miterlimit:10;stroke-dasharray:none;stroke-opacity:1"
                                   d="M 0,0 H -3.96" /><g
                                   transform="translate(0,0.24)"
                                   id="g222"><path
                                   id="path224"
                                   style="fill:none;stroke:#000000;stroke-width:0.49700001;stroke-linecap:round;stroke-linejoin:round;stroke-miterlimit:10;stroke-dasharray:none;stroke-opacity:1"
                                   d="M 0,0 V 0.96 L 0.12,1.08 V 1.2 H 0.24 V 1.56 H 0.36 V 1.8 H 0.48 V 2.04 H 0.6 V 2.16 H 0.72 V 2.28 H 0.84 V 2.4 H 0.96 L 1.2,2.64 H 1.32 V 2.76 H 1.56 L 1.8,3 h 0.12 v 0.12 h 0.12 v 0.12 h 0.48 v 0.12 h 0.72 v 0.12 h 0.12 c 0.32,0 0.64,0 0.96,0 H 4.44 V 3.36 H 4.8 V 3.24 H 5.04 V 3.12 H 5.28 L 5.4,3 H 5.64 V 2.88 L 5.76,2.76 H 5.88 V 2.64 H 6 V 2.4 H 6.12 L 6.24,2.28 V 2.16 L 6.36,2.04 V 1.8 H 6.48 L 6.6,1.68 V 1.56 H 6.72 V 1.44 H 6.84 V 0.96 L 6.96,0.84 V 0.24 L 7.08,0.12 V -0.84 L 6.96,-0.96 V -1.2 L 6.84,-1.32 V -1.56 H 6.72 V -1.8 H 6.6 V -2.04 H 6.48 V -2.16 H 6.36 V -2.28 H 6.24 V -2.4 H 6.12 V -2.52 H 6 V -2.64 H 5.88 L 5.76,-2.76 H 5.64 V -2.88 H 5.4 V -3 H 5.28 L 5.16,-3.12 H 5.04 V -3.24 H 4.8 V -3.36 H 4.44 L 4.32,-3.48 H 3.84 L 3.72,-3.6 H 3.6 c -0.24,0 -0.48,0 -0.72,0 H 2.64 v 0.12 H 2.4 L 2.28,-3.36 H 2.04 v 0.12 H 1.8 L 1.56,-3 H 1.32 v 0.12 H 1.2 v 0.12 L 1.08,-2.64 H 0.96 v 0.12 L 0.84,-2.4 v 0.12 L 0.6,-2.04 V -1.8 H 0.48 l -0.12,0.12 v 0.12 H 0.24 v 0.48 l -0.12,0.12 v 0.12 H 0 v 0.12 c 0,0.2 0,0.4 0,0.6 z" /><g
                                   transform="translate(136.44,17.76)"
                                   id="g226"><path
                                   id="path228"
                                   style="fill:none;stroke:#000000;stroke-width:0.49700001;stroke-linecap:round;stroke-linejoin:round;stroke-miterlimit:10;stroke-dasharray:none;stroke-opacity:1"
                                   d="M 0,0 V -7.2 H -10.8" /><g
                                   transform="translate(-10.92,-7.2)"
                                   id="g230"><path
                                   id="path232"
                                   style="fill:none;stroke:#000000;stroke-width:0.49700001;stroke-linecap:round;stroke-linejoin:round;stroke-miterlimit:10;stroke-dasharray:none;stroke-opacity:1"
                                   d="M 0,0 V -21.48" /><g
                                   transform="translate(0.12,-21.6)"
                                   id="g234"><path
                                   id="path236"
                                   style="fill:none;stroke:#000000;stroke-width:0.49700001;stroke-linecap:round;stroke-linejoin:round;stroke-miterlimit:10;stroke-dasharray:none;stroke-opacity:1"
                                   d="M 0,0 H 10.8 V -7.2" /><g
                                   transform="translate(-3.6,21.6)"
                                   id="g238"><path
                                   id="path240"
                                   style="fill:none;stroke:#000000;stroke-width:0.49700001;stroke-linecap:round;stroke-linejoin:round;stroke-miterlimit:10;stroke-dasharray:none;stroke-opacity:1"
                                   d="M 0,0 V -21.6" /><g
                                   transform="translate(-6.84,-10.8)"
                                   id="g242"><path
                                   id="path244"
                                   style="fill:none;stroke:#000000;stroke-width:0.49700001;stroke-linecap:round;stroke-linejoin:round;stroke-miterlimit:10;stroke-dasharray:none;stroke-opacity:1"
                                   d="M 0,0 H -3.96" /><g
                                   transform="translate(0,0.24)"
                                   id="g246"><path
                                   id="path248"
                                   style="fill:none;stroke:#000000;stroke-width:0.49700001;stroke-linecap:round;stroke-linejoin:round;stroke-miterlimit:10;stroke-dasharray:none;stroke-opacity:1"
                                   d="M 0,0 V 0.96 L 0.12,1.08 V 1.2 H 0.24 V 1.56 H 0.36 V 1.8 H 0.48 V 2.04 H 0.6 V 2.16 H 0.72 V 2.28 H 0.84 V 2.4 H 0.96 L 1.2,2.64 H 1.32 V 2.76 H 1.56 L 1.8,3 h 0.12 v 0.12 h 0.12 v 0.12 h 0.48 v 0.12 h 0.72 v 0.12 h 0.12 c 0.32,0 0.64,0 0.96,0 H 4.44 V 3.36 H 4.8 V 3.24 H 5.04 V 3.12 H 5.28 L 5.4,3 H 5.64 V 2.88 L 5.76,2.76 H 5.88 V 2.64 H 6 V 2.4 H 6.12 L 6.24,2.28 V 2.16 L 6.36,2.04 V 1.8 H 6.48 L 6.6,1.68 V 1.56 H 6.72 V 1.44 H 6.84 V 0.96 L 6.96,0.84 V 0.24 L 7.08,0.12 V -0.84 L 6.96,-0.96 V -1.2 L 6.84,-1.32 V -1.56 H 6.72 V -1.8 H 6.6 V -2.04 H 6.48 V -2.16 H 6.36 V -2.28 H 6.24 V -2.4 H 6.12 V -2.52 H 6 V -2.64 H 5.88 L 5.76,-2.76 H 5.64 V -2.88 H 5.4 V -3 H 5.28 L 5.16,-3.12 H 5.04 V -3.24 H 4.8 V -3.36 H 4.44 L 4.32,-3.48 H 3.84 L 3.72,-3.6 H 3.6 c -0.24,0 -0.48,0 -0.72,0 H 2.64 v 0.12 H 2.4 L 2.28,-3.36 H 2.04 v 0.12 H 1.8 L 1.56,-3 H 1.32 v 0.12 H 1.2 v 0.12 L 1.08,-2.64 H 0.96 v 0.12 L 0.84,-2.4 v 0.12 L 0.6,-2.04 V -1.8 H 0.48 l -0.12,0.12 v 0.12 H 0.24 v 0.48 l -0.12,0.12 v 0.12 H 0 v 0.12 c 0,0.2 0,0.4 0,0.6 z" /><g
                                   transform="translate(-367.92,-150.24)"
                                   id="g250"><g
                                   clip-path="url(#clipPath256)"
                                   id="g252"><g
                                   transform="matrix(1.0929,0,0,1.0929,-28.233446,-481.11475)"
                                   id="g258"><text
                                   id="text262"
                                   style="font-style:italic;font-variant:normal;font-size:10.97999954px;font-family:TimesLTStd;-inkscape-font-specification:TimesLTStd-Italic;writing-mode:lr-tb;fill:#000000;fill-opacity:1;fill-rule:nonzero;stroke:none"
                                   transform="matrix(1,0,0,-1,291.1116,602.72356)"><tspan
                                   id="tspan260"
                                   y="0"
                                   x="0">I</tspan></text>
</g></g></g><g
                                   transform="translate(-367.92,-150.24)"
                                   id="g264"><g
                                   clip-path="url(#clipPath270)"
                                   id="g266"><g
                                   transform="matrix(1.0929,0,0,1.0929,-28.233446,-481.11475)"
                                   id="g272"><text
                                   id="text276"
                                   style="font-style:italic;font-variant:normal;font-size:7.31969976px;font-family:TimesLTStd;-inkscape-font-specification:TimesLTStd-Italic;writing-mode:lr-tb;fill:#000000;fill-opacity:1;fill-rule:nonzero;stroke:none"
                                   transform="matrix(1,0,0,-1,295.3938,601.40586)"><tspan
                                   id="tspan274"
                                   y="0"
                                   x="0">D</tspan></text>
</g></g></g></g></g></g></g></g></g></g></g></g></g></g></g></g></g></g></g></g></g></g></g></g></g></g></g></g></g></g></g></g></g></g></g></g></g></g></g></g></g></g></g></g></g></g></g></g></g></g></g><text
         id="text280"
         style="font-variant:normal;font-weight:normal;font-size:7.31969976px;font-family:TimesLTStd;-inkscape-font-specification:TimesLTStd-Roman;writing-mode:lr-tb;fill:#000000;fill-opacity:1;fill-rule:nonzero;stroke:none"
         transform="matrix(1,0,0,-1,300.663,601.4064)"><tspan
           id="tspan278"
           y="0"
           x="0">4</tspan></text>
<g
         transform="matrix(0.915,0,0,0.915,25.8336,440.22)"
         id="g282"><g
           clip-path="url(#clipPath288)"
           id="g284"><g
             transform="matrix(1.0929,0,0,1.0929,-28.233446,-481.11475)"
             id="g290"><text
               id="text294"
               style="font-style:italic;font-variant:normal;font-size:10.97999954px;font-family:TimesLTStd;-inkscape-font-specification:TimesLTStd-Italic;writing-mode:lr-tb;fill:#000000;fill-opacity:1;fill-rule:nonzero;stroke:none"
               transform="matrix(1,0,0,-1,292.0998,510.27156)"><tspan
                 id="tspan292"
                 y="0"
                 x="0">I</tspan></text>
</g></g></g><g
         transform="matrix(0.915,0,0,0.915,25.8336,440.22)"
         id="g296"><g
           clip-path="url(#clipPath302)"
           id="g298"><g
             transform="matrix(1.0929,0,0,1.0929,-28.233446,-481.11475)"
             id="g304"><text
               id="text308"
               style="font-style:italic;font-variant:normal;font-size:7.31969976px;font-family:TimesLTStd;-inkscape-font-specification:TimesLTStd-Italic;writing-mode:lr-tb;fill:#000000;fill-opacity:1;fill-rule:nonzero;stroke:none"
               transform="matrix(1,0,0,-1,296.382,508.95396)"><tspan
                 id="tspan306"
                 y="0"
                 x="0">D</tspan></text>
</g></g></g></g><text
       id="text312"
       style="font-variant:normal;font-weight:normal;font-size:7.31969976px;font-family:TimesLTStd;-inkscape-font-specification:TimesLTStd-Roman;writing-mode:lr-tb;fill:#000000;fill-opacity:1;fill-rule:nonzero;stroke:none"
       transform="matrix(1,0,0,-1,301.6512,508.9549)"><tspan
         id="tspan310"
         y="0"
         x="0">1</tspan></text>
<text
       id="text316"
       style="font-style:italic;font-variant:normal;font-size:10.97999954px;font-family:TimesLTStd;-inkscape-font-specification:TimesLTStd-Italic;writing-mode:lr-tb;fill:#000000;fill-opacity:1;fill-rule:nonzero;stroke:none"
       transform="matrix(1,0,0,-1,329.5404,537.7225)"><tspan
         id="tspan314"
         y="0"
         x="0">C</tspan></text>
<text
       id="text320"
       style="font-style:italic;font-variant:normal;font-size:7.31969976px;font-family:TimesLTStd;-inkscape-font-specification:TimesLTStd-Italic;writing-mode:lr-tb;fill:#000000;fill-opacity:1;fill-rule:nonzero;stroke:none"
       transform="matrix(1,0,0,-1,337.5558,536.4049)"><tspan
         id="tspan318"
         y="0"
         x="0 2.097826 5.8206253">tot</tspan></text>
</g></svg>