<?xml version="1.0" encoding="UTF-8" standalone="no"?>
<svg
   xmlns:dc="http://purl.org/dc/elements/1.1/"
   xmlns:cc="http://creativecommons.org/ns#"
   xmlns:rdf="http://www.w3.org/1999/02/22-rdf-syntax-ns#"
   xmlns:svg="http://www.w3.org/2000/svg"
   xmlns="http://www.w3.org/2000/svg"
   viewBox="0 0 636 382.66666"
   height="382.66666"
   width="636"
   xml:space="preserve"
   id="svg2"
   version="1.1"><metadata
     id="metadata8"><rdf:RDF><cc:Work
         rdf:about=""><dc:format>image/svg+xml</dc:format><dc:type
           rdf:resource="http://purl.org/dc/dcmitype/StillImage" /></cc:Work></rdf:RDF></metadata><defs
     id="defs6" /><g
     transform="matrix(1.3333333,0,0,-1.3333333,0,382.66667)"
     id="g10"><g
       transform="scale(0.1)"
       id="g12"><path
         id="path14"
         style="fill:none;stroke:#000000;stroke-width:9.75;stroke-linecap:round;stroke-linejoin:miter;stroke-miterlimit:6;stroke-dasharray:none;stroke-opacity:1"
         d="M 595,2350 V 2140" /><path
         id="path16"
         style="fill:none;stroke:#000000;stroke-width:9.75;stroke-linecap:round;stroke-linejoin:miter;stroke-miterlimit:6;stroke-dasharray:none;stroke-opacity:1"
         d="m 520,2245 h 15" /><path
         id="path18"
         style="fill:none;stroke:#000000;stroke-width:9.75;stroke-linecap:round;stroke-linejoin:miter;stroke-miterlimit:6;stroke-dasharray:none;stroke-opacity:1"
         d="M 760,2485 V 2350 H 640 v -210 h 120 v -135" /><path
         id="path20"
         style="fill:none;stroke:#000000;stroke-width:9.75;stroke-linecap:round;stroke-linejoin:miter;stroke-miterlimit:6;stroke-dasharray:none;stroke-opacity:1"
         d="m 595,2245 c 0,16.57 -13.434,30 -30,30 -16.566,0 -30,-13.43 -30,-30 0,-16.57 13.434,-30 30,-30 16.566,0 30,13.43 30,30" /><path
         id="path22"
         style="fill:none;stroke:#999999;stroke-width:9.75;stroke-linecap:round;stroke-linejoin:miter;stroke-miterlimit:6;stroke-dasharray:none;stroke-opacity:1"
         d="M 760,1225 V 1090 H 640 V 880 H 760 V 745" /><path
         id="path24"
         style="fill:none;stroke:#999999;stroke-width:9.75;stroke-linecap:round;stroke-linejoin:miter;stroke-miterlimit:6;stroke-dasharray:none;stroke-opacity:1"
         d="M 595,1090 V 880" /><path
         id="path26"
         style="fill:none;stroke:#999999;stroke-width:9.75;stroke-linecap:round;stroke-linejoin:miter;stroke-miterlimit:6;stroke-dasharray:none;stroke-opacity:1"
         d="m 520,985 h 75" /><path
         id="path28"
         style="fill:none;stroke:#999999;stroke-width:9.75;stroke-linecap:round;stroke-linejoin:miter;stroke-miterlimit:6;stroke-dasharray:none;stroke-opacity:1"
         d="M 760,640 V 745" /><path
         id="path30"
         style="fill:none;stroke:#999999;stroke-width:9.75;stroke-linecap:round;stroke-linejoin:miter;stroke-miterlimit:6;stroke-dasharray:none;stroke-opacity:1"
         d="M 760,370 V 265" /><path
         id="path32"
         style="fill:none;stroke:#999999;stroke-width:9.75;stroke-linecap:round;stroke-linejoin:miter;stroke-miterlimit:6;stroke-dasharray:none;stroke-opacity:1"
         d="m 760,640 -52.5,-22.5 105,-45 -105,-45 105,-45 -105,-45 105,-45 L 760,370" /><path
         id="path34"
         style="fill:none;stroke:#999999;stroke-width:9.75;stroke-linecap:round;stroke-linejoin:miter;stroke-miterlimit:6;stroke-dasharray:none;stroke-opacity:1"
         d="M 280,625 C 280,691.273 226.273,745 160,745 93.7266,745 40,691.273 40,625 40,558.727 93.7266,505 160,505 c 66.273,0 120,53.727 120,120" /><path
         id="path36"
         style="fill:none;stroke:#999999;stroke-width:9.75;stroke-linecap:round;stroke-linejoin:miter;stroke-miterlimit:6;stroke-dasharray:none;stroke-opacity:1"
         d="M 160,865 V 745" /><path
         id="path38"
         style="fill:none;stroke:#999999;stroke-width:9.75;stroke-linecap:round;stroke-linejoin:miter;stroke-miterlimit:6;stroke-dasharray:none;stroke-opacity:1"
         d="M 160,385 V 505" /><path
         id="path40"
         style="fill:none;stroke:#999999;stroke-width:7.80000019;stroke-linecap:round;stroke-linejoin:miter;stroke-miterlimit:6;stroke-dasharray:none;stroke-opacity:1"
         d="M 220,625 C 160,445 160,805 100,625" /><path
         id="path42"
         style="fill:none;stroke:#000000;stroke-width:9.75;stroke-linecap:round;stroke-linejoin:miter;stroke-miterlimit:6;stroke-dasharray:none;stroke-opacity:1"
         d="m 1660,925 c 0,66.273 -53.73,120 -120,120 -66.27,0 -120,-53.727 -120,-120 0,-66.273 53.73,-120 120,-120 66.27,0 120,53.727 120,120" /><path
         id="path44"
         style="fill:none;stroke:#000000;stroke-width:9.75;stroke-linecap:round;stroke-linejoin:miter;stroke-miterlimit:6;stroke-dasharray:none;stroke-opacity:1"
         d="M 1540,1165 V 1045" /><path
         id="path46"
         style="fill:none;stroke:#000000;stroke-width:9.75;stroke-linecap:round;stroke-linejoin:miter;stroke-miterlimit:6;stroke-dasharray:none;stroke-opacity:1"
         d="M 1540,685 V 805" /><path
         id="path48"
         style="fill:none;stroke:#000000;stroke-width:7.3125;stroke-linecap:round;stroke-linejoin:miter;stroke-miterlimit:6;stroke-dasharray:none;stroke-opacity:1"
         d="m 1540,895 v 105" /><path
         id="path50"
         style="fill:#000000;fill-opacity:1;fill-rule:evenodd;stroke:none"
         d="m 1516,934 c 15,-30 15,-39 24,-84 9,45 9,54 24,84 -18,-6 -30,-6 -48,0" /><path
         id="path52"
         style="fill:none;stroke:#999999;stroke-width:9.75;stroke-linecap:round;stroke-linejoin:miter;stroke-miterlimit:6;stroke-dasharray:none;stroke-opacity:1"
         d="M 160,145 V 265" /><path
         id="path54"
         style="fill:none;stroke:#999999;stroke-width:9.75;stroke-linecap:round;stroke-linejoin:miter;stroke-miterlimit:6;stroke-dasharray:none;stroke-opacity:1"
         d="M 280,145 H 40" /><path
         id="path56"
         style="fill:none;stroke:#999999;stroke-width:9.75;stroke-linecap:round;stroke-linejoin:miter;stroke-miterlimit:6;stroke-dasharray:none;stroke-opacity:1"
         d="M 227.5,92.5 H 92.5" /><path
         id="path58"
         style="fill:none;stroke:#999999;stroke-width:9.75;stroke-linecap:round;stroke-linejoin:miter;stroke-miterlimit:6;stroke-dasharray:none;stroke-opacity:1"
         d="M 175,40 H 145" /><path
         id="path60"
         style="fill:none;stroke:#999999;stroke-width:9.75;stroke-linecap:round;stroke-linejoin:miter;stroke-miterlimit:6;stroke-dasharray:none;stroke-opacity:1"
         d="M 760,145 V 265" /><path
         id="path62"
         style="fill:none;stroke:#999999;stroke-width:9.75;stroke-linecap:round;stroke-linejoin:miter;stroke-miterlimit:6;stroke-dasharray:none;stroke-opacity:1"
         d="M 880,145 H 640" /><path
         id="path64"
         style="fill:none;stroke:#999999;stroke-width:9.75;stroke-linecap:round;stroke-linejoin:miter;stroke-miterlimit:6;stroke-dasharray:none;stroke-opacity:1"
         d="m 827.5,92.5 h -135" /><path
         id="path66"
         style="fill:none;stroke:#999999;stroke-width:9.75;stroke-linecap:round;stroke-linejoin:miter;stroke-miterlimit:6;stroke-dasharray:none;stroke-opacity:1"
         d="M 775,40 H 745" /><path
         id="path68"
         style="fill:none;stroke:#000000;stroke-width:9.75;stroke-linecap:round;stroke-linejoin:miter;stroke-miterlimit:6;stroke-dasharray:none;stroke-opacity:1"
         d="M 1540,145 V 265" /><path
         id="path70"
         style="fill:none;stroke:#000000;stroke-width:9.75;stroke-linecap:round;stroke-linejoin:miter;stroke-miterlimit:6;stroke-dasharray:none;stroke-opacity:1"
         d="M 1660,145 H 1420" /><path
         id="path72"
         style="fill:none;stroke:#000000;stroke-width:9.75;stroke-linecap:round;stroke-linejoin:miter;stroke-miterlimit:6;stroke-dasharray:none;stroke-opacity:1"
         d="m 1607.5,92.5 h -135" /><path
         id="path74"
         style="fill:none;stroke:#000000;stroke-width:9.75;stroke-linecap:round;stroke-linejoin:miter;stroke-miterlimit:6;stroke-dasharray:none;stroke-opacity:1"
         d="m 1555,40 h -30" /><path
         id="path76"
         style="fill:none;stroke:#000000;stroke-width:9.75;stroke-linecap:round;stroke-linejoin:miter;stroke-miterlimit:6;stroke-dasharray:none;stroke-opacity:1"
         d="M 760,2725 V 2605" /><path
         id="path78"
         style="fill:none;stroke:#000000;stroke-width:9.75;stroke-linecap:round;stroke-linejoin:miter;stroke-miterlimit:6;stroke-dasharray:none;stroke-opacity:1"
         d="M 880,2725 H 640" /><g
         transform="scale(10)"
         id="g80"><text
           id="text84"
           style="font-variant:normal;font-weight:normal;font-size:13.5px;font-family:Times;-inkscape-font-specification:Times-Roman;writing-mode:lr-tb;fill:#000000;fill-opacity:1;fill-rule:nonzero;stroke:none"
           transform="matrix(1,0,0,-1,64.5578,274.75)"><tspan
             id="tspan82"
             y="0"
             x="0 9.7469997 16.497">Vdd</tspan></text>
</g><path
         id="path86"
         style="fill:none;stroke:#999999;stroke-width:9.75;stroke-linecap:round;stroke-linejoin:miter;stroke-miterlimit:6;stroke-dasharray:none;stroke-opacity:1"
         d="M 580,985 H 160 V 865" /><path
         id="path88"
         style="fill:none;stroke:#000000;stroke-width:9.75;stroke-linecap:round;stroke-linejoin:miter;stroke-miterlimit:6;stroke-dasharray:none;stroke-opacity:1"
         d="M 760,2005 V 1885 H 400 v 360 h 120" /><path
         id="path90"
         style="fill:none;stroke:#000000;stroke-width:9.75;stroke-linecap:round;stroke-linejoin:miter;stroke-miterlimit:6;stroke-dasharray:none;stroke-opacity:1"
         d="m 760,1225 v 660" /><path
         id="path92"
         style="fill:none;stroke:#000000;stroke-width:9.75;stroke-linecap:round;stroke-linejoin:miter;stroke-miterlimit:6;stroke-dasharray:none;stroke-opacity:1"
         d="m 760,1525 h 780 v -360" /><path
         id="path94"
         style="fill:#000000;fill-opacity:1;fill-rule:evenodd;stroke:none"
         d="m 782.5,1885 c 0,12.43 -10.074,22.5 -22.5,22.5 -12.426,0 -22.5,-10.07 -22.5,-22.5 0,-12.43 10.074,-22.5 22.5,-22.5 12.426,0 22.5,10.07 22.5,22.5" /><path
         id="path96"
         style="fill:#000000;fill-opacity:1;fill-rule:evenodd;stroke:none"
         d="m 782.5,1525 c 0,12.43 -10.074,22.5 -22.5,22.5 -12.426,0 -22.5,-10.07 -22.5,-22.5 0,-12.43 10.074,-22.5 22.5,-22.5 12.426,0 22.5,10.07 22.5,22.5" /><path
         id="path98"
         style="fill:none;stroke:#000000;stroke-width:9.75;stroke-linecap:round;stroke-linejoin:miter;stroke-miterlimit:6;stroke-dasharray:none;stroke-opacity:1"
         d="M 760,2605 V 2485" /><g
         transform="scale(10)"
         id="g100"><text
           id="text104"
           style="font-variant:normal;font-weight:normal;font-size:15px;font-family:Helvetica;-inkscape-font-specification:Helvetica;writing-mode:lr-tb;fill:#000000;fill-opacity:1;fill-rule:nonzero;stroke:none"
           transform="matrix(1,0,0,-1,176.502,92.5)"><tspan
             id="tspan102"
             y="0"
             x="0">I</tspan></text>
<text
           id="text108"
           style="font-variant:normal;font-weight:normal;font-size:10.05000019px;font-family:Helvetica;-inkscape-font-specification:Helvetica;writing-mode:lr-tb;fill:#000000;fill-opacity:1;fill-rule:nonzero;stroke:none"
           transform="matrix(1,0,0,-1,180.67192,89.18359)"><tspan
             id="tspan106"
             y="0"
             x="0 5.0250001 10.6128 16.2006 21.225599 24.019501 29.6073 35.195099">constant</tspan></text>
</g><path
         id="path110"
         style="fill:none;stroke:#999999;stroke-width:7.80000019;stroke-linecap:round;stroke-linejoin:miter;stroke-miterlimit:6;stroke-dasharray:none;stroke-opacity:1"
         d="m 940,910 v 225" /><path
         id="path112"
         style="fill:#999999;fill-opacity:1;fill-rule:evenodd;stroke:none"
         d="m 970,940 c -18.75,-37.5 -18.75,-48.75 -30,-105 -11.25,56.25 -11.25,67.5 -30,105 22.5,-7.5 37.5,-7.5 60,0" /><path
         id="path114"
         style="fill:none;stroke:#000000;stroke-width:7.80000019;stroke-linecap:round;stroke-linejoin:miter;stroke-miterlimit:6;stroke-dasharray:none;stroke-opacity:1"
         d="m 940,2110 v 225" /><path
         id="path116"
         style="fill:#000000;fill-opacity:1;fill-rule:evenodd;stroke:none"
         d="m 970,2140 c -18.75,-37.5 -18.75,-48.75 -30,-105 -11.25,56.25 -11.25,67.5 -30,105 22.5,-7.5 37.5,-7.5 60,0" /><g
         transform="scale(10)"
         id="g118"><text
           id="text122"
           style="font-variant:normal;font-weight:normal;font-size:15px;font-family:Helvetica;-inkscape-font-specification:Helvetica;writing-mode:lr-tb;fill:#999999;fill-opacity:1;fill-rule:nonzero;stroke:none"
           transform="matrix(1,0,0,-1,98.5016,98.5)"><tspan
             id="tspan120"
             y="0"
             x="0">I</tspan></text>
<text
           id="text126"
           style="font-variant:normal;font-weight:normal;font-size:10.05000019px;font-family:Helvetica;-inkscape-font-specification:Helvetica;writing-mode:lr-tb;fill:#999999;fill-opacity:1;fill-rule:nonzero;stroke:none"
           transform="matrix(1,0,0,-1,102.67152,95.18359)"><tspan
             id="tspan124"
             y="0"
             x="0 6.7033501 13.95945 21.215549">VCCS</tspan></text>
</g><path
         id="path128"
         style="fill:none;stroke:#999999;stroke-width:9.75;stroke-linecap:round;stroke-linejoin:miter;stroke-miterlimit:6;stroke-dasharray:none;stroke-opacity:1"
         d="M 160,445 V 265" /><path
         id="path130"
         style="fill:none;stroke:#000000;stroke-width:9.75;stroke-linecap:round;stroke-linejoin:miter;stroke-miterlimit:6;stroke-dasharray:none;stroke-opacity:1"
         d="M 1540,685 V 265" /><g
         transform="scale(10)"
         id="g132"><text
           id="text136"
           style="font-variant:normal;font-weight:normal;font-size:15px;font-family:Helvetica;-inkscape-font-specification:Helvetica;writing-mode:lr-tb;fill:#999999;fill-opacity:1;fill-rule:nonzero;stroke:none"
           transform="matrix(1,0,0,-1,104.502,218.5)"><tspan
             id="tspan134"
             y="0"
             x="0">I</tspan></text>
<text
           id="text140"
           style="font-variant:normal;font-weight:normal;font-size:10.05000019px;font-family:Helvetica;-inkscape-font-specification:Helvetica;writing-mode:lr-tb;fill:#999999;fill-opacity:1;fill-rule:nonzero;stroke:none"
           transform="matrix(1,0,0,-1,108.67192,215.18359)"><tspan
             id="tspan138"
             y="0"
             x="0 6.7033501 13.95945 21.215549">VCCS</tspan></text>
</g><g
         transform="scale(10)"
         id="g142"><text
           id="text146"
           style="font-variant:normal;font-weight:normal;font-size:15px;font-family:Helvetica;-inkscape-font-specification:Helvetica;writing-mode:lr-tb;fill:#000000;fill-opacity:1;fill-rule:nonzero;stroke:none"
           transform="matrix(1,0,0,-1,147.252,218.5)"><tspan
             id="tspan144"
             y="0"
             x="0 8.7600002 12.93">+ I</tspan></text>
<text
           id="text150"
           style="font-variant:normal;font-weight:normal;font-size:10.05000019px;font-family:Helvetica;-inkscape-font-specification:Helvetica;writing-mode:lr-tb;fill:#000000;fill-opacity:1;fill-rule:nonzero;stroke:none"
           transform="matrix(1,0,0,-1,164.352,215.18359)"><tspan
             id="tspan148"
             y="0"
             x="0 5.0250001 10.6128 16.2006 21.225599 24.019501 29.6073 35.195099">constant</tspan></text>
</g><path
         id="path152"
         style="fill:none;stroke:#000000;stroke-width:9.75;stroke-linecap:round;stroke-linejoin:miter;stroke-miterlimit:6;stroke-dasharray:none;stroke-opacity:1"
         d="M 2680,1465 H 2440" /><path
         id="path154"
         style="fill:none;stroke:#000000;stroke-width:9.75;stroke-linecap:round;stroke-linejoin:miter;stroke-miterlimit:6;stroke-dasharray:none;stroke-opacity:1"
         d="M 2680,1405 H 2440" /><path
         id="path156"
         style="fill:none;stroke:#000000;stroke-width:9.75;stroke-linecap:round;stroke-linejoin:miter;stroke-miterlimit:6;stroke-dasharray:none;stroke-opacity:1"
         d="M 2680,1345 H 2440" /><path
         id="path158"
         style="fill:none;stroke:#000000;stroke-width:9.75;stroke-linecap:round;stroke-linejoin:miter;stroke-miterlimit:6;stroke-dasharray:none;stroke-opacity:1"
         d="M 3535,2350 V 2140" /><path
         id="path160"
         style="fill:none;stroke:#000000;stroke-width:9.75;stroke-linecap:round;stroke-linejoin:miter;stroke-miterlimit:6;stroke-dasharray:none;stroke-opacity:1"
         d="m 3460,2245 h 15" /><path
         id="path162"
         style="fill:none;stroke:#000000;stroke-width:9.75;stroke-linecap:round;stroke-linejoin:miter;stroke-miterlimit:6;stroke-dasharray:none;stroke-opacity:1"
         d="m 3700,2485 v -135 h -120 v -210 h 120 v -135" /><path
         id="path164"
         style="fill:none;stroke:#000000;stroke-width:9.75;stroke-linecap:round;stroke-linejoin:miter;stroke-miterlimit:6;stroke-dasharray:none;stroke-opacity:1"
         d="m 3535,2245 c 0,16.57 -13.43,30 -30,30 -16.57,0 -30,-13.43 -30,-30 0,-16.57 13.43,-30 30,-30 16.57,0 30,13.43 30,30" /><path
         id="path166"
         style="fill:none;stroke:#000000;stroke-width:9.75;stroke-linecap:round;stroke-linejoin:miter;stroke-miterlimit:6;stroke-dasharray:none;stroke-opacity:1"
         d="M 3700,2725 V 2605" /><path
         id="path168"
         style="fill:none;stroke:#000000;stroke-width:9.75;stroke-linecap:round;stroke-linejoin:miter;stroke-miterlimit:6;stroke-dasharray:none;stroke-opacity:1"
         d="M 3820,2725 H 3580" /><g
         transform="scale(10)"
         id="g170"><text
           id="text174"
           style="font-variant:normal;font-weight:normal;font-size:13.5px;font-family:Times;-inkscape-font-specification:Times-Roman;writing-mode:lr-tb;fill:#000000;fill-opacity:1;fill-rule:nonzero;stroke:none"
           transform="matrix(1,0,0,-1,358.558,274.75)"><tspan
             id="tspan172"
             y="0"
             x="0 9.7469997 16.497">Vdd</tspan></text>
</g><path
         id="path176"
         style="fill:none;stroke:#000000;stroke-width:9.75;stroke-linecap:round;stroke-linejoin:miter;stroke-miterlimit:6;stroke-dasharray:none;stroke-opacity:1"
         d="m 3700,2005 v -120 h -360 v 360 h 120" /><path
         id="path178"
         style="fill:none;stroke:#000000;stroke-width:9.75;stroke-linecap:round;stroke-linejoin:miter;stroke-miterlimit:6;stroke-dasharray:none;stroke-opacity:1"
         d="m 3700,1225 v 660" /><path
         id="path180"
         style="fill:#000000;fill-opacity:1;fill-rule:evenodd;stroke:none"
         d="m 3722.5,1885 c 0,12.43 -10.07,22.5 -22.5,22.5 -12.43,0 -22.5,-10.07 -22.5,-22.5 0,-12.43 10.07,-22.5 22.5,-22.5 12.43,0 22.5,10.07 22.5,22.5" /><path
         id="path182"
         style="fill:none;stroke:#000000;stroke-width:9.75;stroke-linecap:round;stroke-linejoin:miter;stroke-miterlimit:6;stroke-dasharray:none;stroke-opacity:1"
         d="M 3700,2605 V 2485" /><path
         id="path184"
         style="fill:none;stroke:#000000;stroke-width:9.75;stroke-linecap:round;stroke-linejoin:miter;stroke-miterlimit:6;stroke-dasharray:none;stroke-opacity:1"
         d="m 3700,1120 v 105" /><path
         id="path186"
         style="fill:none;stroke:#000000;stroke-width:9.75;stroke-linecap:round;stroke-linejoin:miter;stroke-miterlimit:6;stroke-dasharray:none;stroke-opacity:1"
         d="M 3700,850 V 745" /><path
         id="path188"
         style="fill:none;stroke:#000000;stroke-width:9.75;stroke-linecap:round;stroke-linejoin:miter;stroke-miterlimit:6;stroke-dasharray:none;stroke-opacity:1"
         d="m 3700,1120 -52.5,-22.5 105,-45 -105,-45 105,-45 -105,-45 105,-45 L 3700,850" /><path
         id="path190"
         style="fill:none;stroke:#000000;stroke-width:9.75;stroke-linecap:round;stroke-linejoin:miter;stroke-miterlimit:6;stroke-dasharray:none;stroke-opacity:1"
         d="M 3700,625 V 745" /><path
         id="path192"
         style="fill:none;stroke:#000000;stroke-width:9.75;stroke-linecap:round;stroke-linejoin:miter;stroke-miterlimit:6;stroke-dasharray:none;stroke-opacity:1"
         d="M 3820,625 H 3580" /><path
         id="path194"
         style="fill:none;stroke:#000000;stroke-width:9.75;stroke-linecap:round;stroke-linejoin:miter;stroke-miterlimit:6;stroke-dasharray:none;stroke-opacity:1"
         d="m 3767.5,572.5 h -135" /><path
         id="path196"
         style="fill:none;stroke:#000000;stroke-width:9.75;stroke-linecap:round;stroke-linejoin:miter;stroke-miterlimit:6;stroke-dasharray:none;stroke-opacity:1"
         d="m 3715,520 h -30" /><path
         id="path198"
         style="fill:none;stroke:#000000;stroke-width:7.80000019;stroke-linecap:round;stroke-linejoin:miter;stroke-miterlimit:6;stroke-dasharray:none;stroke-opacity:1"
         d="m 3880,1570 v 225" /><path
         id="path200"
         style="fill:#000000;fill-opacity:1;fill-rule:evenodd;stroke:none"
         d="m 3910,1600 c -18.75,-37.5 -18.75,-48.75 -30,-105 -11.25,56.25 -11.25,67.5 -30,105 22.5,-7.5 37.5,-7.5 60,0" /><g
         transform="scale(10)"
         id="g202"><text
           id="text206"
           style="font-variant:normal;font-weight:normal;font-size:15px;font-family:Helvetica;-inkscape-font-specification:Helvetica;writing-mode:lr-tb;fill:#000000;fill-opacity:1;fill-rule:nonzero;stroke:none"
           transform="matrix(1,0,0,-1,398.502,164.5)"><tspan
             id="tspan204"
             y="0"
             x="0">I</tspan></text>
<text
           id="text210"
           style="font-variant:normal;font-weight:normal;font-size:10.05000019px;font-family:Helvetica;-inkscape-font-specification:Helvetica;writing-mode:lr-tb;fill:#000000;fill-opacity:1;fill-rule:nonzero;stroke:none"
           transform="matrix(1,0,0,-1,402.67192,161.18359)"><tspan
             id="tspan208"
             y="0"
             x="0 5.0250001 10.6128 16.2006 21.225599 24.019501 29.6073 35.195099">constant</tspan></text>
</g><g
         transform="scale(10)"
         id="g212"><text
           id="text218"
           style="font-variant:normal;font-weight:normal;font-size:15px;font-family:Helvetica;-inkscape-font-specification:Helvetica;writing-mode:lr-tb;fill:#ff0000;fill-opacity:1;fill-rule:nonzero;stroke:none"
           transform="matrix(1,0,0,-1,297.281,32.5)"><tspan
             id="tspan214"
             y="0"
             x="0 10.83 19.17 27.51 35.009998 39.18 47.52 55.860001 60.029999 64.199997 75.029999 83.370003 88.364998 93.360001 101.7 110.04 114.21 118.38 121.71 125.88 130.05 137.55 145.89 154.23 162.57001 165.89999">Constant Current if supply</tspan><tspan
             id="tspan216"
             y="18"
             x="47.729698 51.0597 58.5597 62.729698 66.899696 70.229698 77.729698 86.069702">is fixed</tspan></text>
</g></g></g></svg>