<?xml version="1.0" encoding="UTF-8" standalone="no"?>
<svg
   viewBox="0 0 524 248"
   height="248"
   width="524"
   xml:space="preserve"
   id="svg2"
   version="1.1"
   xmlns="http://www.w3.org/2000/svg"
   xmlns:svg="http://www.w3.org/2000/svg"
   xmlns:rdf="http://www.w3.org/1999/02/22-rdf-syntax-ns#"
   xmlns:cc="http://creativecommons.org/ns#"
   xmlns:dc="http://purl.org/dc/elements/1.1/"><metadata
     id="metadata8"><rdf:RDF><cc:Work
         rdf:about=""><dc:format>image/svg+xml</dc:format><dc:type
           rdf:resource="http://purl.org/dc/dcmitype/StillImage" /></cc:Work></rdf:RDF></metadata><defs
     id="defs6"><clipPath
       id="clipPath14"
       clipPathUnits="userSpaceOnUse"><path
         id="path12"
         d="m 114,495.6 h 393 v 186 H 114 Z" /></clipPath><clipPath
       id="clipPath24"
       clipPathUnits="userSpaceOnUse"><path
         id="path22"
         d="m 441.48,276 h 5.16 v 13.68 h -5.16 z" /></clipPath><filter
       style="color-interpolation-filters:sRGB"
       id="filter2"
       x="-0.00055398617"
       y="-0.001302039"
       width="1.000554"
       height="1.001302"><feColorMatrix
         type="hueRotate"
         values="180"
         result="color1"
         id="feColorMatrix1" /><feColorMatrix
         values="-1 0 0 0 1 0 -1 0 0 1 0 0 -1 0 1 0.21 0.72 0.07 1 0 "
         result="color2"
         id="feColorMatrix2" /></filter></defs><g
     clip-path="url(#clipPath14)"
     transform="matrix(1.3333333,0,0,-1.3333333,-152,908.8)"
     id="g10"
     style="filter:url(#filter2)"><g
   id="g16"><g
     transform="matrix(0.915,0,0,0.915,30.932138,378.46784)"
     id="g18"><g
       clip-path="url(#clipPath24)"
       id="g20"><g
         transform="matrix(1.0929,0,0,1.0929,-33.805619,-413.62605)"
         id="g26"><text
   id="text30"
   style="font-style:italic;font-variant:normal;font-size:10.98px;font-family:TimesLTStd;-inkscape-font-specification:TimesLTStd-Italic;writing-mode:lr-tb;fill:#000000;fill-opacity:1;fill-rule:nonzero;stroke:none"
   transform="matrix(1,0,0,-1,434.88802,633.64311)"><tspan
     id="tspan28"
     y="0"
     x="0">I</tspan></text>
</g></g></g></g><text
   id="text34"
   style="font-style:italic;font-variant:normal;font-size:7.3197px;font-family:TimesLTStd;-inkscape-font-specification:TimesLTStd-Italic;writing-mode:lr-tb;fill:#000000;fill-opacity:1;fill-rule:nonzero;stroke:none"
   transform="matrix(1,0,0,-1,439.16854,632.32554)"><tspan
     id="tspan32"
     y="0"
     x="0">O</tspan></text>
<text
   id="text38"
   style="font-style:italic;font-variant:normal;font-size:10.98px;font-family:TimesLTStd;-inkscape-font-specification:TimesLTStd-Italic;writing-mode:lr-tb;fill:#000000;fill-opacity:1;fill-rule:nonzero;stroke:none"
   transform="matrix(1,0,0,-1,483.41794,597.51894)"><tspan
     id="tspan36"
     y="0"
     x="0">V</tspan></text>
<text
   id="text42"
   style="font-style:italic;font-variant:normal;font-size:7.3197px;font-family:TimesLTStd;-inkscape-font-specification:TimesLTStd-Italic;writing-mode:lr-tb;fill:#000000;fill-opacity:1;fill-rule:nonzero;stroke:none"
   transform="matrix(1,0,0,-1,490.77444,596.20134)"><tspan
     id="tspan40"
     y="0"
     x="0">O</tspan></text>
<text
   id="text46"
   style="font-style:italic;font-variant:normal;font-size:10.98px;font-family:TimesLTStd;-inkscape-font-specification:TimesLTStd-Italic;writing-mode:lr-tb;fill:#000000;fill-opacity:1;fill-rule:nonzero;stroke:none"
   transform="matrix(1,0,0,-1,231.64654,641.65844)"><tspan
     id="tspan44"
     y="0"
     x="0">V</tspan></text>
<text
   id="text50"
   style="font-style:italic;font-variant:normal;font-size:7.3197px;font-family:TimesLTStd;-inkscape-font-specification:TimesLTStd-Italic;writing-mode:lr-tb;fill:#000000;fill-opacity:1;fill-rule:nonzero;stroke:none"
   transform="matrix(1,0,0,-1,239.00314,640.34084)"><tspan
     id="tspan48"
     y="0"
     x="0 3.7279232 5.830873 9.5587959">bias</tspan></text>
<text
   id="text54"
   style="font-style:italic;font-variant:normal;font-size:7.3197px;font-family:TimesLTStd;-inkscape-font-specification:TimesLTStd-Italic;writing-mode:lr-tb;fill:#000000;fill-opacity:1;fill-rule:nonzero;stroke:none"
   transform="matrix(1,0,0,-1,251.41881,640.34084)"><tspan
     id="tspan52"
     y="0"
     x="0">p</tspan></text>
<g
   transform="matrix(0.915,0,0,0.915,30.932138,378.46784)"
   id="g56"><path
     id="path58"
     style="fill:none;stroke:#000000;stroke-width:0.447;stroke-linecap:round;stroke-linejoin:round;stroke-miterlimit:10;stroke-dasharray:none;stroke-opacity:1"
     d="m 104.64,292.56 h 82.8 v -46.8 h -82.8 z" /><g
     transform="translate(133.44,303.24)"
     id="g60"><path
       id="path62"
       style="fill:none;stroke:#000000;stroke-width:0.447;stroke-linecap:round;stroke-linejoin:round;stroke-miterlimit:10;stroke-dasharray:none;stroke-opacity:1"
       d="M 0,0 H 21.6" /><g
       transform="translate(10.8,-10.8)"
       id="g64"><path
         id="path66"
         style="fill:none;stroke:#000000;stroke-width:0.447;stroke-linecap:round;stroke-linejoin:round;stroke-miterlimit:10;stroke-dasharray:none;stroke-opacity:1"
         d="M 0,0 V 10.8" /><g
         transform="matrix(1.0928962,0,0,1.0928962,-178.04562,-706.06605)"
         id="g68"><text
   id="text72"
   style="font-style:italic;font-variant:normal;font-size:10.0647px;font-family:TimesLTStd;-inkscape-font-specification:TimesLTStd-Italic;writing-mode:lr-tb;fill:#000000;fill-opacity:1;fill-rule:nonzero;stroke:none"
   transform="matrix(1,0,0,-1,153.02974,659.44604)"><tspan
     id="tspan70"
     y="0"
     x="0 6.0287552 13.174692">VDD</tspan></text>
<g
   transform="matrix(0.915,0,0,0.915,162.91174,603.33824)"
   id="g74"><path
     id="path76"
     style="fill:none;stroke:#000000;stroke-width:0.447;stroke-linecap:round;stroke-linejoin:round;stroke-miterlimit:10;stroke-dasharray:none;stroke-opacity:1"
     d="M 0,0 V -7.2" /><g
     transform="translate(-7.2,-7.2)"
     id="g78"><path
       id="path80"
       style="fill:none;stroke:#000000;stroke-width:0.447;stroke-linecap:round;stroke-linejoin:round;stroke-miterlimit:10;stroke-dasharray:none;stroke-opacity:1"
       d="M 0,0 H 14.4" /><path
       id="path82"
       style="fill:none;stroke:#000000;stroke-width:0.447;stroke-linecap:round;stroke-linejoin:round;stroke-miterlimit:10;stroke-dasharray:none;stroke-opacity:1"
       d="M 0,0 7.2,-7.2" /><g
       transform="translate(14.4)"
       id="g84"><path
         id="path86"
         style="fill:none;stroke:#000000;stroke-width:0.447;stroke-linecap:round;stroke-linejoin:round;stroke-miterlimit:10;stroke-dasharray:none;stroke-opacity:1"
         d="M 0,0 -7.2,-7.2" /><g
         transform="translate(262.8,-44.04)"
         id="g88"><path
           id="path90"
           style="fill:none;stroke:#000000;stroke-width:0.447;stroke-linecap:round;stroke-linejoin:round;stroke-miterlimit:10;stroke-dasharray:none;stroke-opacity:1"
           d="M 0,0 V -7.2 H -10.8 V -28.8 H 0 V -36" /><g
           transform="translate(-14.4,-7.2)"
           id="g92"><path
             id="path94"
             style="fill:none;stroke:#000000;stroke-width:0.447;stroke-linecap:round;stroke-linejoin:round;stroke-miterlimit:10;stroke-dasharray:none;stroke-opacity:1"
             d="M 0,0 V -21.6" /><g
             transform="translate(0,-10.8)"
             id="g96"><path
               id="path98"
               style="fill:none;stroke:#000000;stroke-width:0.447;stroke-linecap:round;stroke-linejoin:round;stroke-miterlimit:10;stroke-dasharray:none;stroke-opacity:1"
               d="M 0,0 H -10.8" /><g
               transform="translate(14.4,-14.4)"
               id="g100"><path
                 id="path102"
                 style="fill:none;stroke:#000000;stroke-width:0.447;stroke-linecap:round;stroke-linejoin:round;stroke-miterlimit:10;stroke-dasharray:none;stroke-opacity:1"
                 d="M 0,0 V -7.2" /><g
                 transform="translate(-7.2,-7.2)"
                 id="g104"><path
                   id="path106"
                   style="fill:none;stroke:#000000;stroke-width:0.447;stroke-linecap:round;stroke-linejoin:round;stroke-miterlimit:10;stroke-dasharray:none;stroke-opacity:1"
                   d="M 0,0 H 14.4" /><path
                   id="path108"
                   style="fill:none;stroke:#000000;stroke-width:0.447;stroke-linecap:round;stroke-linejoin:round;stroke-miterlimit:10;stroke-dasharray:none;stroke-opacity:1"
                   d="M 0,0 7.2,-7.2" /><g
                   transform="translate(14.4)"
                   id="g110"><path
                     id="path112"
                     style="fill:none;stroke:#000000;stroke-width:0.447;stroke-linecap:round;stroke-linejoin:round;stroke-miterlimit:10;stroke-dasharray:none;stroke-opacity:1"
                     d="M 0,0 -7.2,-7.2" /><g
                     transform="translate(-7.2,82.8)"
                     id="g114"><path
                       id="path116"
                       style="fill:none;stroke:#000000;stroke-width:0.447;stroke-linecap:round;stroke-linejoin:round;stroke-miterlimit:10;stroke-dasharray:none;stroke-opacity:1"
                       d="M 0,0 V -7.2 H -10.8 V -28.8 H 0 V -36" /><g
                       transform="translate(-14.4,-7.2)"
                       id="g118"><path
                         id="path120"
                         style="fill:none;stroke:#000000;stroke-width:0.447;stroke-linecap:round;stroke-linejoin:round;stroke-miterlimit:10;stroke-dasharray:none;stroke-opacity:1"
                         d="M 0,0 V -21.6" /><g
                         transform="translate(0,-10.8)"
                         id="g122"><path
                           id="path124"
                           style="fill:none;stroke:#000000;stroke-width:0.447;stroke-linecap:round;stroke-linejoin:round;stroke-miterlimit:10;stroke-dasharray:none;stroke-opacity:1"
                           d="M 0,0 H -10.8" /><g
                           transform="translate(14.4,-14.4)"
                           id="g126"><path
                             id="path128"
                             style="fill:none;stroke:#000000;stroke-width:0.447;stroke-linecap:round;stroke-linejoin:round;stroke-miterlimit:10;stroke-dasharray:none;stroke-opacity:1"
                             d="M 0,0 V -14.4" /><g
                             transform="translate(54,36)"
                             id="g130"><path
                               id="path132"
                               style="fill:none;stroke:#000000;stroke-width:0.447;stroke-linecap:round;stroke-linejoin:round;stroke-miterlimit:10;stroke-dasharray:none;stroke-opacity:1"
                               d="M 0,0 V 1.56 L 0.12,1.8 V 1.92 L 0.24,2.16 V 2.4 L 0.36,2.64 V 3 L 0.48,3.12 V 3.24 L 0.6,3.48 V 3.84 L 0.72,3.96 0.84,4.2 V 4.32 L 0.96,4.44 V 4.8 L 1.2,5.04 1.32,5.28 1.56,5.52 V 5.64 L 1.68,5.88 2.16,6.36 V 6.48 L 2.28,6.6 2.4,6.84 3,7.44 3.12,7.68 3.24,7.8 h 0.12 l 0.6,0.6 H 4.08 L 4.32,8.64 4.56,8.76 4.8,9 h 0.12 c 0.405,0.176 1.427,0.946 1.8,0.96 l 0.12,0.12 H 6.96 L 7.2,10.2 h 0.36 l 0.12,0.12 H 7.8 l 0.12,0.12 H 8.4 l 0.12,0.12 h 0.72 l 0.12,0.12 h 0.84 l 0.24,0.12 h 1.92 l 0.12,-0.12 h 0.24 l 0.24,-0.12 h 0.24 l 0.12,-0.12 h 0.48 l 0.12,-0.12 h 0.12 l 0.12,-0.12 h 0.36 L 15,9.96 h 0.12 L 15.24,9.84 H 15.6 L 15.96,9.48 16.2,9.36 16.32,9.24 h 0.12 L 16.56,9.12 16.8,9 17.16,8.64 h 0.12 l 0.24,-0.24 0.24,-0.12 1.2,-1.2 V 6.96 L 19.44,6.48 19.56,6.24 19.8,6 V 5.64 L 20.16,5.28 20.28,5.04 20.4,4.92 V 4.8 L 20.52,4.68 20.76,4.2 V 3.96 L 20.88,3.84 V 3.6 L 21,3.48 V 3.12 L 21.12,3 V 2.88 L 21.24,2.64 V 2.4 L 21.36,2.28 V 1.56 L 21.48,1.44 V 0.6 L 21.6,0.36 v -0.48 c -0.025,-0.823 0.113,-1.294 -0.24,-2.04 V -2.52 L 21.24,-2.76 V -3 L 21.12,-3.12 V -3.24 L 21,-3.36 V -3.72 L 20.76,-4.2 V -4.44 L 20.64,-4.56 V -4.8 L 20.28,-5.16 20.16,-5.4 V -5.52 L 19.92,-5.76 19.8,-6 19.56,-6.24 V -6.36 L 19.2,-6.72 19.08,-6.96 18.96,-7.08 V -7.2 L 18.72,-7.32 18.36,-7.68 C 17.802,-8.317 17.872,-7.992 17.4,-8.52 L 17.16,-8.76 16.92,-8.88 16.8,-9 H 16.56 L 16.32,-9.12 15.96,-9.48 15.72,-9.6 H 15.6 L 15.48,-9.72 15,-9.96 h -0.24 l -0.12,-0.12 H 14.4 l -0.12,-0.12 h -0.36 l -0.12,-0.12 h -0.12 l -0.24,-0.12 H 13.2 l -0.12,-0.12 h -0.72 l -0.12,-0.12 H 11.4 L 11.16,-10.8 H 10.8 c -0.48,0 -0.96,0 -1.44,0 H 9.24 L 9,-10.68 H 8.88 l -0.24,0.12 H 8.16 l -0.12,0.12 H 7.8 l -0.12,0.12 H 7.56 L 7.32,-10.2 H 6.96 L 6.84,-10.08 6.6,-9.96 H 6.36 L 6.12,-9.84 H 6 L 5.76,-9.6 5.52,-9.48 5.4,-9.36 H 5.28 L 5.16,-9.24 4.92,-9.12 4.56,-8.76 H 4.44 L 4.2,-8.52 3.96,-8.4 3.72,-8.16 H 3.6 L 3.48,-7.92 3.36,-7.8 3.12,-7.68 3,-7.56 v 0.12 l -0.6,0.6 v 0.12 L 2.04,-6.36 1.92,-6.12 1.8,-6 v 0.12 L 1.68,-5.76 1.56,-5.52 V -5.4 L 1.32,-5.16 1.2,-4.92 V -4.8 L 1.08,-4.68 0.96,-4.44 0.84,-4.2 v 0.12 l -0.12,0.12 v 0.12 L 0.6,-3.6 v 0.24 L 0.48,-3.12 V -3 l -0.12,0.12 v 0.48 l -0.12,0.12 v 0.72 L 0.12,-1.44 V -0.6 L 0,-0.36 Z" /><g
                               transform="translate(10.8,10.8)"
                               id="g134"><path
                                 id="path136"
                                 style="fill:none;stroke:#000000;stroke-width:0.447;stroke-linecap:round;stroke-linejoin:round;stroke-miterlimit:10;stroke-dasharray:none;stroke-opacity:1"
                                 d="M 0,0 V 14.4" /><g
                                 transform="translate(0,-21.6)"
                                 id="g138"><path
                                   id="path140"
                                   style="fill:none;stroke:#000000;stroke-width:0.447;stroke-linecap:round;stroke-linejoin:round;stroke-miterlimit:10;stroke-dasharray:none;stroke-opacity:1"
                                   d="M 0,0 V -14.4" /><g
                                   transform="translate(0,18)"
                                   id="g142"><path
                                   id="path144"
                                   style="fill:none;stroke:#000000;stroke-width:0.447;stroke-linecap:round;stroke-linejoin:round;stroke-miterlimit:10;stroke-dasharray:none;stroke-opacity:1"
                                   d="M 0,0 V -6.48" /><g
                                   transform="translate(-2.64,-2.76)"
                                   id="g146"><path
                                   id="path148"
                                   style="fill:none;stroke:#000000;stroke-width:0.447;stroke-linecap:round;stroke-linejoin:round;stroke-miterlimit:10;stroke-dasharray:none;stroke-opacity:1"
                                   d="M 0,0 H 5.64" /><g
                                   transform="translate(0,-8.16)"
                                   id="g150"><path
                                   id="path152"
                                   style="fill:none;stroke:#000000;stroke-width:0.447;stroke-linecap:round;stroke-linejoin:round;stroke-miterlimit:10;stroke-dasharray:none;stroke-opacity:1"
                                   d="M 0,0 H 5.64" /><g
                                   transform="translate(-62.16,28.92)"
                                   id="g154"><path
                                   id="path156"
                                   style="fill:none;stroke:#000000;stroke-width:0.447;stroke-linecap:round;stroke-linejoin:round;stroke-miterlimit:10;stroke-dasharray:none;stroke-opacity:1"
                                   d="M 0,0 H 64.8" /><g
                                   transform="translate(64.8,-46.8)"
                                   id="g158"><path
                                   id="path160"
                                   style="fill:none;stroke:#000000;stroke-width:0.447;stroke-linecap:round;stroke-linejoin:round;stroke-miterlimit:10;stroke-dasharray:none;stroke-opacity:1"
                                   d="M 0,0 V -7.2" /><g
                                   transform="translate(-7.2,-7.2)"
                                   id="g162"><path
                                   id="path164"
                                   style="fill:none;stroke:#000000;stroke-width:0.447;stroke-linecap:round;stroke-linejoin:round;stroke-miterlimit:10;stroke-dasharray:none;stroke-opacity:1"
                                   d="M 0,0 H 14.4" /><path
                                   id="path166"
                                   style="fill:none;stroke:#000000;stroke-width:0.447;stroke-linecap:round;stroke-linejoin:round;stroke-miterlimit:10;stroke-dasharray:none;stroke-opacity:1"
                                   d="M 0,0 7.2,-7.2" /><g
                                   transform="translate(14.4)"
                                   id="g168"><path
                                   id="path170"
                                   style="fill:none;stroke:#000000;stroke-width:0.447;stroke-linecap:round;stroke-linejoin:round;stroke-miterlimit:10;stroke-dasharray:none;stroke-opacity:1"
                                   d="M 0,0 -7.2,-7.2" /><g
                                   transform="translate(-64.8,61.2)"
                                   id="g172"><path
                                   id="path174"
                                   style="fill:none;stroke:#000000;stroke-width:0.447;stroke-linecap:round;stroke-linejoin:round;stroke-miterlimit:10;stroke-dasharray:none;stroke-opacity:1"
                                   d="M 0,0 H 46.8" /><path
                                   id="path176"
                                   style="fill:#000000;fill-opacity:1;fill-rule:evenodd;stroke:#000000;stroke-width:0.447;stroke-linecap:round;stroke-linejoin:round;stroke-miterlimit:10;stroke-dasharray:none;stroke-opacity:1"
                                   d="M 0,0 6,3 3,0 Z" /><path
                                   id="path178"
                                   style="fill:#000000;fill-opacity:1;fill-rule:evenodd;stroke:#000000;stroke-width:0.447;stroke-linecap:round;stroke-linejoin:round;stroke-miterlimit:10;stroke-dasharray:none;stroke-opacity:1"
                                   d="M 0,0 6,-3 3,0 Z" /><g
                                   transform="translate(-7.2,-39.6)"
                                   id="g180"><path
                                   id="path182"
                                   style="fill:none;stroke:#000000;stroke-width:0.447;stroke-linecap:round;stroke-linejoin:round;stroke-miterlimit:10;stroke-dasharray:none;stroke-opacity:1"
                                   d="M 0,0 V 32.4" /><g
                                   transform="matrix(1.0928962,0,0,1.0928962,-448.04562,-647.74605)"
                                   id="g184"><text
   id="text188"
   style="font-variant:normal;font-weight:normal;font-size:10.2478px;font-family:TimesLTStd;-inkscape-font-specification:TimesLTStd-Roman;writing-mode:lr-tb;fill:#000000;fill-opacity:1;fill-rule:nonzero;stroke:none"
   transform="matrix(1,0,0,-1,413.25574,537.34844)"><tspan
     id="tspan186"
     y="0"
     x="0 9.3316469">M2</tspan></text>
<text
   id="text192"
   style="font-variant:normal;font-weight:normal;font-size:10.2478px;font-family:TimesLTStd;-inkscape-font-specification:TimesLTStd-Roman;writing-mode:lr-tb;fill:#000000;fill-opacity:1;fill-rule:nonzero;stroke:none"
   transform="matrix(1,0,0,-1,413.25574,576.8742)"><tspan
     id="tspan190"
     y="0"
     x="0 9.3316469">M4</tspan></text>
<g
   transform="matrix(0.915,0,0,0.915,202.43974,635.50964)"
   id="g194"><path
     id="path196"
     style="fill:none;stroke:#000000;stroke-width:0.447;stroke-linecap:round;stroke-linejoin:round;stroke-miterlimit:10;stroke-dasharray:none;stroke-opacity:1"
     d="M 0,0 H 122.4" /><g
     transform="translate(144,18)"
     id="g198"><path
       id="path200"
       style="fill:none;stroke:#000000;stroke-width:0.447;stroke-linecap:round;stroke-linejoin:round;stroke-miterlimit:10;stroke-dasharray:none;stroke-opacity:1"
       d="M 0,0 V -7.2 H -10.8" /><g
       transform="translate(-10.92,-7.2)"
       id="g202"><path
         id="path204"
         style="fill:none;stroke:#000000;stroke-width:0.447;stroke-linecap:round;stroke-linejoin:round;stroke-miterlimit:10;stroke-dasharray:none;stroke-opacity:1"
         d="M 0,0 V -21.48" /><g
         transform="translate(0.12,-21.6)"
         id="g206"><path
           id="path208"
           style="fill:none;stroke:#000000;stroke-width:0.447;stroke-linecap:round;stroke-linejoin:round;stroke-miterlimit:10;stroke-dasharray:none;stroke-opacity:1"
           d="M 0,0 H 10.8 V -39.6" /><g
           transform="translate(-3.6,21.6)"
           id="g210"><path
             id="path212"
             style="fill:none;stroke:#000000;stroke-width:0.447;stroke-linecap:round;stroke-linejoin:round;stroke-miterlimit:10;stroke-dasharray:none;stroke-opacity:1"
             d="M 0,0 V -21.6" /><g
             transform="translate(-6.84,-10.8)"
             id="g214"><path
               id="path216"
               style="fill:none;stroke:#000000;stroke-width:0.447;stroke-linecap:round;stroke-linejoin:round;stroke-miterlimit:10;stroke-dasharray:none;stroke-opacity:1"
               d="M 0,0 H -3.96" /><g
               transform="translate(0,0.24)"
               id="g218"><path
                 id="path220"
                 style="fill:none;stroke:#000000;stroke-width:0.447;stroke-linecap:round;stroke-linejoin:round;stroke-miterlimit:10;stroke-dasharray:none;stroke-opacity:1"
                 d="M 0,0 V 0.96 L 0.12,1.08 V 1.2 H 0.24 V 1.56 H 0.36 V 1.8 H 0.48 V 2.04 H 0.6 V 2.16 H 0.72 V 2.28 H 0.84 V 2.4 H 0.96 L 1.2,2.64 H 1.32 V 2.76 H 1.56 L 1.8,3 h 0.12 v 0.12 h 0.12 v 0.12 h 0.48 v 0.12 h 0.72 v 0.12 h 0.12 c 0.32,0 0.64,0 0.96,0 H 4.44 V 3.36 H 4.8 V 3.24 H 5.04 V 3.12 H 5.28 L 5.4,3 H 5.64 V 2.88 L 5.76,2.76 H 5.88 V 2.64 H 6 V 2.4 H 6.12 L 6.24,2.28 V 2.16 L 6.36,2.04 V 1.8 H 6.48 L 6.6,1.68 V 1.56 H 6.72 V 1.44 H 6.84 V 0.96 L 6.96,0.84 V 0.24 L 7.08,0.12 V -0.84 L 6.96,-0.96 V -1.2 L 6.84,-1.32 V -1.56 H 6.72 V -1.8 H 6.6 V -2.04 H 6.48 V -2.16 H 6.36 V -2.28 H 6.24 V -2.4 H 6.12 V -2.52 H 6 V -2.64 H 5.88 L 5.76,-2.76 H 5.64 V -2.88 H 5.4 V -3 H 5.28 L 5.16,-3.12 H 5.04 V -3.24 H 4.8 V -3.36 H 4.44 L 4.32,-3.48 H 3.84 L 3.72,-3.6 H 3.6 c -0.24,0 -0.48,0 -0.72,0 H 2.64 v 0.12 H 2.4 L 2.28,-3.36 H 2.04 v 0.12 H 1.8 L 1.56,-3 H 1.32 v 0.12 H 1.2 v 0.12 L 1.08,-2.64 H 0.96 v 0.12 L 0.84,-2.4 v 0.12 L 0.6,-2.04 V -1.8 H 0.48 l -0.12,0.12 v 0.12 H 0.24 v 0.48 l -0.12,0.12 v 0.12 H 0 v 0.12 c 0,0.2 0,0.4 0,0.6 z" /><g
                 transform="translate(10.44,26.4)"
                 id="g222"><path
                   id="path224"
                   style="fill:none;stroke:#000000;stroke-width:0.447;stroke-linecap:round;stroke-linejoin:round;stroke-miterlimit:10;stroke-dasharray:none;stroke-opacity:1"
                   d="M 0,0 H 21.6" /><g
                   transform="translate(10.8,-10.8)"
                   id="g226"><path
                     id="path228"
                     style="fill:none;stroke:#000000;stroke-width:0.447;stroke-linecap:round;stroke-linejoin:round;stroke-miterlimit:10;stroke-dasharray:none;stroke-opacity:1"
                     d="M 0,0 V 10.8" /><g
                     transform="matrix(1.0928962,0,0,1.0928962,-365.24562,-710.38605)"
                     id="g230"><text
   id="text234"
   style="font-style:italic;font-variant:normal;font-size:10.0647px;font-family:TimesLTStd;-inkscape-font-specification:TimesLTStd-Italic;writing-mode:lr-tb;fill:#000000;fill-opacity:1;fill-rule:nonzero;stroke:none"
   transform="matrix(1,0,0,-1,324.31774,663.50864)"><tspan
     id="tspan232"
     y="0"
     x="0 6.0287552 13.174692">VDD</tspan></text>
<g
   transform="matrix(0.915,0,0,0.915,288.08374,595.98164)"
   id="g236"><path
     id="path238"
     style="fill:none;stroke:#000000;stroke-width:0.447;stroke-linecap:round;stroke-linejoin:round;stroke-miterlimit:10;stroke-dasharray:none;stroke-opacity:1"
     d="M 0,0 V -7.2 H 10.8 V -28.8 H 0 V -36" /><g
     transform="translate(14.4,-7.2)"
     id="g240"><path
       id="path242"
       style="fill:none;stroke:#000000;stroke-width:0.447;stroke-linecap:round;stroke-linejoin:round;stroke-miterlimit:10;stroke-dasharray:none;stroke-opacity:1"
       d="M 0,0 V -21.6" /><g
       transform="translate(0,-10.8)"
       id="g244"><path
         id="path246"
         style="fill:none;stroke:#000000;stroke-width:0.447;stroke-linecap:round;stroke-linejoin:round;stroke-miterlimit:10;stroke-dasharray:none;stroke-opacity:1"
         d="M 0,0 H 10.8" /><g
         transform="translate(-14.4,46.8)"
         id="g248"><path
           id="path250"
           style="fill:none;stroke:#000000;stroke-width:0.447;stroke-linecap:round;stroke-linejoin:round;stroke-miterlimit:10;stroke-dasharray:none;stroke-opacity:1"
           d="M 0,0 V -36" /><g
           transform="translate(50.4,-79.2)"
           id="g252"><path
             id="path254"
             style="fill:none;stroke:#000000;stroke-width:0.447;stroke-linecap:round;stroke-linejoin:round;stroke-miterlimit:10;stroke-dasharray:none;stroke-opacity:1"
             d="M 0,0 H 10.8 V -21.6 H 0" /><g
             transform="translate(14.4)"
             id="g256"><path
               id="path258"
               style="fill:none;stroke:#000000;stroke-width:0.447;stroke-linecap:round;stroke-linejoin:round;stroke-miterlimit:10;stroke-dasharray:none;stroke-opacity:1"
               d="M 0,0 V -21.6" /><g
               transform="translate(0,-10.8)"
               id="g260"><path
                 id="path262"
                 style="fill:none;stroke:#000000;stroke-width:0.447;stroke-linecap:round;stroke-linejoin:round;stroke-miterlimit:10;stroke-dasharray:none;stroke-opacity:1"
                 d="M 0,0 H 10.8" /><g
                 transform="translate(-14.4,-10.8)"
                 id="g264"><path
                   id="path266"
                   style="fill:none;stroke:#000000;stroke-width:0.447;stroke-linecap:round;stroke-linejoin:round;stroke-miterlimit:10;stroke-dasharray:none;stroke-opacity:1"
                   d="M 0,0 V -10.8" /><g
                   transform="translate(-7.2,-10.8)"
                   id="g268"><path
                     id="path270"
                     style="fill:none;stroke:#000000;stroke-width:0.447;stroke-linecap:round;stroke-linejoin:round;stroke-miterlimit:10;stroke-dasharray:none;stroke-opacity:1"
                     d="M 0,0 H 14.4" /><path
                     id="path272"
                     style="fill:none;stroke:#000000;stroke-width:0.447;stroke-linecap:round;stroke-linejoin:round;stroke-miterlimit:10;stroke-dasharray:none;stroke-opacity:1"
                     d="M 0,0 7.2,-7.2" /><g
                     transform="translate(14.4)"
                     id="g274"><path
                       id="path276"
                       style="fill:none;stroke:#000000;stroke-width:0.447;stroke-linecap:round;stroke-linejoin:round;stroke-miterlimit:10;stroke-dasharray:none;stroke-opacity:1"
                       d="M 0,0 -7.2,-7.2" /><g
                       transform="translate(-7.2,86.4)"
                       id="g278"><path
                         id="path280"
                         style="fill:none;stroke:#000000;stroke-width:0.447;stroke-linecap:round;stroke-linejoin:round;stroke-miterlimit:10;stroke-dasharray:none;stroke-opacity:1"
                         d="M 0,0 H 25.2 V -64.8" /><g
                         transform="translate(-25.2,-21.6)"
                         id="g282"><path
                           id="path284"
                           style="fill:none;stroke:#000000;stroke-width:0.447;stroke-linecap:round;stroke-linejoin:round;stroke-miterlimit:10;stroke-dasharray:none;stroke-opacity:1"
                           d="M 0,0 V 21.6 H -25.2" /><g
                           transform="translate(-1.68,0.36)"
                           id="g286"><path
                             id="path288"
                             style="fill:#000000;fill-opacity:1;fill-rule:evenodd;stroke:none"
                             d="M 0,0 V 0.6 L 0.12,0.72 V 0.84 L 0.24,0.96 V 1.08 H 0.36 V 1.2 H 0.48 V 1.32 H 0.6 L 0.72,1.44 H 0.84 V 1.56 H 0.96 V 1.68 H 1.68 V 1.8 H 2.4 V 1.68 H 2.64 L 2.76,1.56 H 2.88 V 1.44 H 3 V 1.2 H 3.12 V 1.08 H 3.24 V 0.96 L 3.36,0.84 H 3.48 V 0.12 H 3.6 v -0.6 L 3.48,-0.6 V -0.84 H 3.36 V -0.96 H 3.24 V -1.08 L 3.12,-1.2 H 3 L 2.76,-1.44 H 2.64 V -1.56 H 2.4 L 2.28,-1.68 H 1.92 L 1.8,-1.8 H 1.2 v 0.12 H 0.96 v 0.12 H 0.84 L 0.6,-1.32 H 0.48 v 0.24 L 0.36,-0.96 H 0.24 v 0.24 H 0.12 v 0.6 H 0 V 0" /><path
                             id="path290"
                             style="fill:none;stroke:#000000;stroke-width:0.447;stroke-linecap:round;stroke-linejoin:round;stroke-miterlimit:10;stroke-dasharray:none;stroke-opacity:1"
                             d="M 0,0 V 0.6 L 0.12,0.72 V 0.84 L 0.24,0.96 V 1.08 H 0.36 V 1.2 H 0.48 V 1.32 H 0.6 L 0.72,1.44 H 0.84 V 1.56 H 0.96 V 1.68 H 1.68 V 1.8 H 2.4 V 1.68 H 2.64 L 2.76,1.56 H 2.88 V 1.44 H 3 V 1.2 H 3.12 V 1.08 H 3.24 V 0.96 L 3.36,0.84 H 3.48 V 0.12 H 3.6 v -0.6 L 3.48,-0.6 V -0.84 H 3.36 V -0.96 H 3.24 V -1.08 L 3.12,-1.2 H 3 L 2.76,-1.44 H 2.64 V -1.56 H 2.4 L 2.28,-1.68 H 1.92 L 1.8,-1.8 H 1.2 v 0.12 H 0.96 v 0.12 H 0.84 L 0.6,-1.32 H 0.48 v 0.24 L 0.36,-0.96 H 0.24 v 0.24 H 0.12 v 0.6 H 0 Z" /><g
                             transform="translate(50.4,-43.92)"
                             id="g292"><path
                               id="path294"
                               style="fill:#000000;fill-opacity:1;fill-rule:evenodd;stroke:none"
                               d="M 0,0 V 0.6 H 0.12 V 0.84 H 0.24 V 0.96 L 0.48,1.2 H 0.6 L 0.96,1.56 H 1.2 V 1.68 H 1.68 V 1.8 h 0.6 L 2.4,1.68 H 2.64 V 1.56 H 2.76 L 2.88,1.44 V 1.32 H 3 V 1.2 L 3.24,0.96 V 0.84 H 3.36 V 0.72 H 3.48 V 0 H 3.6 V -0.6 H 3.48 V -0.84 L 3.36,-0.96 V -1.08 H 3.24 V -1.2 H 3.12 V -1.32 H 2.88 V -1.44 H 2.76 V -1.56 H 2.64 V -1.68 H 2.4 L 2.28,-1.8 H 0.96 v 0.12 H 0.84 v 0.12 H 0.72 v 0.12 H 0.6 l -0.12,0.12 v 0.12 l -0.24,0.24 v 0.12 H 0.12 v 0.6 L 0,-0.12 V 0" /><path
                               id="path296"
                               style="fill:none;stroke:#000000;stroke-width:0.447;stroke-linecap:round;stroke-linejoin:round;stroke-miterlimit:10;stroke-dasharray:none;stroke-opacity:1"
                               d="M 0,0 V 0.6 H 0.12 V 0.84 H 0.24 V 0.96 L 0.48,1.2 H 0.6 L 0.96,1.56 H 1.2 V 1.68 H 1.68 V 1.8 h 0.6 L 2.4,1.68 H 2.64 V 1.56 H 2.76 L 2.88,1.44 V 1.32 H 3 V 1.2 L 3.24,0.96 V 0.84 H 3.36 V 0.72 H 3.48 V 0 H 3.6 V -0.6 H 3.48 V -0.84 L 3.36,-0.96 V -1.08 H 3.24 V -1.2 H 3.12 V -1.32 H 2.88 V -1.44 H 2.76 V -1.56 H 2.64 V -1.68 H 2.4 L 2.28,-1.8 H 0.96 v 0.12 H 0.84 v 0.12 H 0.72 v 0.12 H 0.6 l -0.12,0.12 v 0.12 l -0.24,0.24 v 0.12 H 0.12 v 0.6 L 0,-0.12 Z" /><g
                               transform="translate(-25.08,65.64)"
                               id="g298"><path
                                 id="path300"
                                 style="fill:#000000;fill-opacity:1;fill-rule:evenodd;stroke:none"
                                 d="M 0,0 V 0.6 H 0.12 V 0.84 L 0.36,1.08 V 1.2 h 0.12 v 0.12 h 0.24 v 0.12 h 0.12 v 0.12 h 0.12 l 0.12,0.12 h 0.6 V 1.8 H 2.4 L 2.52,1.68 H 2.64 L 2.76,1.56 H 2.88 V 1.44 H 3 V 1.32 H 3.12 V 1.08 H 3.24 V 0.96 H 3.36 V 0.84 L 3.48,0.72 V 0.12 H 3.6 V -0.6 H 3.48 V -0.84 H 3.36 V -1.08 H 3.24 L 3.12,-1.2 H 3 V -1.32 H 2.88 V -1.44 H 2.76 C 2.386,-1.809 2.655,-1.65 2.04,-1.68 H 1.92 V -1.8 H 1.32 L 1.2,-1.68 H 0.96 v 0.12 H 0.84 L 0.6,-1.32 V -1.2 L 0.48,-1.08 H 0.36 v 0.24 H 0.24 l -0.12,0.12 v 0.6 L 0,0" /><path
                                 id="path302"
                                 style="fill:none;stroke:#000000;stroke-width:0.447;stroke-linecap:round;stroke-linejoin:round;stroke-miterlimit:10;stroke-dasharray:none;stroke-opacity:1"
                                 d="M 0,0 V 0.6 H 0.12 V 0.84 L 0.36,1.08 V 1.2 h 0.12 v 0.12 h 0.24 v 0.12 h 0.12 v 0.12 h 0.12 l 0.12,0.12 h 0.6 V 1.8 H 2.4 L 2.52,1.68 H 2.64 L 2.76,1.56 H 2.88 V 1.44 H 3 V 1.32 H 3.12 V 1.08 H 3.24 V 0.96 H 3.36 V 0.84 L 3.48,0.72 V 0.12 H 3.6 V -0.6 H 3.48 V -0.84 H 3.36 V -1.08 H 3.24 L 3.12,-1.2 H 3 V -1.32 H 2.88 V -1.44 H 2.76 C 2.386,-1.809 2.655,-1.65 2.04,-1.68 H 1.92 V -1.8 H 1.32 L 1.2,-1.68 H 0.96 v 0.12 H 0.84 L 0.6,-1.32 V -1.2 L 0.48,-1.08 H 0.36 v 0.24 H 0.24 l -0.12,0.12 v 0.6 z" /><g
                                 transform="translate(-50.64,-0.6)"
                                 id="g304"><path
                                   id="path306"
                                   style="fill:#000000;fill-opacity:1;fill-rule:evenodd;stroke:none"
                                   d="m 0,0 v 0.6 h 0.12 v 0.24 h 0.12 v 0.12 h 0.12 v 0.12 c 0.551,0.596 0.049,-0.116 0.6,0.48 h 0.12 v 0.12 h 0.6 L 1.8,1.8 H 2.4 L 2.52,1.68 H 2.76 V 1.56 H 2.88 L 3,1.44 V 1.32 H 3.12 V 1.2 L 3.36,0.96 V 0.84 H 3.48 V 0.6 H 3.6 V 0.48 c 0,-0.4 0,-0.8 0,-1.2 V -0.84 H 3.48 L 3.36,-0.96 V -1.08 H 3.24 V -1.2 H 3 V -1.32 L 2.88,-1.44 H 2.76 V -1.56 H 2.64 V -1.68 H 1.92 V -1.8 H 1.32 L 1.2,-1.68 H 0.96 v 0.12 H 0.84 v 0.12 H 0.72 L 0.6,-1.32 v 0.24 H 0.48 l -0.12,0.12 v 0.12 H 0.24 v 0.24 l -0.12,0.12 v 0.36 L 0,0" /><path
                                   id="path308"
                                   style="fill:none;stroke:#000000;stroke-width:0.447;stroke-linecap:round;stroke-linejoin:round;stroke-miterlimit:10;stroke-dasharray:none;stroke-opacity:1"
                                   d="m 0,0 v 0.6 h 0.12 v 0.24 h 0.12 v 0.12 h 0.12 v 0.12 c 0.551,0.596 0.049,-0.116 0.6,0.48 h 0.12 v 0.12 h 0.6 L 1.8,1.8 H 2.4 L 2.52,1.68 H 2.76 V 1.56 H 2.88 L 3,1.44 V 1.32 H 3.12 V 1.2 L 3.36,0.96 V 0.84 H 3.48 V 0.6 H 3.6 V 0.48 c 0,-0.4 0,-0.8 0,-1.2 V -0.84 H 3.48 L 3.36,-0.96 V -1.08 H 3.24 V -1.2 H 3 V -1.32 L 2.88,-1.44 H 2.76 V -1.56 H 2.64 V -1.68 H 1.92 V -1.8 H 1.32 L 1.2,-1.68 H 0.96 v 0.12 H 0.84 v 0.12 H 0.72 L 0.6,-1.32 v 0.24 H 0.48 l -0.12,0.12 v 0.12 H 0.24 v 0.24 l -0.12,0.12 v 0.36 z" /><g
                                   transform="matrix(1.0928962,0,0,1.0928962,-313.04562,-654.82605)"
                                   id="g310"><text
   id="text314"
   style="font-variant:normal;font-weight:normal;font-size:10.2478px;font-family:TimesLTStd;-inkscape-font-specification:TimesLTStd-Roman;writing-mode:lr-tb;fill:#000000;fill-opacity:1;fill-rule:nonzero;stroke:none"
   transform="matrix(1,0,0,-1,317.72974,537.34844)"><tspan
     id="tspan312"
     y="0"
     x="0 9.3316469">M1</tspan></text>
<text
   id="text318"
   style="font-variant:normal;font-weight:normal;font-size:10.2478px;font-family:TimesLTStd;-inkscape-font-specification:TimesLTStd-Roman;writing-mode:lr-tb;fill:#000000;fill-opacity:1;fill-rule:nonzero;stroke:none"
   transform="matrix(1,0,0,-1,258.43597,583.46354)"><tspan
     id="tspan316"
     y="0"
     x="0 9.2219954 18.884645">MWS</tspan></text>
<g
   transform="matrix(0.915,0,0,0.915,288.08374,651.97964)"
   id="g320"><path
     id="path322"
     style="fill:none;stroke:#000000;stroke-width:0.447;stroke-linecap:round;stroke-linejoin:round;stroke-miterlimit:10;stroke-dasharray:none;stroke-opacity:1"
     d="M 0,0 V -7.2 H -10.8" /><g
     transform="translate(-10.92,-7.2)"
     id="g324"><path
       id="path326"
       style="fill:none;stroke:#000000;stroke-width:0.447;stroke-linecap:round;stroke-linejoin:round;stroke-miterlimit:10;stroke-dasharray:none;stroke-opacity:1"
       d="M 0,0 V -21.48" /><g
       transform="translate(0.12,-21.6)"
       id="g328"><path
         id="path330"
         style="fill:none;stroke:#000000;stroke-width:0.447;stroke-linecap:round;stroke-linejoin:round;stroke-miterlimit:10;stroke-dasharray:none;stroke-opacity:1"
         d="M 0,0 H 10.8 V -7.2" /><g
         transform="translate(-3.6,21.6)"
         id="g332"><path
           id="path334"
           style="fill:none;stroke:#000000;stroke-width:0.447;stroke-linecap:round;stroke-linejoin:round;stroke-miterlimit:10;stroke-dasharray:none;stroke-opacity:1"
           d="M 0,0 V -21.6" /><g
           transform="translate(-6.84,-10.8)"
           id="g336"><path
             id="path338"
             style="fill:none;stroke:#000000;stroke-width:0.447;stroke-linecap:round;stroke-linejoin:round;stroke-miterlimit:10;stroke-dasharray:none;stroke-opacity:1"
             d="M 0,0 H -3.96" /><g
             transform="translate(0,0.24)"
             id="g340"><path
               id="path342"
               style="fill:none;stroke:#000000;stroke-width:0.447;stroke-linecap:round;stroke-linejoin:round;stroke-miterlimit:10;stroke-dasharray:none;stroke-opacity:1"
               d="M 0,0 V 0.96 L 0.12,1.08 V 1.2 H 0.24 V 1.56 H 0.36 V 1.8 H 0.48 V 2.04 H 0.6 V 2.16 H 0.72 V 2.28 H 0.84 V 2.4 H 0.96 L 1.2,2.64 H 1.32 V 2.76 H 1.56 L 1.8,3 h 0.12 v 0.12 h 0.12 v 0.12 h 0.48 v 0.12 h 0.72 v 0.12 h 0.12 c 0.32,0 0.64,0 0.96,0 H 4.44 V 3.36 H 4.8 V 3.24 H 5.04 V 3.12 H 5.28 L 5.4,3 H 5.64 V 2.88 L 5.76,2.76 H 5.88 V 2.64 H 6 V 2.4 H 6.12 L 6.24,2.28 V 2.16 L 6.36,2.04 V 1.8 H 6.48 L 6.6,1.68 V 1.56 H 6.72 V 1.44 H 6.84 V 0.96 L 6.96,0.84 V 0.24 L 7.08,0.12 V -0.84 L 6.96,-0.96 V -1.2 L 6.84,-1.32 V -1.56 H 6.72 V -1.8 H 6.6 V -2.04 H 6.48 V -2.16 H 6.36 V -2.28 H 6.24 V -2.4 H 6.12 V -2.52 H 6 V -2.64 H 5.88 L 5.76,-2.76 H 5.64 V -2.88 H 5.4 V -3 H 5.28 L 5.16,-3.12 H 5.04 V -3.24 H 4.8 V -3.36 H 4.44 L 4.32,-3.48 H 3.84 L 3.72,-3.6 H 3.6 c -0.24,0 -0.48,0 -0.72,0 H 2.64 v 0.12 H 2.4 L 2.28,-3.36 H 2.04 v 0.12 H 1.8 L 1.56,-3 H 1.32 v 0.12 H 1.2 v 0.12 L 1.08,-2.64 H 0.96 v 0.12 L 0.84,-2.4 v 0.12 L 0.6,-2.04 V -1.8 H 0.48 l -0.12,0.12 v 0.12 H 0.24 v 0.48 l -0.12,0.12 v 0.12 H 0 v 0.12 c 0,0.2 0,0.4 0,0.6 z" /><g
               transform="translate(10.44,26.4)"
               id="g344"><path
                 id="path346"
                 style="fill:none;stroke:#000000;stroke-width:0.447;stroke-linecap:round;stroke-linejoin:round;stroke-miterlimit:10;stroke-dasharray:none;stroke-opacity:1"
                 d="M 0,0 H 21.6" /><g
                 transform="translate(10.8,-10.8)"
                 id="g348"><path
                   id="path350"
                   style="fill:none;stroke:#000000;stroke-width:0.447;stroke-linecap:round;stroke-linejoin:round;stroke-miterlimit:10;stroke-dasharray:none;stroke-opacity:1"
                   d="M 0,0 V 10.8" /><g
                   transform="matrix(1.0928962,0,0,1.0928962,-314.84562,-710.38605)"
                   id="g352"><text
   id="text356"
   style="font-style:italic;font-variant:normal;font-size:10.0647px;font-family:TimesLTStd;-inkscape-font-specification:TimesLTStd-Italic;writing-mode:lr-tb;fill:#000000;fill-opacity:1;fill-rule:nonzero;stroke:none"
   transform="matrix(1,0,0,-1,278.20174,663.50864)"><tspan
     id="tspan354"
     y="0"
     x="0 6.0287552 13.174692">VDD</tspan></text>
<g
   transform="matrix(0.915,0,0,0.915,288.08374,566.33564)"
   id="g358"><path
     id="path360"
     style="fill:none;stroke:#000000;stroke-width:0.447;stroke-linecap:round;stroke-linejoin:round;stroke-miterlimit:10;stroke-dasharray:none;stroke-opacity:1"
     d="M 0,0 V -7.2" /><g
     transform="translate(-7.2,-7.2)"
     id="g362"><path
       id="path364"
       style="fill:none;stroke:#000000;stroke-width:0.447;stroke-linecap:round;stroke-linejoin:round;stroke-miterlimit:10;stroke-dasharray:none;stroke-opacity:1"
       d="M 0,0 H 14.4" /><path
       id="path366"
       style="fill:none;stroke:#000000;stroke-width:0.447;stroke-linecap:round;stroke-linejoin:round;stroke-miterlimit:10;stroke-dasharray:none;stroke-opacity:1"
       d="M 0,0 7.2,-7.2" /><g
       transform="translate(14.4)"
       id="g368"><path
         id="path370"
         style="fill:none;stroke:#000000;stroke-width:0.447;stroke-linecap:round;stroke-linejoin:round;stroke-miterlimit:10;stroke-dasharray:none;stroke-opacity:1"
         d="M 0,0 -7.2,-7.2" /><g
         transform="matrix(1.0928962,0,0,1.0928962,-322.04562,-611.74605)"
         id="g372"><text
   id="text376"
   style="font-variant:normal;font-weight:normal;font-size:10.2478px;font-family:TimesLTStd;-inkscape-font-specification:TimesLTStd-Roman;writing-mode:lr-tb;fill:#000000;fill-opacity:1;fill-rule:nonzero;stroke:none"
   transform="matrix(1,0,0,-1,258.43774,573.58254)"><tspan
     id="tspan374"
     y="0"
     x="0 5.2612205 10.522441 13.50865 18.667393">10/10</tspan></text>
<text
   id="text380"
   style="font-variant:normal;font-weight:normal;font-size:10.2478px;font-family:TimesLTStd;-inkscape-font-specification:TimesLTStd-Roman;writing-mode:lr-tb;fill:#000000;fill-opacity:1;fill-rule:nonzero;stroke:none"
   transform="matrix(1,0,0,-1,337.48927,632.32293)"><tspan
     id="tspan378"
     y="0"
     x="0 9.3316469 14.605165">M5b</tspan></text>
<text
   id="text384"
   style="font-variant:normal;font-weight:normal;font-size:10.2478px;font-family:TimesLTStd;-inkscape-font-specification:TimesLTStd-Roman;writing-mode:lr-tb;fill:#000000;fill-opacity:1;fill-rule:nonzero;stroke:none"
   transform="matrix(1,0,0,-1,291.37417,639.4554)"><tspan
     id="tspan382"
     y="0"
     x="0 9.3316469 14.492438">M5a</tspan></text>
<g
   transform="matrix(0.915,0,0,0.915,334.19974,589.39364)"
   id="g386"><path
     id="path388"
     style="fill:none;stroke:#000000;stroke-width:0.447;stroke-linecap:round;stroke-linejoin:round;stroke-miterlimit:10;stroke-dasharray:none;stroke-opacity:1"
     d="M 0,0 H 10.8 V -21.6 H 0" /><g
     transform="translate(14.4)"
     id="g390"><path
       id="path392"
       style="fill:none;stroke:#000000;stroke-width:0.447;stroke-linecap:round;stroke-linejoin:round;stroke-miterlimit:10;stroke-dasharray:none;stroke-opacity:1"
       d="M 0,0 V -21.6" /><g
       transform="translate(0,-10.8)"
       id="g394"><path
         id="path396"
         style="fill:none;stroke:#000000;stroke-width:0.447;stroke-linecap:round;stroke-linejoin:round;stroke-miterlimit:10;stroke-dasharray:none;stroke-opacity:1"
         d="M 0,0 H 10.8" /><g
         transform="translate(-14.4,-10.8)"
         id="g398"><path
           id="path400"
           style="fill:none;stroke:#000000;stroke-width:0.447;stroke-linecap:round;stroke-linejoin:round;stroke-miterlimit:10;stroke-dasharray:none;stroke-opacity:1"
           d="M 0,0 V -21.6" /><g
           transform="matrix(1.0928962,0,0,1.0928962,-365.24562,-622.54605)"
           id="g402"><text
   id="text406"
   style="font-variant:normal;font-weight:normal;font-size:10.2478px;font-family:TimesLTStd;-inkscape-font-specification:TimesLTStd-Roman;writing-mode:lr-tb;fill:#000000;fill-opacity:1;fill-rule:nonzero;stroke:none"
   transform="matrix(1,0,0,-1,314.43574,590.05254)"><tspan
     id="tspan404"
     y="0"
     x="0 9.3316469">M3</tspan></text>
<g
   transform="matrix(0.915,0,0,0.915,390.19774,579.51164)"
   id="g408"><path
     id="path410"
     style="fill:none;stroke:#000000;stroke-width:0.447;stroke-linecap:round;stroke-linejoin:round;stroke-miterlimit:10;stroke-dasharray:none;stroke-opacity:1"
     d="M 0,0 H -86.4" /><g
     transform="translate(-39.6,-43.2)"
     id="g412"><path
       id="path414"
       style="fill:none;stroke:#000000;stroke-width:0.447;stroke-linecap:round;stroke-linejoin:round;stroke-miterlimit:10;stroke-dasharray:none;stroke-opacity:1"
       d="M 0,0 H 39.6" /><g
       transform="matrix(1.0928962,0,0,1.0928962,-241.20001,87.441971)"
       id="g416"><text
   id="text420"
   style="font-variant:normal;font-weight:normal;font-size:10.2478px;font-family:TimesLTStd;-inkscape-font-specification:TimesLTStd-Roman;writing-mode:lr-tb;fill:#000000;fill-opacity:1;fill-rule:nonzero;stroke:none"
   transform="matrix(1,0,0,-1,1.156e-7,13.650071)"><tspan
     id="tspan418"
     y="0"
     x="0 6.9213643 11.536973 14.400208 19.015818 22.442682 30.429817 35.568066 38.431301 41.294537 44.157772 49.296017 52.159252 55.022488 59.638096">Beta-multiplier</tspan></text>
<text
   id="text424"
   style="font-variant:normal;font-weight:normal;font-size:10.2478px;font-family:TimesLTStd;-inkscape-font-specification:TimesLTStd-Roman;writing-mode:lr-tb;fill:#000000;fill-opacity:1;fill-rule:nonzero;stroke:none"
   transform="matrix(1,0,0,-1,1.156e-7,2.2340207)"><tspan
     id="tspan422"
     y="0"
     x="0 3.5160203 6.9193144 12.085231 20.100035 22.734745 28.474537 31.365442 36.418633 39.053341 41.688049 46.853966 52.019882 54.623848 59.789764">from Fig. 20.22</tspan></text>
</g></g></g></g></g></g></g></g></g></g></g></g></g></g></g></g></g></g></g></g></g></g></g></g></g></g></g></g></g></g></g></g></g></g></g></g></g></g></g></g></g></g></g></g></g></g></g></g></g></g></g></g></g></g></g></g></g></g></g></g></g></g></g></g></g></g></g></g></g></g></g></g></g></g></g></g></g></g></g></svg>
